G04 (created by PCBNEW (2013-07-07 BZR 4022)-stable) date 20/11/2014 9:19:33*
%MOIN*%
G04 Gerber Fmt 3.4, Leading zero omitted, Abs format*
%FSLAX34Y34*%
G01*
G70*
G90*
G04 APERTURE LIST*
%ADD10C,0.00590551*%
%ADD11C,0.012*%
%ADD12C,0.0125*%
%ADD13C,0.015*%
%ADD14C,0.005*%
%ADD15C,0.0107*%
%ADD16C,0.008*%
%ADD17C,0.01125*%
%ADD18C,0.0075*%
G04 APERTURE END LIST*
G54D10*
G54D11*
X70250Y-34750D02*
X71250Y-34750D01*
X71250Y-34750D02*
X71250Y-40750D01*
X71250Y-40750D02*
X70250Y-40750D01*
X70250Y-40750D02*
X70250Y-34750D01*
X70250Y-35750D02*
X71250Y-35750D01*
G54D10*
X79233Y-45371D02*
X81359Y-45371D01*
X81359Y-45371D02*
X81359Y-50568D01*
X81359Y-50568D02*
X79233Y-50568D01*
X77855Y-52772D02*
X79233Y-50568D01*
X79233Y-50568D02*
X79233Y-45371D01*
X79233Y-45371D02*
X77855Y-43166D01*
X69587Y-43166D02*
X77619Y-43166D01*
X77619Y-43166D02*
X77855Y-43166D01*
X69587Y-43166D02*
X69587Y-52772D01*
X77855Y-52772D02*
X69587Y-52772D01*
G54D11*
X59250Y-29050D02*
X59250Y-29450D01*
X59250Y-29450D02*
X59650Y-29450D01*
X59650Y-29450D02*
X59650Y-32650D01*
X59650Y-32650D02*
X58850Y-32650D01*
X58850Y-32650D02*
X58850Y-29450D01*
X58850Y-29450D02*
X59250Y-29450D01*
X59450Y-29450D02*
X59650Y-29650D01*
X59250Y-33050D02*
X59250Y-32650D01*
X66700Y-31300D02*
X66300Y-31300D01*
X66300Y-31300D02*
X66300Y-31700D01*
X66300Y-31700D02*
X63100Y-31700D01*
X63100Y-31700D02*
X63100Y-30900D01*
X63100Y-30900D02*
X66300Y-30900D01*
X66300Y-30900D02*
X66300Y-31300D01*
X66300Y-31500D02*
X66100Y-31700D01*
X62700Y-31300D02*
X63100Y-31300D01*
X50900Y-46700D02*
X50900Y-46300D01*
X50900Y-46300D02*
X50500Y-46300D01*
X50500Y-46300D02*
X50500Y-43100D01*
X50500Y-43100D02*
X51300Y-43100D01*
X51300Y-43100D02*
X51300Y-46300D01*
X51300Y-46300D02*
X50900Y-46300D01*
X50700Y-46300D02*
X50500Y-46100D01*
X50900Y-42700D02*
X50900Y-43100D01*
X52900Y-44800D02*
X52900Y-44400D01*
X52900Y-44400D02*
X52500Y-44400D01*
X52500Y-44400D02*
X52500Y-41200D01*
X52500Y-41200D02*
X53300Y-41200D01*
X53300Y-41200D02*
X53300Y-44400D01*
X53300Y-44400D02*
X52900Y-44400D01*
X52700Y-44400D02*
X52500Y-44200D01*
X52900Y-40800D02*
X52900Y-41200D01*
X60000Y-27800D02*
X60000Y-26800D01*
X60000Y-26800D02*
X66000Y-26800D01*
X66000Y-26800D02*
X66000Y-27800D01*
X66000Y-27800D02*
X60000Y-27800D01*
X61000Y-27800D02*
X61000Y-26800D01*
X55500Y-46700D02*
G75*
G03X55500Y-46700I-1000J0D01*
G74*
G01*
X55500Y-46450D02*
X55250Y-46450D01*
X55250Y-46450D02*
X55250Y-46950D01*
X55250Y-46950D02*
X55500Y-46950D01*
X57250Y-44800D02*
G75*
G03X57250Y-44800I-1000J0D01*
G74*
G01*
X57250Y-44550D02*
X57000Y-44550D01*
X57000Y-44550D02*
X57000Y-45050D01*
X57000Y-45050D02*
X57250Y-45050D01*
G54D12*
X57100Y-39800D02*
X57100Y-42300D01*
X59100Y-39800D02*
X59100Y-42300D01*
X58100Y-43300D02*
G75*
G03X59100Y-42300I0J1000D01*
G74*
G01*
X57100Y-42300D02*
G75*
G03X58100Y-43300I1000J0D01*
G74*
G01*
X59100Y-39800D02*
G75*
G03X58100Y-38800I-1000J0D01*
G74*
G01*
X58100Y-38800D02*
G75*
G03X57100Y-39800I0J-1000D01*
G74*
G01*
G54D13*
X63000Y-32050D02*
X63000Y-47050D01*
X63000Y-47050D02*
X61000Y-47050D01*
X61000Y-47050D02*
X61000Y-32050D01*
X61000Y-32050D02*
X63000Y-32050D01*
X62500Y-32050D02*
X62500Y-32550D01*
X62500Y-32550D02*
X61500Y-32550D01*
X61500Y-32550D02*
X61500Y-32050D01*
G54D11*
X54550Y-42450D02*
X54550Y-39650D01*
X54550Y-39650D02*
X55350Y-39650D01*
X55350Y-39650D02*
X55350Y-42450D01*
X55350Y-42450D02*
X54550Y-42450D01*
X54750Y-42450D02*
X54550Y-42250D01*
X55800Y-40450D02*
X55800Y-37650D01*
X55800Y-37650D02*
X56600Y-37650D01*
X56600Y-37650D02*
X56600Y-40450D01*
X56600Y-40450D02*
X55800Y-40450D01*
X56000Y-40450D02*
X55800Y-40250D01*
X60100Y-49800D02*
X60100Y-47000D01*
X60100Y-47000D02*
X60900Y-47000D01*
X60900Y-47000D02*
X60900Y-49800D01*
X60900Y-49800D02*
X60100Y-49800D01*
X60300Y-49800D02*
X60100Y-49600D01*
X65800Y-40650D02*
X65800Y-43450D01*
X65800Y-43450D02*
X65000Y-43450D01*
X65000Y-43450D02*
X65000Y-40650D01*
X65000Y-40650D02*
X65800Y-40650D01*
X65600Y-40650D02*
X65800Y-40850D01*
G54D14*
X63251Y-29750D02*
G75*
G03X63251Y-29750I-1001J0D01*
G74*
G01*
G54D13*
X53950Y-27050D02*
X54200Y-27050D01*
X54200Y-27050D02*
X54200Y-31050D01*
X54200Y-31050D02*
X53950Y-31050D01*
X52450Y-27050D02*
X53950Y-27050D01*
X53950Y-27050D02*
X53950Y-31050D01*
X53950Y-31050D02*
X52450Y-31050D01*
X52450Y-31050D02*
X52450Y-27050D01*
G54D15*
X71344Y-38076D02*
X71895Y-38076D01*
X71960Y-38055D01*
X71993Y-38035D01*
X72025Y-37994D01*
X72025Y-37913D01*
X71993Y-37872D01*
X71960Y-37851D01*
X71895Y-37831D01*
X71344Y-37831D01*
X71344Y-37423D02*
X71344Y-37627D01*
X71668Y-37648D01*
X71636Y-37627D01*
X71604Y-37586D01*
X71604Y-37485D01*
X71636Y-37444D01*
X71668Y-37423D01*
X71733Y-37403D01*
X71895Y-37403D01*
X71960Y-37423D01*
X71993Y-37444D01*
X72025Y-37485D01*
X72025Y-37586D01*
X71993Y-37627D01*
X71960Y-37648D01*
G54D11*
G54D16*
X74145Y-41570D02*
X74145Y-41893D01*
X74164Y-41932D01*
X74183Y-41951D01*
X74221Y-41970D01*
X74297Y-41970D01*
X74335Y-41951D01*
X74354Y-41932D01*
X74373Y-41893D01*
X74373Y-41570D01*
X74526Y-41570D02*
X74773Y-41570D01*
X74640Y-41722D01*
X74697Y-41722D01*
X74735Y-41741D01*
X74754Y-41760D01*
X74773Y-41798D01*
X74773Y-41893D01*
X74754Y-41932D01*
X74735Y-41951D01*
X74697Y-41970D01*
X74583Y-41970D01*
X74545Y-41951D01*
X74526Y-41932D01*
X59472Y-31133D02*
X59210Y-31300D01*
X59472Y-31419D02*
X58922Y-31419D01*
X58922Y-31228D01*
X58948Y-31180D01*
X58975Y-31157D01*
X59027Y-31133D01*
X59105Y-31133D01*
X59158Y-31157D01*
X59184Y-31180D01*
X59210Y-31228D01*
X59210Y-31419D01*
X59472Y-30657D02*
X59472Y-30942D01*
X59472Y-30800D02*
X58922Y-30800D01*
X59001Y-30847D01*
X59053Y-30895D01*
X59079Y-30942D01*
X64616Y-31522D02*
X64450Y-31260D01*
X64330Y-31522D02*
X64330Y-30972D01*
X64521Y-30972D01*
X64569Y-30998D01*
X64592Y-31025D01*
X64616Y-31077D01*
X64616Y-31155D01*
X64592Y-31208D01*
X64569Y-31234D01*
X64521Y-31260D01*
X64330Y-31260D01*
X64807Y-31025D02*
X64830Y-30998D01*
X64878Y-30972D01*
X64997Y-30972D01*
X65045Y-30998D01*
X65069Y-31025D01*
X65092Y-31077D01*
X65092Y-31129D01*
X65069Y-31208D01*
X64783Y-31522D01*
X65092Y-31522D01*
X51122Y-44783D02*
X50860Y-44950D01*
X51122Y-45069D02*
X50572Y-45069D01*
X50572Y-44878D01*
X50598Y-44830D01*
X50625Y-44807D01*
X50677Y-44783D01*
X50755Y-44783D01*
X50808Y-44807D01*
X50834Y-44830D01*
X50860Y-44878D01*
X50860Y-45069D01*
X50755Y-44354D02*
X51122Y-44354D01*
X50546Y-44473D02*
X50939Y-44592D01*
X50939Y-44283D01*
X53122Y-42883D02*
X52860Y-43050D01*
X53122Y-43169D02*
X52572Y-43169D01*
X52572Y-42978D01*
X52598Y-42930D01*
X52625Y-42907D01*
X52677Y-42883D01*
X52755Y-42883D01*
X52808Y-42907D01*
X52834Y-42930D01*
X52860Y-42978D01*
X52860Y-43169D01*
X52572Y-42716D02*
X52572Y-42407D01*
X52782Y-42573D01*
X52782Y-42502D01*
X52808Y-42454D01*
X52834Y-42430D01*
X52886Y-42407D01*
X53017Y-42407D01*
X53070Y-42430D01*
X53096Y-42454D01*
X53122Y-42502D01*
X53122Y-42645D01*
X53096Y-42692D01*
X53070Y-42716D01*
X62695Y-26211D02*
X62695Y-26535D01*
X62714Y-26573D01*
X62733Y-26592D01*
X62771Y-26611D01*
X62847Y-26611D01*
X62885Y-26592D01*
X62904Y-26573D01*
X62923Y-26535D01*
X62923Y-26211D01*
X63285Y-26345D02*
X63285Y-26611D01*
X63190Y-26192D02*
X63095Y-26478D01*
X63342Y-26478D01*
G54D11*
X54057Y-45442D02*
X54057Y-44842D01*
X54200Y-44842D01*
X54285Y-44871D01*
X54342Y-44928D01*
X54371Y-44985D01*
X54400Y-45100D01*
X54400Y-45185D01*
X54371Y-45300D01*
X54342Y-45357D01*
X54285Y-45414D01*
X54200Y-45442D01*
X54057Y-45442D01*
X54628Y-44900D02*
X54657Y-44871D01*
X54714Y-44842D01*
X54857Y-44842D01*
X54914Y-44871D01*
X54942Y-44900D01*
X54971Y-44957D01*
X54971Y-45014D01*
X54942Y-45100D01*
X54600Y-45442D01*
X54971Y-45442D01*
X55807Y-43542D02*
X55807Y-42942D01*
X55950Y-42942D01*
X56035Y-42971D01*
X56092Y-43028D01*
X56121Y-43085D01*
X56150Y-43200D01*
X56150Y-43285D01*
X56121Y-43400D01*
X56092Y-43457D01*
X56035Y-43514D01*
X55950Y-43542D01*
X55807Y-43542D01*
X56721Y-43542D02*
X56378Y-43542D01*
X56550Y-43542D02*
X56550Y-42942D01*
X56492Y-43028D01*
X56435Y-43085D01*
X56378Y-43114D01*
X59242Y-41535D02*
X59842Y-41135D01*
X59242Y-41135D02*
X59842Y-41535D01*
X59842Y-40592D02*
X59842Y-40935D01*
X59842Y-40764D02*
X59242Y-40764D01*
X59328Y-40821D01*
X59385Y-40878D01*
X59414Y-40935D01*
X56300Y-42407D02*
X56271Y-42378D01*
X56242Y-42321D01*
X56242Y-42178D01*
X56271Y-42121D01*
X56300Y-42092D01*
X56357Y-42064D01*
X56414Y-42064D01*
X56500Y-42092D01*
X56842Y-42435D01*
X56842Y-42064D01*
X56242Y-41692D02*
X56242Y-41635D01*
X56271Y-41578D01*
X56300Y-41549D01*
X56357Y-41521D01*
X56471Y-41492D01*
X56614Y-41492D01*
X56728Y-41521D01*
X56785Y-41549D01*
X56814Y-41578D01*
X56842Y-41635D01*
X56842Y-41692D01*
X56814Y-41749D01*
X56785Y-41778D01*
X56728Y-41807D01*
X56614Y-41835D01*
X56471Y-41835D01*
X56357Y-41807D01*
X56300Y-41778D01*
X56271Y-41749D01*
X56242Y-41692D01*
X56842Y-41235D02*
X56242Y-41235D01*
X56671Y-41035D01*
X56242Y-40835D01*
X56842Y-40835D01*
X56842Y-40549D02*
X56242Y-40549D01*
X56528Y-40549D02*
X56528Y-40207D01*
X56842Y-40207D02*
X56242Y-40207D01*
X56442Y-39978D02*
X56442Y-39664D01*
X56842Y-39978D01*
X56842Y-39664D01*
G54D17*
X61642Y-35392D02*
X62128Y-35392D01*
X62185Y-35371D01*
X62214Y-35350D01*
X62242Y-35307D01*
X62242Y-35221D01*
X62214Y-35178D01*
X62185Y-35157D01*
X62128Y-35135D01*
X61642Y-35135D01*
X62242Y-34685D02*
X62242Y-34942D01*
X62242Y-34814D02*
X61642Y-34814D01*
X61728Y-34857D01*
X61785Y-34900D01*
X61814Y-34942D01*
G54D11*
G54D17*
X62242Y-45478D02*
X61642Y-45478D01*
X61642Y-45307D01*
X61671Y-45264D01*
X61700Y-45242D01*
X61757Y-45221D01*
X61842Y-45221D01*
X61900Y-45242D01*
X61928Y-45264D01*
X61957Y-45307D01*
X61957Y-45478D01*
X62242Y-45028D02*
X61642Y-45028D01*
X62185Y-44557D02*
X62214Y-44578D01*
X62242Y-44642D01*
X62242Y-44685D01*
X62214Y-44749D01*
X62157Y-44792D01*
X62100Y-44814D01*
X61985Y-44835D01*
X61900Y-44835D01*
X61785Y-44814D01*
X61728Y-44792D01*
X61671Y-44749D01*
X61642Y-44685D01*
X61642Y-44642D01*
X61671Y-44578D01*
X61700Y-44557D01*
X62242Y-44128D02*
X62242Y-44385D01*
X62242Y-44257D02*
X61642Y-44257D01*
X61728Y-44299D01*
X61785Y-44342D01*
X61814Y-44385D01*
X61900Y-43871D02*
X61871Y-43914D01*
X61842Y-43935D01*
X61785Y-43957D01*
X61757Y-43957D01*
X61700Y-43935D01*
X61671Y-43914D01*
X61642Y-43871D01*
X61642Y-43785D01*
X61671Y-43742D01*
X61700Y-43721D01*
X61757Y-43699D01*
X61785Y-43699D01*
X61842Y-43721D01*
X61871Y-43742D01*
X61900Y-43785D01*
X61900Y-43871D01*
X61928Y-43914D01*
X61957Y-43935D01*
X62014Y-43957D01*
X62128Y-43957D01*
X62185Y-43935D01*
X62214Y-43914D01*
X62242Y-43871D01*
X62242Y-43785D01*
X62214Y-43742D01*
X62185Y-43721D01*
X62128Y-43699D01*
X62014Y-43699D01*
X61957Y-43721D01*
X61928Y-43742D01*
X61900Y-43785D01*
X61928Y-43357D02*
X61928Y-43507D01*
X62242Y-43507D02*
X61642Y-43507D01*
X61642Y-43292D01*
X61700Y-43142D02*
X61671Y-43121D01*
X61642Y-43078D01*
X61642Y-42971D01*
X61671Y-42928D01*
X61700Y-42907D01*
X61757Y-42885D01*
X61814Y-42885D01*
X61900Y-42907D01*
X62242Y-43164D01*
X62242Y-42885D01*
X61642Y-42478D02*
X61642Y-42692D01*
X61928Y-42714D01*
X61900Y-42692D01*
X61871Y-42650D01*
X61871Y-42542D01*
X61900Y-42500D01*
X61928Y-42478D01*
X61985Y-42457D01*
X62128Y-42457D01*
X62185Y-42478D01*
X62214Y-42500D01*
X62242Y-42542D01*
X62242Y-42650D01*
X62214Y-42692D01*
X62185Y-42714D01*
X61642Y-42050D02*
X61642Y-42264D01*
X61928Y-42285D01*
X61900Y-42264D01*
X61871Y-42221D01*
X61871Y-42114D01*
X61900Y-42071D01*
X61928Y-42050D01*
X61985Y-42028D01*
X62128Y-42028D01*
X62185Y-42050D01*
X62214Y-42071D01*
X62242Y-42114D01*
X62242Y-42221D01*
X62214Y-42264D01*
X62185Y-42285D01*
X61642Y-41750D02*
X61642Y-41707D01*
X61671Y-41664D01*
X61700Y-41642D01*
X61757Y-41621D01*
X61871Y-41600D01*
X62014Y-41600D01*
X62128Y-41621D01*
X62185Y-41642D01*
X62214Y-41664D01*
X62242Y-41707D01*
X62242Y-41750D01*
X62214Y-41792D01*
X62185Y-41814D01*
X62128Y-41835D01*
X62014Y-41857D01*
X61871Y-41857D01*
X61757Y-41835D01*
X61700Y-41814D01*
X61671Y-41792D01*
X61642Y-41750D01*
G54D11*
G54D16*
X55073Y-41116D02*
X55092Y-41135D01*
X55111Y-41192D01*
X55111Y-41230D01*
X55092Y-41288D01*
X55054Y-41326D01*
X55016Y-41345D01*
X54940Y-41364D01*
X54883Y-41364D01*
X54807Y-41345D01*
X54769Y-41326D01*
X54730Y-41288D01*
X54711Y-41230D01*
X54711Y-41192D01*
X54730Y-41135D01*
X54750Y-41116D01*
X54845Y-40773D02*
X55111Y-40773D01*
X54692Y-40869D02*
X54978Y-40964D01*
X54978Y-40716D01*
X56323Y-39116D02*
X56342Y-39135D01*
X56361Y-39192D01*
X56361Y-39230D01*
X56342Y-39288D01*
X56304Y-39326D01*
X56266Y-39345D01*
X56190Y-39364D01*
X56133Y-39364D01*
X56057Y-39345D01*
X56019Y-39326D01*
X55980Y-39288D01*
X55961Y-39230D01*
X55961Y-39192D01*
X55980Y-39135D01*
X56000Y-39116D01*
X56361Y-38735D02*
X56361Y-38964D01*
X56361Y-38849D02*
X55961Y-38849D01*
X56019Y-38888D01*
X56057Y-38926D01*
X56076Y-38964D01*
X60623Y-48466D02*
X60642Y-48485D01*
X60661Y-48542D01*
X60661Y-48580D01*
X60642Y-48638D01*
X60604Y-48676D01*
X60566Y-48695D01*
X60490Y-48714D01*
X60433Y-48714D01*
X60357Y-48695D01*
X60319Y-48676D01*
X60280Y-48638D01*
X60261Y-48580D01*
X60261Y-48542D01*
X60280Y-48485D01*
X60300Y-48466D01*
X60261Y-48333D02*
X60261Y-48085D01*
X60414Y-48219D01*
X60414Y-48161D01*
X60433Y-48123D01*
X60452Y-48104D01*
X60490Y-48085D01*
X60585Y-48085D01*
X60623Y-48104D01*
X60642Y-48123D01*
X60661Y-48161D01*
X60661Y-48276D01*
X60642Y-48314D01*
X60623Y-48333D01*
X65523Y-42116D02*
X65542Y-42135D01*
X65561Y-42192D01*
X65561Y-42230D01*
X65542Y-42288D01*
X65504Y-42326D01*
X65466Y-42345D01*
X65390Y-42364D01*
X65333Y-42364D01*
X65257Y-42345D01*
X65219Y-42326D01*
X65180Y-42288D01*
X65161Y-42230D01*
X65161Y-42192D01*
X65180Y-42135D01*
X65200Y-42116D01*
X65200Y-41964D02*
X65180Y-41945D01*
X65161Y-41907D01*
X65161Y-41811D01*
X65180Y-41773D01*
X65200Y-41754D01*
X65238Y-41735D01*
X65276Y-41735D01*
X65333Y-41754D01*
X65561Y-41983D01*
X65561Y-41735D01*
G54D14*
X62200Y-29343D02*
X62185Y-29358D01*
X62142Y-29372D01*
X62114Y-29372D01*
X62071Y-29358D01*
X62042Y-29329D01*
X62028Y-29301D01*
X62014Y-29243D01*
X62014Y-29201D01*
X62028Y-29143D01*
X62042Y-29115D01*
X62071Y-29086D01*
X62114Y-29072D01*
X62142Y-29072D01*
X62185Y-29086D01*
X62200Y-29101D01*
X62471Y-29072D02*
X62328Y-29072D01*
X62314Y-29215D01*
X62328Y-29201D01*
X62357Y-29186D01*
X62428Y-29186D01*
X62457Y-29201D01*
X62471Y-29215D01*
X62485Y-29243D01*
X62485Y-29315D01*
X62471Y-29343D01*
X62457Y-29358D01*
X62428Y-29372D01*
X62357Y-29372D01*
X62328Y-29358D01*
X62314Y-29343D01*
X62089Y-30371D02*
X61946Y-30371D01*
X62017Y-30371D02*
X62017Y-30071D01*
X61994Y-30114D01*
X61970Y-30142D01*
X61946Y-30157D01*
X62244Y-30071D02*
X62267Y-30071D01*
X62291Y-30085D01*
X62303Y-30100D01*
X62315Y-30128D01*
X62327Y-30185D01*
X62327Y-30257D01*
X62315Y-30314D01*
X62303Y-30342D01*
X62291Y-30357D01*
X62267Y-30371D01*
X62244Y-30371D01*
X62220Y-30357D01*
X62208Y-30342D01*
X62196Y-30314D01*
X62184Y-30257D01*
X62184Y-30185D01*
X62196Y-30128D01*
X62208Y-30100D01*
X62220Y-30085D01*
X62244Y-30071D01*
X62541Y-30171D02*
X62541Y-30371D01*
X62434Y-30171D02*
X62434Y-30328D01*
X62446Y-30357D01*
X62470Y-30371D01*
X62505Y-30371D01*
X62529Y-30357D01*
X62541Y-30342D01*
G54D18*
X61235Y-29757D02*
X61464Y-29757D01*
X61350Y-29871D02*
X61350Y-29642D01*
G54D16*
X51592Y-29354D02*
X52078Y-29354D01*
X52135Y-29335D01*
X52164Y-29316D01*
X52192Y-29278D01*
X52192Y-29202D01*
X52164Y-29164D01*
X52135Y-29145D01*
X52078Y-29126D01*
X51592Y-29126D01*
X51650Y-28954D02*
X51621Y-28935D01*
X51592Y-28897D01*
X51592Y-28802D01*
X51621Y-28764D01*
X51650Y-28745D01*
X51707Y-28726D01*
X51764Y-28726D01*
X51850Y-28745D01*
X52192Y-28973D01*
X52192Y-28726D01*
X51973Y-26792D02*
X51783Y-26792D01*
X51783Y-26192D01*
X52107Y-26792D02*
X52107Y-26192D01*
X52240Y-26621D01*
X52373Y-26192D01*
X52373Y-26792D01*
X52773Y-26792D02*
X52545Y-26792D01*
X52659Y-26792D02*
X52659Y-26192D01*
X52621Y-26278D01*
X52583Y-26335D01*
X52545Y-26364D01*
X53154Y-26792D02*
X52926Y-26792D01*
X53040Y-26792D02*
X53040Y-26192D01*
X53002Y-26278D01*
X52964Y-26335D01*
X52926Y-26364D01*
X53535Y-26792D02*
X53307Y-26792D01*
X53421Y-26792D02*
X53421Y-26192D01*
X53383Y-26278D01*
X53345Y-26335D01*
X53307Y-26364D01*
X53669Y-26192D02*
X53935Y-26192D01*
X53764Y-26792D01*
X54088Y-26564D02*
X54392Y-26564D01*
X54526Y-26192D02*
X54754Y-26192D01*
X54640Y-26792D02*
X54640Y-26192D01*
X54964Y-26192D02*
X55040Y-26192D01*
X55078Y-26221D01*
X55116Y-26278D01*
X55135Y-26392D01*
X55135Y-26592D01*
X55116Y-26707D01*
X55078Y-26764D01*
X55040Y-26792D01*
X54964Y-26792D01*
X54926Y-26764D01*
X54888Y-26707D01*
X54869Y-26592D01*
X54869Y-26392D01*
X54888Y-26278D01*
X54926Y-26221D01*
X54964Y-26192D01*
M02*
