G04 (created by PCBNEW (2013-07-07 BZR 4022)-stable) date 20/11/2014 9:19:33*
%MOIN*%
G04 Gerber Fmt 3.4, Leading zero omitted, Abs format*
%FSLAX34Y34*%
G01*
G70*
G90*
G04 APERTURE LIST*
%ADD10C,0.00590551*%
%ADD11R,0.055X0.055*%
%ADD12C,0.055*%
%ADD13R,0.0511811X0.0511811*%
%ADD14C,0.0511811*%
%ADD15C,0.06*%
%ADD16R,0.06X0.06*%
%ADD17C,0.056*%
%ADD18C,0.07*%
%ADD19R,0.07X0.07*%
%ADD20C,0.05*%
%ADD21C,0.03*%
%ADD22C,0.01*%
G04 APERTURE END LIST*
G54D10*
G54D11*
X70750Y-35250D03*
G54D12*
X70750Y-36250D03*
X70750Y-37250D03*
X70750Y-38250D03*
X70750Y-39250D03*
X70750Y-40250D03*
G54D13*
X77146Y-43638D03*
G54D14*
X77146Y-52300D03*
X76359Y-43638D03*
X76359Y-52300D03*
X75572Y-43638D03*
X75572Y-52300D03*
X74784Y-43638D03*
X74784Y-52300D03*
X73997Y-43638D03*
X73997Y-52300D03*
X73209Y-43638D03*
X73209Y-52300D03*
X72422Y-43638D03*
X72422Y-52300D03*
X71635Y-43638D03*
X71635Y-52300D03*
X70847Y-43638D03*
X70847Y-52300D03*
X70060Y-43638D03*
X70060Y-52300D03*
G54D15*
X59250Y-29050D03*
X59250Y-33050D03*
X66700Y-31300D03*
X62700Y-31300D03*
X50900Y-46700D03*
X50900Y-42700D03*
X52900Y-44800D03*
X52900Y-40800D03*
G54D16*
X60500Y-27300D03*
G54D15*
X61500Y-27300D03*
X62500Y-27300D03*
X63500Y-27300D03*
X64500Y-27300D03*
X65500Y-27300D03*
G54D11*
X54000Y-46700D03*
G54D12*
X55000Y-46700D03*
G54D11*
X55750Y-44800D03*
G54D12*
X56750Y-44800D03*
G54D17*
X58100Y-40050D03*
X58100Y-42050D03*
G54D12*
X60500Y-34050D03*
X60500Y-35050D03*
X60500Y-36050D03*
X60500Y-37050D03*
X60500Y-38050D03*
X60500Y-39050D03*
X60500Y-40050D03*
X60500Y-41050D03*
X60500Y-42050D03*
X60500Y-43050D03*
X60500Y-44050D03*
X60500Y-45050D03*
X60500Y-46050D03*
G54D11*
X60500Y-33050D03*
G54D12*
X63500Y-46050D03*
X63500Y-45050D03*
X63500Y-44050D03*
X63500Y-43050D03*
X63500Y-42050D03*
X63500Y-41050D03*
X63500Y-40050D03*
X63500Y-39050D03*
X63500Y-38050D03*
X63500Y-37050D03*
X63500Y-36050D03*
X63500Y-35050D03*
X63500Y-34050D03*
X63500Y-33050D03*
X54950Y-42050D03*
X54950Y-40050D03*
X56200Y-40050D03*
X56200Y-38050D03*
X60500Y-49400D03*
X60500Y-47400D03*
X65400Y-41050D03*
X65400Y-43050D03*
G54D11*
X61750Y-29750D03*
G54D12*
X62750Y-29750D03*
G54D18*
X53200Y-28050D03*
X53200Y-29050D03*
G54D19*
X53200Y-30050D03*
G54D20*
X77146Y-43638D02*
X77146Y-41003D01*
X74393Y-38250D02*
X70750Y-38250D01*
X77146Y-41003D02*
X74393Y-38250D01*
X65400Y-41050D02*
X67950Y-41050D01*
X67950Y-41050D02*
X70750Y-38250D01*
X63500Y-41050D02*
X65400Y-41050D01*
X63500Y-41050D02*
X62200Y-41050D01*
X62200Y-41050D02*
X61900Y-40750D01*
X61900Y-40750D02*
X61900Y-32100D01*
X61900Y-32100D02*
X62700Y-31300D01*
X52900Y-40800D02*
X52900Y-35850D01*
X52900Y-35850D02*
X56450Y-32300D01*
X56450Y-32300D02*
X56450Y-29050D01*
X53200Y-29050D02*
X56450Y-29050D01*
X56450Y-29050D02*
X59250Y-29050D01*
X62700Y-31300D02*
X62700Y-29800D01*
X62700Y-29800D02*
X62750Y-29750D01*
X62750Y-29750D02*
X62750Y-28550D01*
X62750Y-28550D02*
X61500Y-27300D01*
X61500Y-27300D02*
X61500Y-26800D01*
X59750Y-26500D02*
X59250Y-27000D01*
X59250Y-27000D02*
X59250Y-29050D01*
X61200Y-26500D02*
X59750Y-26500D01*
X61500Y-26800D02*
X61200Y-26500D01*
X50900Y-42700D02*
X50900Y-41750D01*
X50900Y-41750D02*
X51850Y-40800D01*
X51850Y-40800D02*
X52900Y-40800D01*
X60500Y-27300D02*
X60500Y-33050D01*
G54D21*
X60500Y-33050D02*
X59250Y-33050D01*
G54D20*
X63500Y-34050D02*
X63850Y-34050D01*
X63850Y-34050D02*
X65350Y-32550D01*
X65350Y-32550D02*
X65350Y-29250D01*
X65350Y-29250D02*
X64500Y-28400D01*
X64500Y-28400D02*
X64500Y-27300D01*
X63500Y-27300D02*
X63500Y-28700D01*
X63500Y-28700D02*
X64400Y-29600D01*
X64400Y-29600D02*
X64400Y-32150D01*
X64400Y-32150D02*
X63500Y-33050D01*
X76359Y-43638D02*
X76359Y-42559D01*
X64550Y-44100D02*
X63500Y-43050D01*
X66800Y-44100D02*
X64550Y-44100D01*
X68900Y-42000D02*
X66800Y-44100D01*
X75800Y-42000D02*
X68900Y-42000D01*
X76359Y-42559D02*
X75800Y-42000D01*
X70750Y-35250D02*
X69650Y-35250D01*
X65850Y-39050D02*
X63500Y-39050D01*
X69650Y-35250D02*
X65850Y-39050D01*
X70750Y-36250D02*
X69800Y-36250D01*
X63550Y-40000D02*
X63500Y-40050D01*
X66050Y-40000D02*
X63550Y-40000D01*
X69800Y-36250D02*
X66050Y-40000D01*
X75572Y-43638D02*
X75572Y-45527D01*
X63540Y-44009D02*
X63500Y-44050D01*
X65430Y-45900D02*
X63540Y-44009D01*
X75200Y-45900D02*
X65430Y-45900D01*
X75572Y-45527D02*
X75200Y-45900D01*
X60500Y-47400D02*
X60500Y-46050D01*
X56200Y-40050D02*
X58100Y-40050D01*
X58100Y-40050D02*
X59100Y-41050D01*
X59100Y-41050D02*
X60500Y-41050D01*
X60500Y-42050D02*
X58100Y-42050D01*
X54950Y-42050D02*
X58100Y-42050D01*
X66700Y-31300D02*
X66700Y-33550D01*
X66700Y-33550D02*
X65200Y-35050D01*
X65200Y-35050D02*
X63500Y-35050D01*
X58750Y-44800D02*
X60500Y-43050D01*
X56750Y-44800D02*
X58750Y-44800D01*
X57850Y-46700D02*
X60500Y-44050D01*
X55000Y-46700D02*
X57850Y-46700D01*
X52900Y-44800D02*
X55750Y-44800D01*
X50900Y-46700D02*
X54000Y-46700D01*
G54D10*
G36*
X75859Y-43210D02*
X75858Y-43210D01*
X75673Y-43133D01*
X75471Y-43132D01*
X75285Y-43209D01*
X75178Y-43317D01*
X75071Y-43210D01*
X74885Y-43133D01*
X74684Y-43132D01*
X74498Y-43209D01*
X74390Y-43317D01*
X74284Y-43210D01*
X74098Y-43133D01*
X73897Y-43132D01*
X73711Y-43209D01*
X73603Y-43317D01*
X73496Y-43210D01*
X73310Y-43133D01*
X73109Y-43132D01*
X72923Y-43209D01*
X72816Y-43317D01*
X72709Y-43210D01*
X72523Y-43133D01*
X72322Y-43132D01*
X72136Y-43209D01*
X72028Y-43317D01*
X71921Y-43210D01*
X71736Y-43133D01*
X71534Y-43132D01*
X71348Y-43209D01*
X71241Y-43317D01*
X71134Y-43210D01*
X70948Y-43133D01*
X70747Y-43132D01*
X70561Y-43209D01*
X70419Y-43352D01*
X70417Y-43356D01*
X70414Y-43355D01*
X70343Y-43426D01*
X70343Y-43285D01*
X70321Y-43194D01*
X70131Y-43128D01*
X69930Y-43139D01*
X69798Y-43194D01*
X69777Y-43285D01*
X70060Y-43568D01*
X70343Y-43285D01*
X70343Y-43426D01*
X70130Y-43638D01*
X70414Y-43922D01*
X70416Y-43921D01*
X70418Y-43925D01*
X70560Y-44067D01*
X70746Y-44144D01*
X70947Y-44144D01*
X71133Y-44068D01*
X71241Y-43960D01*
X71348Y-44067D01*
X71533Y-44144D01*
X71735Y-44144D01*
X71921Y-44068D01*
X72028Y-43960D01*
X72135Y-44067D01*
X72321Y-44144D01*
X72522Y-44144D01*
X72708Y-44068D01*
X72816Y-43960D01*
X72922Y-44067D01*
X73108Y-44144D01*
X73310Y-44144D01*
X73496Y-44068D01*
X73603Y-43960D01*
X73710Y-44067D01*
X73896Y-44144D01*
X74097Y-44144D01*
X74283Y-44068D01*
X74391Y-43960D01*
X74497Y-44067D01*
X74683Y-44144D01*
X74884Y-44144D01*
X75070Y-44068D01*
X75072Y-44066D01*
X75072Y-45320D01*
X74992Y-45400D01*
X70343Y-45400D01*
X70343Y-43992D01*
X70060Y-43709D01*
X69989Y-43780D01*
X69989Y-43638D01*
X69706Y-43355D01*
X69615Y-43377D01*
X69549Y-43567D01*
X69560Y-43768D01*
X69615Y-43900D01*
X69706Y-43922D01*
X69989Y-43638D01*
X69989Y-43780D01*
X69777Y-43992D01*
X69798Y-44083D01*
X69989Y-44149D01*
X70189Y-44138D01*
X70321Y-44083D01*
X70343Y-43992D01*
X70343Y-45400D01*
X65637Y-45400D01*
X64837Y-44600D01*
X66799Y-44600D01*
X66800Y-44600D01*
X66800Y-44600D01*
X66991Y-44561D01*
X67153Y-44453D01*
X69107Y-42500D01*
X75592Y-42500D01*
X75859Y-42766D01*
X75859Y-43210D01*
X75859Y-43210D01*
G37*
G54D22*
X75859Y-43210D02*
X75858Y-43210D01*
X75673Y-43133D01*
X75471Y-43132D01*
X75285Y-43209D01*
X75178Y-43317D01*
X75071Y-43210D01*
X74885Y-43133D01*
X74684Y-43132D01*
X74498Y-43209D01*
X74390Y-43317D01*
X74284Y-43210D01*
X74098Y-43133D01*
X73897Y-43132D01*
X73711Y-43209D01*
X73603Y-43317D01*
X73496Y-43210D01*
X73310Y-43133D01*
X73109Y-43132D01*
X72923Y-43209D01*
X72816Y-43317D01*
X72709Y-43210D01*
X72523Y-43133D01*
X72322Y-43132D01*
X72136Y-43209D01*
X72028Y-43317D01*
X71921Y-43210D01*
X71736Y-43133D01*
X71534Y-43132D01*
X71348Y-43209D01*
X71241Y-43317D01*
X71134Y-43210D01*
X70948Y-43133D01*
X70747Y-43132D01*
X70561Y-43209D01*
X70419Y-43352D01*
X70417Y-43356D01*
X70414Y-43355D01*
X70343Y-43426D01*
X70343Y-43285D01*
X70321Y-43194D01*
X70131Y-43128D01*
X69930Y-43139D01*
X69798Y-43194D01*
X69777Y-43285D01*
X70060Y-43568D01*
X70343Y-43285D01*
X70343Y-43426D01*
X70130Y-43638D01*
X70414Y-43922D01*
X70416Y-43921D01*
X70418Y-43925D01*
X70560Y-44067D01*
X70746Y-44144D01*
X70947Y-44144D01*
X71133Y-44068D01*
X71241Y-43960D01*
X71348Y-44067D01*
X71533Y-44144D01*
X71735Y-44144D01*
X71921Y-44068D01*
X72028Y-43960D01*
X72135Y-44067D01*
X72321Y-44144D01*
X72522Y-44144D01*
X72708Y-44068D01*
X72816Y-43960D01*
X72922Y-44067D01*
X73108Y-44144D01*
X73310Y-44144D01*
X73496Y-44068D01*
X73603Y-43960D01*
X73710Y-44067D01*
X73896Y-44144D01*
X74097Y-44144D01*
X74283Y-44068D01*
X74391Y-43960D01*
X74497Y-44067D01*
X74683Y-44144D01*
X74884Y-44144D01*
X75070Y-44068D01*
X75072Y-44066D01*
X75072Y-45320D01*
X74992Y-45400D01*
X70343Y-45400D01*
X70343Y-43992D01*
X70060Y-43709D01*
X69989Y-43780D01*
X69989Y-43638D01*
X69706Y-43355D01*
X69615Y-43377D01*
X69549Y-43567D01*
X69560Y-43768D01*
X69615Y-43900D01*
X69706Y-43922D01*
X69989Y-43638D01*
X69989Y-43780D01*
X69777Y-43992D01*
X69798Y-44083D01*
X69989Y-44149D01*
X70189Y-44138D01*
X70321Y-44083D01*
X70343Y-43992D01*
X70343Y-45400D01*
X65637Y-45400D01*
X64837Y-44600D01*
X66799Y-44600D01*
X66800Y-44600D01*
X66800Y-44600D01*
X66991Y-44561D01*
X67153Y-44453D01*
X69107Y-42500D01*
X75592Y-42500D01*
X75859Y-42766D01*
X75859Y-43210D01*
G54D10*
G36*
X78230Y-53080D02*
X77652Y-53080D01*
X77652Y-52200D01*
X77652Y-52200D01*
X77652Y-43845D01*
X77652Y-43333D01*
X77646Y-43319D01*
X77646Y-41003D01*
X77608Y-40811D01*
X77500Y-40649D01*
X77500Y-40649D01*
X74747Y-37896D01*
X74585Y-37788D01*
X74393Y-37749D01*
X74393Y-37750D01*
X71279Y-37750D01*
X71279Y-37325D01*
X71268Y-37117D01*
X71210Y-36977D01*
X71117Y-36952D01*
X70820Y-37250D01*
X71117Y-37547D01*
X71210Y-37522D01*
X71279Y-37325D01*
X71279Y-37750D01*
X70927Y-37750D01*
X71022Y-37710D01*
X71047Y-37617D01*
X70750Y-37320D01*
X70679Y-37391D01*
X70679Y-37250D01*
X70382Y-36952D01*
X70289Y-36977D01*
X70220Y-37174D01*
X70231Y-37382D01*
X70289Y-37522D01*
X70382Y-37547D01*
X70679Y-37250D01*
X70679Y-37391D01*
X70452Y-37617D01*
X70477Y-37710D01*
X70587Y-37749D01*
X70453Y-37804D01*
X70305Y-37952D01*
X70279Y-38012D01*
X67742Y-40550D01*
X65564Y-40550D01*
X65504Y-40525D01*
X65296Y-40524D01*
X65235Y-40550D01*
X63664Y-40550D01*
X63664Y-40549D01*
X63785Y-40500D01*
X66049Y-40500D01*
X66050Y-40500D01*
X66050Y-40500D01*
X66241Y-40461D01*
X66403Y-40353D01*
X70007Y-36750D01*
X70572Y-36750D01*
X70477Y-36789D01*
X70452Y-36882D01*
X70750Y-37179D01*
X71047Y-36882D01*
X71022Y-36789D01*
X70912Y-36750D01*
X71047Y-36695D01*
X71194Y-36547D01*
X71274Y-36354D01*
X71275Y-36146D01*
X71195Y-35953D01*
X71047Y-35805D01*
X70975Y-35775D01*
X71074Y-35775D01*
X71166Y-35737D01*
X71236Y-35666D01*
X71274Y-35574D01*
X71275Y-35475D01*
X71275Y-34925D01*
X71237Y-34833D01*
X71166Y-34763D01*
X71074Y-34725D01*
X70975Y-34724D01*
X70425Y-34724D01*
X70364Y-34750D01*
X69650Y-34750D01*
X69458Y-34788D01*
X69296Y-34896D01*
X69296Y-34896D01*
X65642Y-38550D01*
X63664Y-38550D01*
X63664Y-38549D01*
X63797Y-38495D01*
X63944Y-38347D01*
X64024Y-38154D01*
X64025Y-37946D01*
X63945Y-37753D01*
X63797Y-37605D01*
X63664Y-37549D01*
X63797Y-37495D01*
X63944Y-37347D01*
X64024Y-37154D01*
X64025Y-36946D01*
X63945Y-36753D01*
X63797Y-36605D01*
X63664Y-36549D01*
X63797Y-36495D01*
X63944Y-36347D01*
X64024Y-36154D01*
X64025Y-35946D01*
X63945Y-35753D01*
X63797Y-35605D01*
X63664Y-35550D01*
X65199Y-35550D01*
X65200Y-35550D01*
X65200Y-35550D01*
X65391Y-35511D01*
X65553Y-35403D01*
X67053Y-33903D01*
X67053Y-33903D01*
X67053Y-33903D01*
X67161Y-33741D01*
X67200Y-33550D01*
X67200Y-31530D01*
X67249Y-31409D01*
X67250Y-31191D01*
X67166Y-30988D01*
X67011Y-30834D01*
X66809Y-30750D01*
X66591Y-30749D01*
X66388Y-30833D01*
X66234Y-30988D01*
X66150Y-31190D01*
X66149Y-31408D01*
X66200Y-31530D01*
X66200Y-33342D01*
X64992Y-34550D01*
X63850Y-34550D01*
X64041Y-34511D01*
X64203Y-34403D01*
X65703Y-32903D01*
X65703Y-32903D01*
X65703Y-32903D01*
X65811Y-32741D01*
X65850Y-32550D01*
X65850Y-29250D01*
X65811Y-29058D01*
X65703Y-28896D01*
X65000Y-28192D01*
X65000Y-27530D01*
X65033Y-27611D01*
X65188Y-27765D01*
X65390Y-27849D01*
X65608Y-27850D01*
X65811Y-27766D01*
X65965Y-27611D01*
X66049Y-27409D01*
X66050Y-27191D01*
X65966Y-26988D01*
X65811Y-26834D01*
X65609Y-26750D01*
X65391Y-26749D01*
X65188Y-26833D01*
X65034Y-26988D01*
X65000Y-27069D01*
X64966Y-26988D01*
X64811Y-26834D01*
X64609Y-26750D01*
X64391Y-26749D01*
X64188Y-26833D01*
X64034Y-26988D01*
X64000Y-27069D01*
X63966Y-26988D01*
X63811Y-26834D01*
X63609Y-26750D01*
X63391Y-26749D01*
X63188Y-26833D01*
X63034Y-26988D01*
X63002Y-27063D01*
X62981Y-27012D01*
X62885Y-26984D01*
X62815Y-27055D01*
X62815Y-26914D01*
X62787Y-26818D01*
X62581Y-26745D01*
X62363Y-26756D01*
X62212Y-26818D01*
X62184Y-26914D01*
X62500Y-27229D01*
X62815Y-26914D01*
X62815Y-27055D01*
X62570Y-27300D01*
X62885Y-27615D01*
X62981Y-27587D01*
X63000Y-27535D01*
X63000Y-28092D01*
X62717Y-27810D01*
X62787Y-27781D01*
X62815Y-27685D01*
X62500Y-27370D01*
X62494Y-27376D01*
X62423Y-27305D01*
X62429Y-27300D01*
X62114Y-26984D01*
X62018Y-27012D01*
X62000Y-27064D01*
X62000Y-26800D01*
X61999Y-26799D01*
X62000Y-26799D01*
X61961Y-26608D01*
X61853Y-26446D01*
X61853Y-26446D01*
X61553Y-26146D01*
X61391Y-26038D01*
X61200Y-25999D01*
X61199Y-26000D01*
X59750Y-26000D01*
X59558Y-26038D01*
X59396Y-26146D01*
X59396Y-26146D01*
X58896Y-26646D01*
X58788Y-26808D01*
X58749Y-27000D01*
X58750Y-27000D01*
X58750Y-28550D01*
X56450Y-28550D01*
X53804Y-28550D01*
X53804Y-28143D01*
X53794Y-27905D01*
X53722Y-27732D01*
X53622Y-27698D01*
X53551Y-27769D01*
X53551Y-27627D01*
X53517Y-27527D01*
X53293Y-27445D01*
X53055Y-27455D01*
X52882Y-27527D01*
X52848Y-27627D01*
X53200Y-27979D01*
X53551Y-27627D01*
X53551Y-27769D01*
X53270Y-28050D01*
X53622Y-28401D01*
X53722Y-28367D01*
X53804Y-28143D01*
X53804Y-28550D01*
X53548Y-28550D01*
X53540Y-28541D01*
X53529Y-28537D01*
X53551Y-28472D01*
X53200Y-28120D01*
X53129Y-28191D01*
X53129Y-28050D01*
X52777Y-27698D01*
X52677Y-27732D01*
X52595Y-27956D01*
X52605Y-28194D01*
X52677Y-28367D01*
X52777Y-28401D01*
X53129Y-28050D01*
X53129Y-28191D01*
X52848Y-28472D01*
X52870Y-28537D01*
X52860Y-28541D01*
X52691Y-28709D01*
X52600Y-28930D01*
X52599Y-29168D01*
X52691Y-29389D01*
X52765Y-29464D01*
X52708Y-29487D01*
X52638Y-29558D01*
X52600Y-29650D01*
X52599Y-29749D01*
X52599Y-30449D01*
X52637Y-30541D01*
X52708Y-30611D01*
X52800Y-30649D01*
X52899Y-30650D01*
X53599Y-30650D01*
X53691Y-30612D01*
X53761Y-30541D01*
X53799Y-30449D01*
X53800Y-30350D01*
X53800Y-29650D01*
X53762Y-29558D01*
X53753Y-29550D01*
X55950Y-29550D01*
X55950Y-32092D01*
X52546Y-35496D01*
X52438Y-35658D01*
X52399Y-35850D01*
X52400Y-35850D01*
X52400Y-40300D01*
X51850Y-40300D01*
X51658Y-40338D01*
X51496Y-40446D01*
X51496Y-40446D01*
X50546Y-41396D01*
X50438Y-41558D01*
X50399Y-41750D01*
X50400Y-41750D01*
X50400Y-42469D01*
X50350Y-42590D01*
X50349Y-42808D01*
X50433Y-43011D01*
X50588Y-43165D01*
X50790Y-43249D01*
X51008Y-43250D01*
X51211Y-43166D01*
X51365Y-43011D01*
X51449Y-42809D01*
X51450Y-42591D01*
X51400Y-42469D01*
X51400Y-41957D01*
X52057Y-41300D01*
X52669Y-41300D01*
X52790Y-41349D01*
X53008Y-41350D01*
X53211Y-41266D01*
X53365Y-41111D01*
X53449Y-40909D01*
X53450Y-40691D01*
X53400Y-40569D01*
X53400Y-36057D01*
X56803Y-32653D01*
X56803Y-32653D01*
X56803Y-32653D01*
X56911Y-32491D01*
X56950Y-32300D01*
X56950Y-29550D01*
X59019Y-29550D01*
X59140Y-29599D01*
X59358Y-29600D01*
X59561Y-29516D01*
X59715Y-29361D01*
X59799Y-29159D01*
X59800Y-28941D01*
X59750Y-28819D01*
X59750Y-27207D01*
X59949Y-27007D01*
X59949Y-27049D01*
X59949Y-27649D01*
X59987Y-27741D01*
X60000Y-27753D01*
X60000Y-32650D01*
X59627Y-32650D01*
X59561Y-32584D01*
X59359Y-32500D01*
X59141Y-32499D01*
X58938Y-32583D01*
X58784Y-32738D01*
X58700Y-32940D01*
X58699Y-33158D01*
X58783Y-33361D01*
X58938Y-33515D01*
X59140Y-33599D01*
X59358Y-33600D01*
X59561Y-33516D01*
X59627Y-33450D01*
X60006Y-33450D01*
X60012Y-33466D01*
X60083Y-33536D01*
X60175Y-33574D01*
X60274Y-33575D01*
X60274Y-33575D01*
X60203Y-33604D01*
X60055Y-33752D01*
X59975Y-33945D01*
X59974Y-34153D01*
X60054Y-34347D01*
X60202Y-34494D01*
X60335Y-34550D01*
X60203Y-34604D01*
X60055Y-34752D01*
X59975Y-34945D01*
X59974Y-35153D01*
X60054Y-35347D01*
X60202Y-35494D01*
X60335Y-35550D01*
X60203Y-35604D01*
X60055Y-35752D01*
X59975Y-35945D01*
X59974Y-36153D01*
X60054Y-36347D01*
X60202Y-36494D01*
X60335Y-36550D01*
X60203Y-36604D01*
X60055Y-36752D01*
X59975Y-36945D01*
X59974Y-37153D01*
X60054Y-37347D01*
X60202Y-37494D01*
X60335Y-37550D01*
X60203Y-37604D01*
X60055Y-37752D01*
X59975Y-37945D01*
X59974Y-38153D01*
X60054Y-38347D01*
X60202Y-38494D01*
X60335Y-38550D01*
X60203Y-38604D01*
X60055Y-38752D01*
X59975Y-38945D01*
X59974Y-39153D01*
X60054Y-39347D01*
X60202Y-39494D01*
X60328Y-39547D01*
X60227Y-39589D01*
X60202Y-39682D01*
X60500Y-39979D01*
X60797Y-39682D01*
X60772Y-39589D01*
X60662Y-39550D01*
X60797Y-39495D01*
X60944Y-39347D01*
X61024Y-39154D01*
X61025Y-38946D01*
X60945Y-38753D01*
X60797Y-38605D01*
X60664Y-38549D01*
X60797Y-38495D01*
X60944Y-38347D01*
X61024Y-38154D01*
X61025Y-37946D01*
X60945Y-37753D01*
X60797Y-37605D01*
X60664Y-37549D01*
X60797Y-37495D01*
X60944Y-37347D01*
X61024Y-37154D01*
X61025Y-36946D01*
X60945Y-36753D01*
X60797Y-36605D01*
X60664Y-36549D01*
X60797Y-36495D01*
X60944Y-36347D01*
X61024Y-36154D01*
X61025Y-35946D01*
X60945Y-35753D01*
X60797Y-35605D01*
X60664Y-35549D01*
X60797Y-35495D01*
X60944Y-35347D01*
X61024Y-35154D01*
X61025Y-34946D01*
X60945Y-34753D01*
X60797Y-34605D01*
X60664Y-34549D01*
X60797Y-34495D01*
X60944Y-34347D01*
X61024Y-34154D01*
X61025Y-33946D01*
X60945Y-33753D01*
X60797Y-33605D01*
X60725Y-33575D01*
X60824Y-33575D01*
X60916Y-33537D01*
X60986Y-33466D01*
X61024Y-33374D01*
X61025Y-33275D01*
X61025Y-32725D01*
X61000Y-32664D01*
X61000Y-27753D01*
X61011Y-27741D01*
X61049Y-27649D01*
X61049Y-27627D01*
X61188Y-27765D01*
X61309Y-27816D01*
X62250Y-28757D01*
X62250Y-29364D01*
X62236Y-29333D01*
X62166Y-29262D01*
X62074Y-29224D01*
X61862Y-29225D01*
X61800Y-29287D01*
X61800Y-29700D01*
X61807Y-29700D01*
X61807Y-29800D01*
X61800Y-29800D01*
X61800Y-30212D01*
X61862Y-30275D01*
X62074Y-30275D01*
X62166Y-30237D01*
X62200Y-30203D01*
X62200Y-31069D01*
X62183Y-31109D01*
X61700Y-31592D01*
X61700Y-30212D01*
X61700Y-29800D01*
X61700Y-29700D01*
X61700Y-29287D01*
X61637Y-29225D01*
X61425Y-29224D01*
X61333Y-29262D01*
X61263Y-29333D01*
X61225Y-29425D01*
X61224Y-29524D01*
X61225Y-29637D01*
X61287Y-29700D01*
X61700Y-29700D01*
X61700Y-29800D01*
X61287Y-29800D01*
X61225Y-29862D01*
X61224Y-29975D01*
X61225Y-30074D01*
X61263Y-30166D01*
X61333Y-30237D01*
X61425Y-30275D01*
X61637Y-30275D01*
X61700Y-30212D01*
X61700Y-31592D01*
X61546Y-31746D01*
X61438Y-31908D01*
X61399Y-32100D01*
X61400Y-32100D01*
X61400Y-40749D01*
X61399Y-40750D01*
X61438Y-40941D01*
X61546Y-41103D01*
X61846Y-41403D01*
X61846Y-41403D01*
X62008Y-41511D01*
X62199Y-41550D01*
X62199Y-41549D01*
X62200Y-41550D01*
X63322Y-41550D01*
X63227Y-41589D01*
X63202Y-41682D01*
X63500Y-41979D01*
X63797Y-41682D01*
X63772Y-41589D01*
X63662Y-41550D01*
X63664Y-41550D01*
X65235Y-41550D01*
X65295Y-41574D01*
X65503Y-41575D01*
X65564Y-41550D01*
X67949Y-41550D01*
X67950Y-41550D01*
X67950Y-41550D01*
X68141Y-41511D01*
X68303Y-41403D01*
X70262Y-39444D01*
X70304Y-39547D01*
X70452Y-39694D01*
X70585Y-39750D01*
X70453Y-39804D01*
X70305Y-39952D01*
X70225Y-40145D01*
X70224Y-40353D01*
X70304Y-40547D01*
X70452Y-40694D01*
X70645Y-40774D01*
X70853Y-40775D01*
X71047Y-40695D01*
X71194Y-40547D01*
X71274Y-40354D01*
X71275Y-40146D01*
X71195Y-39953D01*
X71047Y-39805D01*
X70914Y-39749D01*
X71047Y-39695D01*
X71194Y-39547D01*
X71274Y-39354D01*
X71275Y-39146D01*
X71195Y-38953D01*
X71047Y-38805D01*
X70944Y-38762D01*
X70957Y-38750D01*
X74186Y-38750D01*
X76646Y-41210D01*
X76646Y-42139D01*
X76153Y-41646D01*
X75991Y-41538D01*
X75800Y-41499D01*
X75799Y-41500D01*
X68900Y-41500D01*
X68708Y-41538D01*
X68546Y-41646D01*
X66592Y-43600D01*
X65929Y-43600D01*
X65929Y-43125D01*
X65918Y-42917D01*
X65860Y-42777D01*
X65767Y-42752D01*
X65697Y-42823D01*
X65697Y-42682D01*
X65672Y-42589D01*
X65475Y-42520D01*
X65267Y-42531D01*
X65127Y-42589D01*
X65102Y-42682D01*
X65400Y-42979D01*
X65697Y-42682D01*
X65697Y-42823D01*
X65470Y-43050D01*
X65767Y-43347D01*
X65860Y-43322D01*
X65929Y-43125D01*
X65929Y-43600D01*
X65697Y-43600D01*
X65697Y-43417D01*
X65400Y-43120D01*
X65329Y-43191D01*
X65329Y-43050D01*
X65032Y-42752D01*
X64939Y-42777D01*
X64870Y-42974D01*
X64881Y-43182D01*
X64939Y-43322D01*
X65032Y-43347D01*
X65329Y-43050D01*
X65329Y-43191D01*
X65102Y-43417D01*
X65127Y-43510D01*
X65324Y-43579D01*
X65532Y-43568D01*
X65672Y-43510D01*
X65697Y-43417D01*
X65697Y-43600D01*
X64757Y-43600D01*
X64029Y-42872D01*
X64029Y-42125D01*
X64018Y-41917D01*
X63960Y-41777D01*
X63867Y-41752D01*
X63570Y-42050D01*
X63867Y-42347D01*
X63960Y-42322D01*
X64029Y-42125D01*
X64029Y-42872D01*
X63970Y-42813D01*
X63945Y-42753D01*
X63797Y-42605D01*
X63671Y-42552D01*
X63772Y-42510D01*
X63797Y-42417D01*
X63500Y-42120D01*
X63429Y-42191D01*
X63429Y-42050D01*
X63132Y-41752D01*
X63039Y-41777D01*
X62970Y-41974D01*
X62981Y-42182D01*
X63039Y-42322D01*
X63132Y-42347D01*
X63429Y-42050D01*
X63429Y-42191D01*
X63202Y-42417D01*
X63227Y-42510D01*
X63337Y-42549D01*
X63203Y-42604D01*
X63055Y-42752D01*
X62975Y-42945D01*
X62974Y-43153D01*
X63054Y-43347D01*
X63202Y-43494D01*
X63262Y-43520D01*
X63305Y-43562D01*
X63203Y-43604D01*
X63055Y-43752D01*
X62975Y-43945D01*
X62974Y-44153D01*
X63054Y-44347D01*
X63202Y-44494D01*
X63335Y-44550D01*
X63203Y-44604D01*
X63055Y-44752D01*
X62975Y-44945D01*
X62974Y-45153D01*
X63054Y-45347D01*
X63202Y-45494D01*
X63335Y-45550D01*
X63203Y-45604D01*
X63055Y-45752D01*
X62975Y-45945D01*
X62974Y-46153D01*
X63054Y-46347D01*
X63202Y-46494D01*
X63395Y-46574D01*
X63603Y-46575D01*
X63797Y-46495D01*
X63944Y-46347D01*
X64024Y-46154D01*
X64025Y-45946D01*
X63945Y-45753D01*
X63797Y-45605D01*
X63664Y-45549D01*
X63797Y-45495D01*
X63944Y-45347D01*
X64011Y-45187D01*
X65077Y-46253D01*
X65077Y-46253D01*
X65239Y-46361D01*
X65430Y-46400D01*
X75199Y-46400D01*
X75200Y-46400D01*
X75200Y-46400D01*
X75391Y-46361D01*
X75553Y-46253D01*
X75925Y-45881D01*
X75925Y-45881D01*
X75925Y-45881D01*
X76033Y-45719D01*
X76033Y-45719D01*
X76064Y-45566D01*
X76072Y-45527D01*
X76072Y-45527D01*
X76072Y-45527D01*
X76072Y-44067D01*
X76072Y-44067D01*
X76258Y-44144D01*
X76459Y-44144D01*
X76645Y-44068D01*
X76678Y-44035D01*
X76678Y-44036D01*
X76749Y-44106D01*
X76840Y-44144D01*
X76940Y-44144D01*
X77452Y-44144D01*
X77544Y-44106D01*
X77614Y-44036D01*
X77652Y-43944D01*
X77652Y-43845D01*
X77652Y-52200D01*
X77575Y-52014D01*
X77433Y-51871D01*
X77247Y-51794D01*
X77046Y-51794D01*
X76860Y-51871D01*
X76753Y-51978D01*
X76646Y-51871D01*
X76460Y-51794D01*
X76259Y-51794D01*
X76073Y-51871D01*
X75965Y-51978D01*
X75858Y-51871D01*
X75673Y-51794D01*
X75471Y-51794D01*
X75285Y-51871D01*
X75178Y-51978D01*
X75071Y-51871D01*
X74885Y-51794D01*
X74684Y-51794D01*
X74498Y-51871D01*
X74356Y-52013D01*
X74354Y-52017D01*
X74351Y-52017D01*
X74280Y-52087D01*
X74280Y-51946D01*
X74258Y-51855D01*
X74068Y-51789D01*
X73867Y-51801D01*
X73735Y-51855D01*
X73714Y-51946D01*
X73997Y-52229D01*
X74280Y-51946D01*
X74280Y-52087D01*
X74067Y-52300D01*
X74351Y-52583D01*
X74354Y-52582D01*
X74355Y-52586D01*
X74497Y-52729D01*
X74683Y-52806D01*
X74884Y-52806D01*
X75070Y-52729D01*
X75178Y-52622D01*
X75285Y-52729D01*
X75470Y-52806D01*
X75672Y-52806D01*
X75858Y-52729D01*
X75965Y-52622D01*
X76072Y-52729D01*
X76258Y-52806D01*
X76459Y-52806D01*
X76645Y-52729D01*
X76753Y-52622D01*
X76859Y-52729D01*
X77045Y-52806D01*
X77247Y-52806D01*
X77433Y-52729D01*
X77575Y-52587D01*
X77652Y-52401D01*
X77652Y-52200D01*
X77652Y-53080D01*
X74280Y-53080D01*
X74280Y-52654D01*
X73997Y-52371D01*
X73926Y-52441D01*
X73926Y-52300D01*
X73643Y-52017D01*
X73640Y-52017D01*
X73638Y-52014D01*
X73496Y-51871D01*
X73310Y-51794D01*
X73109Y-51794D01*
X72923Y-51871D01*
X72816Y-51978D01*
X72709Y-51871D01*
X72523Y-51794D01*
X72322Y-51794D01*
X72136Y-51871D01*
X72028Y-51978D01*
X71921Y-51871D01*
X71736Y-51794D01*
X71534Y-51794D01*
X71348Y-51871D01*
X71241Y-51978D01*
X71134Y-51871D01*
X70948Y-51794D01*
X70747Y-51794D01*
X70561Y-51871D01*
X70453Y-51978D01*
X70347Y-51871D01*
X70161Y-51794D01*
X69960Y-51794D01*
X69774Y-51871D01*
X69631Y-52013D01*
X69554Y-52199D01*
X69554Y-52400D01*
X69631Y-52586D01*
X69773Y-52729D01*
X69959Y-52806D01*
X70160Y-52806D01*
X70346Y-52729D01*
X70453Y-52622D01*
X70560Y-52729D01*
X70746Y-52806D01*
X70947Y-52806D01*
X71133Y-52729D01*
X71241Y-52622D01*
X71348Y-52729D01*
X71533Y-52806D01*
X71735Y-52806D01*
X71921Y-52729D01*
X72028Y-52622D01*
X72135Y-52729D01*
X72321Y-52806D01*
X72522Y-52806D01*
X72708Y-52729D01*
X72816Y-52622D01*
X72922Y-52729D01*
X73108Y-52806D01*
X73310Y-52806D01*
X73496Y-52729D01*
X73638Y-52587D01*
X73640Y-52582D01*
X73643Y-52583D01*
X73926Y-52300D01*
X73926Y-52441D01*
X73714Y-52654D01*
X73735Y-52745D01*
X73926Y-52811D01*
X74126Y-52799D01*
X74258Y-52745D01*
X74280Y-52654D01*
X74280Y-53080D01*
X61029Y-53080D01*
X61029Y-49475D01*
X61029Y-40125D01*
X61018Y-39917D01*
X60960Y-39777D01*
X60867Y-39752D01*
X60570Y-40050D01*
X60867Y-40347D01*
X60960Y-40322D01*
X61029Y-40125D01*
X61029Y-49475D01*
X61025Y-49387D01*
X61025Y-47296D01*
X61000Y-47235D01*
X61000Y-46214D01*
X61024Y-46154D01*
X61025Y-45946D01*
X60945Y-45753D01*
X60797Y-45605D01*
X60664Y-45549D01*
X60797Y-45495D01*
X60944Y-45347D01*
X61024Y-45154D01*
X61025Y-44946D01*
X60945Y-44753D01*
X60797Y-44605D01*
X60694Y-44562D01*
X60736Y-44520D01*
X60797Y-44495D01*
X60944Y-44347D01*
X61024Y-44154D01*
X61025Y-43946D01*
X60945Y-43753D01*
X60797Y-43605D01*
X60694Y-43562D01*
X60736Y-43520D01*
X60797Y-43495D01*
X60944Y-43347D01*
X61024Y-43154D01*
X61025Y-42946D01*
X60945Y-42753D01*
X60797Y-42605D01*
X60664Y-42549D01*
X60797Y-42495D01*
X60944Y-42347D01*
X61024Y-42154D01*
X61025Y-41946D01*
X60945Y-41753D01*
X60797Y-41605D01*
X60664Y-41549D01*
X60797Y-41495D01*
X60944Y-41347D01*
X61024Y-41154D01*
X61025Y-40946D01*
X60945Y-40753D01*
X60797Y-40605D01*
X60671Y-40552D01*
X60772Y-40510D01*
X60797Y-40417D01*
X60500Y-40120D01*
X60429Y-40191D01*
X60429Y-40050D01*
X60132Y-39752D01*
X60039Y-39777D01*
X59970Y-39974D01*
X59981Y-40182D01*
X60039Y-40322D01*
X60132Y-40347D01*
X60429Y-40050D01*
X60429Y-40191D01*
X60202Y-40417D01*
X60227Y-40510D01*
X60337Y-40549D01*
X60335Y-40550D01*
X59307Y-40550D01*
X58579Y-39822D01*
X58549Y-39750D01*
X58400Y-39600D01*
X58205Y-39520D01*
X57995Y-39519D01*
X57922Y-39550D01*
X56729Y-39550D01*
X56729Y-38125D01*
X56718Y-37917D01*
X56660Y-37777D01*
X56567Y-37752D01*
X56497Y-37823D01*
X56497Y-37682D01*
X56472Y-37589D01*
X56275Y-37520D01*
X56067Y-37531D01*
X55927Y-37589D01*
X55902Y-37682D01*
X56200Y-37979D01*
X56497Y-37682D01*
X56497Y-37823D01*
X56270Y-38050D01*
X56567Y-38347D01*
X56660Y-38322D01*
X56729Y-38125D01*
X56729Y-39550D01*
X56497Y-39550D01*
X56497Y-38417D01*
X56200Y-38120D01*
X56129Y-38191D01*
X56129Y-38050D01*
X55832Y-37752D01*
X55739Y-37777D01*
X55670Y-37974D01*
X55681Y-38182D01*
X55739Y-38322D01*
X55832Y-38347D01*
X56129Y-38050D01*
X56129Y-38191D01*
X55902Y-38417D01*
X55927Y-38510D01*
X56124Y-38579D01*
X56332Y-38568D01*
X56472Y-38510D01*
X56497Y-38417D01*
X56497Y-39550D01*
X56364Y-39550D01*
X56304Y-39525D01*
X56096Y-39524D01*
X55903Y-39604D01*
X55755Y-39752D01*
X55675Y-39945D01*
X55674Y-40153D01*
X55754Y-40347D01*
X55902Y-40494D01*
X56095Y-40574D01*
X56303Y-40575D01*
X56364Y-40550D01*
X57892Y-40550D01*
X58746Y-41403D01*
X58746Y-41403D01*
X58908Y-41511D01*
X59100Y-41550D01*
X58277Y-41550D01*
X58205Y-41520D01*
X57995Y-41519D01*
X57922Y-41550D01*
X55479Y-41550D01*
X55479Y-40125D01*
X55468Y-39917D01*
X55410Y-39777D01*
X55317Y-39752D01*
X55247Y-39823D01*
X55247Y-39682D01*
X55222Y-39589D01*
X55025Y-39520D01*
X54817Y-39531D01*
X54677Y-39589D01*
X54652Y-39682D01*
X54950Y-39979D01*
X55247Y-39682D01*
X55247Y-39823D01*
X55020Y-40050D01*
X55317Y-40347D01*
X55410Y-40322D01*
X55479Y-40125D01*
X55479Y-41550D01*
X55247Y-41550D01*
X55247Y-40417D01*
X54950Y-40120D01*
X54879Y-40191D01*
X54879Y-40050D01*
X54582Y-39752D01*
X54489Y-39777D01*
X54420Y-39974D01*
X54431Y-40182D01*
X54489Y-40322D01*
X54582Y-40347D01*
X54879Y-40050D01*
X54879Y-40191D01*
X54652Y-40417D01*
X54677Y-40510D01*
X54874Y-40579D01*
X55082Y-40568D01*
X55222Y-40510D01*
X55247Y-40417D01*
X55247Y-41550D01*
X55114Y-41550D01*
X55054Y-41525D01*
X54846Y-41524D01*
X54653Y-41604D01*
X54505Y-41752D01*
X54425Y-41945D01*
X54424Y-42153D01*
X54504Y-42347D01*
X54652Y-42494D01*
X54845Y-42574D01*
X55053Y-42575D01*
X55114Y-42550D01*
X57922Y-42550D01*
X57994Y-42579D01*
X58204Y-42580D01*
X58277Y-42550D01*
X60335Y-42550D01*
X60335Y-42550D01*
X60203Y-42604D01*
X60055Y-42752D01*
X60029Y-42812D01*
X58542Y-44300D01*
X56914Y-44300D01*
X56854Y-44275D01*
X56646Y-44274D01*
X56453Y-44354D01*
X56305Y-44502D01*
X56275Y-44574D01*
X56275Y-44475D01*
X56237Y-44383D01*
X56166Y-44313D01*
X56074Y-44275D01*
X55975Y-44274D01*
X55425Y-44274D01*
X55364Y-44300D01*
X53130Y-44300D01*
X53009Y-44250D01*
X52791Y-44249D01*
X52588Y-44333D01*
X52434Y-44488D01*
X52350Y-44690D01*
X52349Y-44908D01*
X52433Y-45111D01*
X52588Y-45265D01*
X52790Y-45349D01*
X53008Y-45350D01*
X53130Y-45300D01*
X55364Y-45300D01*
X55425Y-45324D01*
X55524Y-45325D01*
X56074Y-45325D01*
X56166Y-45287D01*
X56236Y-45216D01*
X56274Y-45124D01*
X56275Y-45025D01*
X56275Y-45025D01*
X56304Y-45097D01*
X56452Y-45244D01*
X56645Y-45324D01*
X56853Y-45325D01*
X56914Y-45300D01*
X58542Y-45300D01*
X57642Y-46200D01*
X55164Y-46200D01*
X55104Y-46175D01*
X54896Y-46174D01*
X54703Y-46254D01*
X54555Y-46402D01*
X54525Y-46474D01*
X54525Y-46375D01*
X54487Y-46283D01*
X54416Y-46213D01*
X54324Y-46175D01*
X54225Y-46174D01*
X53675Y-46174D01*
X53614Y-46200D01*
X51130Y-46200D01*
X51009Y-46150D01*
X50791Y-46149D01*
X50588Y-46233D01*
X50434Y-46388D01*
X50350Y-46590D01*
X50349Y-46808D01*
X50433Y-47011D01*
X50588Y-47165D01*
X50790Y-47249D01*
X51008Y-47250D01*
X51130Y-47200D01*
X53614Y-47200D01*
X53675Y-47224D01*
X53774Y-47225D01*
X54324Y-47225D01*
X54416Y-47187D01*
X54486Y-47116D01*
X54524Y-47024D01*
X54525Y-46925D01*
X54525Y-46925D01*
X54554Y-46997D01*
X54702Y-47144D01*
X54895Y-47224D01*
X55103Y-47225D01*
X55164Y-47200D01*
X57849Y-47200D01*
X57850Y-47200D01*
X57850Y-47200D01*
X58041Y-47161D01*
X58203Y-47053D01*
X60012Y-45244D01*
X60054Y-45347D01*
X60202Y-45494D01*
X60335Y-45550D01*
X60203Y-45604D01*
X60055Y-45752D01*
X59975Y-45945D01*
X59974Y-46153D01*
X60000Y-46214D01*
X60000Y-47235D01*
X59975Y-47295D01*
X59974Y-47503D01*
X60054Y-47697D01*
X60202Y-47844D01*
X60395Y-47924D01*
X60603Y-47925D01*
X60797Y-47845D01*
X60944Y-47697D01*
X61024Y-47504D01*
X61025Y-47296D01*
X61025Y-49387D01*
X61018Y-49267D01*
X60960Y-49127D01*
X60867Y-49102D01*
X60797Y-49173D01*
X60797Y-49032D01*
X60772Y-48939D01*
X60575Y-48870D01*
X60367Y-48881D01*
X60227Y-48939D01*
X60202Y-49032D01*
X60500Y-49329D01*
X60797Y-49032D01*
X60797Y-49173D01*
X60570Y-49400D01*
X60867Y-49697D01*
X60960Y-49672D01*
X61029Y-49475D01*
X61029Y-53080D01*
X60797Y-53080D01*
X60797Y-49767D01*
X60500Y-49470D01*
X60429Y-49541D01*
X60429Y-49400D01*
X60132Y-49102D01*
X60039Y-49127D01*
X59970Y-49324D01*
X59981Y-49532D01*
X60039Y-49672D01*
X60132Y-49697D01*
X60429Y-49400D01*
X60429Y-49541D01*
X60202Y-49767D01*
X60227Y-49860D01*
X60424Y-49929D01*
X60632Y-49918D01*
X60772Y-49860D01*
X60797Y-49767D01*
X60797Y-53080D01*
X49169Y-53080D01*
X49169Y-24919D01*
X49350Y-24919D01*
X78230Y-24919D01*
X78230Y-53080D01*
X78230Y-53080D01*
G37*
G54D22*
X78230Y-53080D02*
X77652Y-53080D01*
X77652Y-52200D01*
X77652Y-52200D01*
X77652Y-43845D01*
X77652Y-43333D01*
X77646Y-43319D01*
X77646Y-41003D01*
X77608Y-40811D01*
X77500Y-40649D01*
X77500Y-40649D01*
X74747Y-37896D01*
X74585Y-37788D01*
X74393Y-37749D01*
X74393Y-37750D01*
X71279Y-37750D01*
X71279Y-37325D01*
X71268Y-37117D01*
X71210Y-36977D01*
X71117Y-36952D01*
X70820Y-37250D01*
X71117Y-37547D01*
X71210Y-37522D01*
X71279Y-37325D01*
X71279Y-37750D01*
X70927Y-37750D01*
X71022Y-37710D01*
X71047Y-37617D01*
X70750Y-37320D01*
X70679Y-37391D01*
X70679Y-37250D01*
X70382Y-36952D01*
X70289Y-36977D01*
X70220Y-37174D01*
X70231Y-37382D01*
X70289Y-37522D01*
X70382Y-37547D01*
X70679Y-37250D01*
X70679Y-37391D01*
X70452Y-37617D01*
X70477Y-37710D01*
X70587Y-37749D01*
X70453Y-37804D01*
X70305Y-37952D01*
X70279Y-38012D01*
X67742Y-40550D01*
X65564Y-40550D01*
X65504Y-40525D01*
X65296Y-40524D01*
X65235Y-40550D01*
X63664Y-40550D01*
X63664Y-40549D01*
X63785Y-40500D01*
X66049Y-40500D01*
X66050Y-40500D01*
X66050Y-40500D01*
X66241Y-40461D01*
X66403Y-40353D01*
X70007Y-36750D01*
X70572Y-36750D01*
X70477Y-36789D01*
X70452Y-36882D01*
X70750Y-37179D01*
X71047Y-36882D01*
X71022Y-36789D01*
X70912Y-36750D01*
X71047Y-36695D01*
X71194Y-36547D01*
X71274Y-36354D01*
X71275Y-36146D01*
X71195Y-35953D01*
X71047Y-35805D01*
X70975Y-35775D01*
X71074Y-35775D01*
X71166Y-35737D01*
X71236Y-35666D01*
X71274Y-35574D01*
X71275Y-35475D01*
X71275Y-34925D01*
X71237Y-34833D01*
X71166Y-34763D01*
X71074Y-34725D01*
X70975Y-34724D01*
X70425Y-34724D01*
X70364Y-34750D01*
X69650Y-34750D01*
X69458Y-34788D01*
X69296Y-34896D01*
X69296Y-34896D01*
X65642Y-38550D01*
X63664Y-38550D01*
X63664Y-38549D01*
X63797Y-38495D01*
X63944Y-38347D01*
X64024Y-38154D01*
X64025Y-37946D01*
X63945Y-37753D01*
X63797Y-37605D01*
X63664Y-37549D01*
X63797Y-37495D01*
X63944Y-37347D01*
X64024Y-37154D01*
X64025Y-36946D01*
X63945Y-36753D01*
X63797Y-36605D01*
X63664Y-36549D01*
X63797Y-36495D01*
X63944Y-36347D01*
X64024Y-36154D01*
X64025Y-35946D01*
X63945Y-35753D01*
X63797Y-35605D01*
X63664Y-35550D01*
X65199Y-35550D01*
X65200Y-35550D01*
X65200Y-35550D01*
X65391Y-35511D01*
X65553Y-35403D01*
X67053Y-33903D01*
X67053Y-33903D01*
X67053Y-33903D01*
X67161Y-33741D01*
X67200Y-33550D01*
X67200Y-31530D01*
X67249Y-31409D01*
X67250Y-31191D01*
X67166Y-30988D01*
X67011Y-30834D01*
X66809Y-30750D01*
X66591Y-30749D01*
X66388Y-30833D01*
X66234Y-30988D01*
X66150Y-31190D01*
X66149Y-31408D01*
X66200Y-31530D01*
X66200Y-33342D01*
X64992Y-34550D01*
X63850Y-34550D01*
X64041Y-34511D01*
X64203Y-34403D01*
X65703Y-32903D01*
X65703Y-32903D01*
X65703Y-32903D01*
X65811Y-32741D01*
X65850Y-32550D01*
X65850Y-29250D01*
X65811Y-29058D01*
X65703Y-28896D01*
X65000Y-28192D01*
X65000Y-27530D01*
X65033Y-27611D01*
X65188Y-27765D01*
X65390Y-27849D01*
X65608Y-27850D01*
X65811Y-27766D01*
X65965Y-27611D01*
X66049Y-27409D01*
X66050Y-27191D01*
X65966Y-26988D01*
X65811Y-26834D01*
X65609Y-26750D01*
X65391Y-26749D01*
X65188Y-26833D01*
X65034Y-26988D01*
X65000Y-27069D01*
X64966Y-26988D01*
X64811Y-26834D01*
X64609Y-26750D01*
X64391Y-26749D01*
X64188Y-26833D01*
X64034Y-26988D01*
X64000Y-27069D01*
X63966Y-26988D01*
X63811Y-26834D01*
X63609Y-26750D01*
X63391Y-26749D01*
X63188Y-26833D01*
X63034Y-26988D01*
X63002Y-27063D01*
X62981Y-27012D01*
X62885Y-26984D01*
X62815Y-27055D01*
X62815Y-26914D01*
X62787Y-26818D01*
X62581Y-26745D01*
X62363Y-26756D01*
X62212Y-26818D01*
X62184Y-26914D01*
X62500Y-27229D01*
X62815Y-26914D01*
X62815Y-27055D01*
X62570Y-27300D01*
X62885Y-27615D01*
X62981Y-27587D01*
X63000Y-27535D01*
X63000Y-28092D01*
X62717Y-27810D01*
X62787Y-27781D01*
X62815Y-27685D01*
X62500Y-27370D01*
X62494Y-27376D01*
X62423Y-27305D01*
X62429Y-27300D01*
X62114Y-26984D01*
X62018Y-27012D01*
X62000Y-27064D01*
X62000Y-26800D01*
X61999Y-26799D01*
X62000Y-26799D01*
X61961Y-26608D01*
X61853Y-26446D01*
X61853Y-26446D01*
X61553Y-26146D01*
X61391Y-26038D01*
X61200Y-25999D01*
X61199Y-26000D01*
X59750Y-26000D01*
X59558Y-26038D01*
X59396Y-26146D01*
X59396Y-26146D01*
X58896Y-26646D01*
X58788Y-26808D01*
X58749Y-27000D01*
X58750Y-27000D01*
X58750Y-28550D01*
X56450Y-28550D01*
X53804Y-28550D01*
X53804Y-28143D01*
X53794Y-27905D01*
X53722Y-27732D01*
X53622Y-27698D01*
X53551Y-27769D01*
X53551Y-27627D01*
X53517Y-27527D01*
X53293Y-27445D01*
X53055Y-27455D01*
X52882Y-27527D01*
X52848Y-27627D01*
X53200Y-27979D01*
X53551Y-27627D01*
X53551Y-27769D01*
X53270Y-28050D01*
X53622Y-28401D01*
X53722Y-28367D01*
X53804Y-28143D01*
X53804Y-28550D01*
X53548Y-28550D01*
X53540Y-28541D01*
X53529Y-28537D01*
X53551Y-28472D01*
X53200Y-28120D01*
X53129Y-28191D01*
X53129Y-28050D01*
X52777Y-27698D01*
X52677Y-27732D01*
X52595Y-27956D01*
X52605Y-28194D01*
X52677Y-28367D01*
X52777Y-28401D01*
X53129Y-28050D01*
X53129Y-28191D01*
X52848Y-28472D01*
X52870Y-28537D01*
X52860Y-28541D01*
X52691Y-28709D01*
X52600Y-28930D01*
X52599Y-29168D01*
X52691Y-29389D01*
X52765Y-29464D01*
X52708Y-29487D01*
X52638Y-29558D01*
X52600Y-29650D01*
X52599Y-29749D01*
X52599Y-30449D01*
X52637Y-30541D01*
X52708Y-30611D01*
X52800Y-30649D01*
X52899Y-30650D01*
X53599Y-30650D01*
X53691Y-30612D01*
X53761Y-30541D01*
X53799Y-30449D01*
X53800Y-30350D01*
X53800Y-29650D01*
X53762Y-29558D01*
X53753Y-29550D01*
X55950Y-29550D01*
X55950Y-32092D01*
X52546Y-35496D01*
X52438Y-35658D01*
X52399Y-35850D01*
X52400Y-35850D01*
X52400Y-40300D01*
X51850Y-40300D01*
X51658Y-40338D01*
X51496Y-40446D01*
X51496Y-40446D01*
X50546Y-41396D01*
X50438Y-41558D01*
X50399Y-41750D01*
X50400Y-41750D01*
X50400Y-42469D01*
X50350Y-42590D01*
X50349Y-42808D01*
X50433Y-43011D01*
X50588Y-43165D01*
X50790Y-43249D01*
X51008Y-43250D01*
X51211Y-43166D01*
X51365Y-43011D01*
X51449Y-42809D01*
X51450Y-42591D01*
X51400Y-42469D01*
X51400Y-41957D01*
X52057Y-41300D01*
X52669Y-41300D01*
X52790Y-41349D01*
X53008Y-41350D01*
X53211Y-41266D01*
X53365Y-41111D01*
X53449Y-40909D01*
X53450Y-40691D01*
X53400Y-40569D01*
X53400Y-36057D01*
X56803Y-32653D01*
X56803Y-32653D01*
X56803Y-32653D01*
X56911Y-32491D01*
X56950Y-32300D01*
X56950Y-29550D01*
X59019Y-29550D01*
X59140Y-29599D01*
X59358Y-29600D01*
X59561Y-29516D01*
X59715Y-29361D01*
X59799Y-29159D01*
X59800Y-28941D01*
X59750Y-28819D01*
X59750Y-27207D01*
X59949Y-27007D01*
X59949Y-27049D01*
X59949Y-27649D01*
X59987Y-27741D01*
X60000Y-27753D01*
X60000Y-32650D01*
X59627Y-32650D01*
X59561Y-32584D01*
X59359Y-32500D01*
X59141Y-32499D01*
X58938Y-32583D01*
X58784Y-32738D01*
X58700Y-32940D01*
X58699Y-33158D01*
X58783Y-33361D01*
X58938Y-33515D01*
X59140Y-33599D01*
X59358Y-33600D01*
X59561Y-33516D01*
X59627Y-33450D01*
X60006Y-33450D01*
X60012Y-33466D01*
X60083Y-33536D01*
X60175Y-33574D01*
X60274Y-33575D01*
X60274Y-33575D01*
X60203Y-33604D01*
X60055Y-33752D01*
X59975Y-33945D01*
X59974Y-34153D01*
X60054Y-34347D01*
X60202Y-34494D01*
X60335Y-34550D01*
X60203Y-34604D01*
X60055Y-34752D01*
X59975Y-34945D01*
X59974Y-35153D01*
X60054Y-35347D01*
X60202Y-35494D01*
X60335Y-35550D01*
X60203Y-35604D01*
X60055Y-35752D01*
X59975Y-35945D01*
X59974Y-36153D01*
X60054Y-36347D01*
X60202Y-36494D01*
X60335Y-36550D01*
X60203Y-36604D01*
X60055Y-36752D01*
X59975Y-36945D01*
X59974Y-37153D01*
X60054Y-37347D01*
X60202Y-37494D01*
X60335Y-37550D01*
X60203Y-37604D01*
X60055Y-37752D01*
X59975Y-37945D01*
X59974Y-38153D01*
X60054Y-38347D01*
X60202Y-38494D01*
X60335Y-38550D01*
X60203Y-38604D01*
X60055Y-38752D01*
X59975Y-38945D01*
X59974Y-39153D01*
X60054Y-39347D01*
X60202Y-39494D01*
X60328Y-39547D01*
X60227Y-39589D01*
X60202Y-39682D01*
X60500Y-39979D01*
X60797Y-39682D01*
X60772Y-39589D01*
X60662Y-39550D01*
X60797Y-39495D01*
X60944Y-39347D01*
X61024Y-39154D01*
X61025Y-38946D01*
X60945Y-38753D01*
X60797Y-38605D01*
X60664Y-38549D01*
X60797Y-38495D01*
X60944Y-38347D01*
X61024Y-38154D01*
X61025Y-37946D01*
X60945Y-37753D01*
X60797Y-37605D01*
X60664Y-37549D01*
X60797Y-37495D01*
X60944Y-37347D01*
X61024Y-37154D01*
X61025Y-36946D01*
X60945Y-36753D01*
X60797Y-36605D01*
X60664Y-36549D01*
X60797Y-36495D01*
X60944Y-36347D01*
X61024Y-36154D01*
X61025Y-35946D01*
X60945Y-35753D01*
X60797Y-35605D01*
X60664Y-35549D01*
X60797Y-35495D01*
X60944Y-35347D01*
X61024Y-35154D01*
X61025Y-34946D01*
X60945Y-34753D01*
X60797Y-34605D01*
X60664Y-34549D01*
X60797Y-34495D01*
X60944Y-34347D01*
X61024Y-34154D01*
X61025Y-33946D01*
X60945Y-33753D01*
X60797Y-33605D01*
X60725Y-33575D01*
X60824Y-33575D01*
X60916Y-33537D01*
X60986Y-33466D01*
X61024Y-33374D01*
X61025Y-33275D01*
X61025Y-32725D01*
X61000Y-32664D01*
X61000Y-27753D01*
X61011Y-27741D01*
X61049Y-27649D01*
X61049Y-27627D01*
X61188Y-27765D01*
X61309Y-27816D01*
X62250Y-28757D01*
X62250Y-29364D01*
X62236Y-29333D01*
X62166Y-29262D01*
X62074Y-29224D01*
X61862Y-29225D01*
X61800Y-29287D01*
X61800Y-29700D01*
X61807Y-29700D01*
X61807Y-29800D01*
X61800Y-29800D01*
X61800Y-30212D01*
X61862Y-30275D01*
X62074Y-30275D01*
X62166Y-30237D01*
X62200Y-30203D01*
X62200Y-31069D01*
X62183Y-31109D01*
X61700Y-31592D01*
X61700Y-30212D01*
X61700Y-29800D01*
X61700Y-29700D01*
X61700Y-29287D01*
X61637Y-29225D01*
X61425Y-29224D01*
X61333Y-29262D01*
X61263Y-29333D01*
X61225Y-29425D01*
X61224Y-29524D01*
X61225Y-29637D01*
X61287Y-29700D01*
X61700Y-29700D01*
X61700Y-29800D01*
X61287Y-29800D01*
X61225Y-29862D01*
X61224Y-29975D01*
X61225Y-30074D01*
X61263Y-30166D01*
X61333Y-30237D01*
X61425Y-30275D01*
X61637Y-30275D01*
X61700Y-30212D01*
X61700Y-31592D01*
X61546Y-31746D01*
X61438Y-31908D01*
X61399Y-32100D01*
X61400Y-32100D01*
X61400Y-40749D01*
X61399Y-40750D01*
X61438Y-40941D01*
X61546Y-41103D01*
X61846Y-41403D01*
X61846Y-41403D01*
X62008Y-41511D01*
X62199Y-41550D01*
X62199Y-41549D01*
X62200Y-41550D01*
X63322Y-41550D01*
X63227Y-41589D01*
X63202Y-41682D01*
X63500Y-41979D01*
X63797Y-41682D01*
X63772Y-41589D01*
X63662Y-41550D01*
X63664Y-41550D01*
X65235Y-41550D01*
X65295Y-41574D01*
X65503Y-41575D01*
X65564Y-41550D01*
X67949Y-41550D01*
X67950Y-41550D01*
X67950Y-41550D01*
X68141Y-41511D01*
X68303Y-41403D01*
X70262Y-39444D01*
X70304Y-39547D01*
X70452Y-39694D01*
X70585Y-39750D01*
X70453Y-39804D01*
X70305Y-39952D01*
X70225Y-40145D01*
X70224Y-40353D01*
X70304Y-40547D01*
X70452Y-40694D01*
X70645Y-40774D01*
X70853Y-40775D01*
X71047Y-40695D01*
X71194Y-40547D01*
X71274Y-40354D01*
X71275Y-40146D01*
X71195Y-39953D01*
X71047Y-39805D01*
X70914Y-39749D01*
X71047Y-39695D01*
X71194Y-39547D01*
X71274Y-39354D01*
X71275Y-39146D01*
X71195Y-38953D01*
X71047Y-38805D01*
X70944Y-38762D01*
X70957Y-38750D01*
X74186Y-38750D01*
X76646Y-41210D01*
X76646Y-42139D01*
X76153Y-41646D01*
X75991Y-41538D01*
X75800Y-41499D01*
X75799Y-41500D01*
X68900Y-41500D01*
X68708Y-41538D01*
X68546Y-41646D01*
X66592Y-43600D01*
X65929Y-43600D01*
X65929Y-43125D01*
X65918Y-42917D01*
X65860Y-42777D01*
X65767Y-42752D01*
X65697Y-42823D01*
X65697Y-42682D01*
X65672Y-42589D01*
X65475Y-42520D01*
X65267Y-42531D01*
X65127Y-42589D01*
X65102Y-42682D01*
X65400Y-42979D01*
X65697Y-42682D01*
X65697Y-42823D01*
X65470Y-43050D01*
X65767Y-43347D01*
X65860Y-43322D01*
X65929Y-43125D01*
X65929Y-43600D01*
X65697Y-43600D01*
X65697Y-43417D01*
X65400Y-43120D01*
X65329Y-43191D01*
X65329Y-43050D01*
X65032Y-42752D01*
X64939Y-42777D01*
X64870Y-42974D01*
X64881Y-43182D01*
X64939Y-43322D01*
X65032Y-43347D01*
X65329Y-43050D01*
X65329Y-43191D01*
X65102Y-43417D01*
X65127Y-43510D01*
X65324Y-43579D01*
X65532Y-43568D01*
X65672Y-43510D01*
X65697Y-43417D01*
X65697Y-43600D01*
X64757Y-43600D01*
X64029Y-42872D01*
X64029Y-42125D01*
X64018Y-41917D01*
X63960Y-41777D01*
X63867Y-41752D01*
X63570Y-42050D01*
X63867Y-42347D01*
X63960Y-42322D01*
X64029Y-42125D01*
X64029Y-42872D01*
X63970Y-42813D01*
X63945Y-42753D01*
X63797Y-42605D01*
X63671Y-42552D01*
X63772Y-42510D01*
X63797Y-42417D01*
X63500Y-42120D01*
X63429Y-42191D01*
X63429Y-42050D01*
X63132Y-41752D01*
X63039Y-41777D01*
X62970Y-41974D01*
X62981Y-42182D01*
X63039Y-42322D01*
X63132Y-42347D01*
X63429Y-42050D01*
X63429Y-42191D01*
X63202Y-42417D01*
X63227Y-42510D01*
X63337Y-42549D01*
X63203Y-42604D01*
X63055Y-42752D01*
X62975Y-42945D01*
X62974Y-43153D01*
X63054Y-43347D01*
X63202Y-43494D01*
X63262Y-43520D01*
X63305Y-43562D01*
X63203Y-43604D01*
X63055Y-43752D01*
X62975Y-43945D01*
X62974Y-44153D01*
X63054Y-44347D01*
X63202Y-44494D01*
X63335Y-44550D01*
X63203Y-44604D01*
X63055Y-44752D01*
X62975Y-44945D01*
X62974Y-45153D01*
X63054Y-45347D01*
X63202Y-45494D01*
X63335Y-45550D01*
X63203Y-45604D01*
X63055Y-45752D01*
X62975Y-45945D01*
X62974Y-46153D01*
X63054Y-46347D01*
X63202Y-46494D01*
X63395Y-46574D01*
X63603Y-46575D01*
X63797Y-46495D01*
X63944Y-46347D01*
X64024Y-46154D01*
X64025Y-45946D01*
X63945Y-45753D01*
X63797Y-45605D01*
X63664Y-45549D01*
X63797Y-45495D01*
X63944Y-45347D01*
X64011Y-45187D01*
X65077Y-46253D01*
X65077Y-46253D01*
X65239Y-46361D01*
X65430Y-46400D01*
X75199Y-46400D01*
X75200Y-46400D01*
X75200Y-46400D01*
X75391Y-46361D01*
X75553Y-46253D01*
X75925Y-45881D01*
X75925Y-45881D01*
X75925Y-45881D01*
X76033Y-45719D01*
X76033Y-45719D01*
X76064Y-45566D01*
X76072Y-45527D01*
X76072Y-45527D01*
X76072Y-45527D01*
X76072Y-44067D01*
X76072Y-44067D01*
X76258Y-44144D01*
X76459Y-44144D01*
X76645Y-44068D01*
X76678Y-44035D01*
X76678Y-44036D01*
X76749Y-44106D01*
X76840Y-44144D01*
X76940Y-44144D01*
X77452Y-44144D01*
X77544Y-44106D01*
X77614Y-44036D01*
X77652Y-43944D01*
X77652Y-43845D01*
X77652Y-52200D01*
X77575Y-52014D01*
X77433Y-51871D01*
X77247Y-51794D01*
X77046Y-51794D01*
X76860Y-51871D01*
X76753Y-51978D01*
X76646Y-51871D01*
X76460Y-51794D01*
X76259Y-51794D01*
X76073Y-51871D01*
X75965Y-51978D01*
X75858Y-51871D01*
X75673Y-51794D01*
X75471Y-51794D01*
X75285Y-51871D01*
X75178Y-51978D01*
X75071Y-51871D01*
X74885Y-51794D01*
X74684Y-51794D01*
X74498Y-51871D01*
X74356Y-52013D01*
X74354Y-52017D01*
X74351Y-52017D01*
X74280Y-52087D01*
X74280Y-51946D01*
X74258Y-51855D01*
X74068Y-51789D01*
X73867Y-51801D01*
X73735Y-51855D01*
X73714Y-51946D01*
X73997Y-52229D01*
X74280Y-51946D01*
X74280Y-52087D01*
X74067Y-52300D01*
X74351Y-52583D01*
X74354Y-52582D01*
X74355Y-52586D01*
X74497Y-52729D01*
X74683Y-52806D01*
X74884Y-52806D01*
X75070Y-52729D01*
X75178Y-52622D01*
X75285Y-52729D01*
X75470Y-52806D01*
X75672Y-52806D01*
X75858Y-52729D01*
X75965Y-52622D01*
X76072Y-52729D01*
X76258Y-52806D01*
X76459Y-52806D01*
X76645Y-52729D01*
X76753Y-52622D01*
X76859Y-52729D01*
X77045Y-52806D01*
X77247Y-52806D01*
X77433Y-52729D01*
X77575Y-52587D01*
X77652Y-52401D01*
X77652Y-52200D01*
X77652Y-53080D01*
X74280Y-53080D01*
X74280Y-52654D01*
X73997Y-52371D01*
X73926Y-52441D01*
X73926Y-52300D01*
X73643Y-52017D01*
X73640Y-52017D01*
X73638Y-52014D01*
X73496Y-51871D01*
X73310Y-51794D01*
X73109Y-51794D01*
X72923Y-51871D01*
X72816Y-51978D01*
X72709Y-51871D01*
X72523Y-51794D01*
X72322Y-51794D01*
X72136Y-51871D01*
X72028Y-51978D01*
X71921Y-51871D01*
X71736Y-51794D01*
X71534Y-51794D01*
X71348Y-51871D01*
X71241Y-51978D01*
X71134Y-51871D01*
X70948Y-51794D01*
X70747Y-51794D01*
X70561Y-51871D01*
X70453Y-51978D01*
X70347Y-51871D01*
X70161Y-51794D01*
X69960Y-51794D01*
X69774Y-51871D01*
X69631Y-52013D01*
X69554Y-52199D01*
X69554Y-52400D01*
X69631Y-52586D01*
X69773Y-52729D01*
X69959Y-52806D01*
X70160Y-52806D01*
X70346Y-52729D01*
X70453Y-52622D01*
X70560Y-52729D01*
X70746Y-52806D01*
X70947Y-52806D01*
X71133Y-52729D01*
X71241Y-52622D01*
X71348Y-52729D01*
X71533Y-52806D01*
X71735Y-52806D01*
X71921Y-52729D01*
X72028Y-52622D01*
X72135Y-52729D01*
X72321Y-52806D01*
X72522Y-52806D01*
X72708Y-52729D01*
X72816Y-52622D01*
X72922Y-52729D01*
X73108Y-52806D01*
X73310Y-52806D01*
X73496Y-52729D01*
X73638Y-52587D01*
X73640Y-52582D01*
X73643Y-52583D01*
X73926Y-52300D01*
X73926Y-52441D01*
X73714Y-52654D01*
X73735Y-52745D01*
X73926Y-52811D01*
X74126Y-52799D01*
X74258Y-52745D01*
X74280Y-52654D01*
X74280Y-53080D01*
X61029Y-53080D01*
X61029Y-49475D01*
X61029Y-40125D01*
X61018Y-39917D01*
X60960Y-39777D01*
X60867Y-39752D01*
X60570Y-40050D01*
X60867Y-40347D01*
X60960Y-40322D01*
X61029Y-40125D01*
X61029Y-49475D01*
X61025Y-49387D01*
X61025Y-47296D01*
X61000Y-47235D01*
X61000Y-46214D01*
X61024Y-46154D01*
X61025Y-45946D01*
X60945Y-45753D01*
X60797Y-45605D01*
X60664Y-45549D01*
X60797Y-45495D01*
X60944Y-45347D01*
X61024Y-45154D01*
X61025Y-44946D01*
X60945Y-44753D01*
X60797Y-44605D01*
X60694Y-44562D01*
X60736Y-44520D01*
X60797Y-44495D01*
X60944Y-44347D01*
X61024Y-44154D01*
X61025Y-43946D01*
X60945Y-43753D01*
X60797Y-43605D01*
X60694Y-43562D01*
X60736Y-43520D01*
X60797Y-43495D01*
X60944Y-43347D01*
X61024Y-43154D01*
X61025Y-42946D01*
X60945Y-42753D01*
X60797Y-42605D01*
X60664Y-42549D01*
X60797Y-42495D01*
X60944Y-42347D01*
X61024Y-42154D01*
X61025Y-41946D01*
X60945Y-41753D01*
X60797Y-41605D01*
X60664Y-41549D01*
X60797Y-41495D01*
X60944Y-41347D01*
X61024Y-41154D01*
X61025Y-40946D01*
X60945Y-40753D01*
X60797Y-40605D01*
X60671Y-40552D01*
X60772Y-40510D01*
X60797Y-40417D01*
X60500Y-40120D01*
X60429Y-40191D01*
X60429Y-40050D01*
X60132Y-39752D01*
X60039Y-39777D01*
X59970Y-39974D01*
X59981Y-40182D01*
X60039Y-40322D01*
X60132Y-40347D01*
X60429Y-40050D01*
X60429Y-40191D01*
X60202Y-40417D01*
X60227Y-40510D01*
X60337Y-40549D01*
X60335Y-40550D01*
X59307Y-40550D01*
X58579Y-39822D01*
X58549Y-39750D01*
X58400Y-39600D01*
X58205Y-39520D01*
X57995Y-39519D01*
X57922Y-39550D01*
X56729Y-39550D01*
X56729Y-38125D01*
X56718Y-37917D01*
X56660Y-37777D01*
X56567Y-37752D01*
X56497Y-37823D01*
X56497Y-37682D01*
X56472Y-37589D01*
X56275Y-37520D01*
X56067Y-37531D01*
X55927Y-37589D01*
X55902Y-37682D01*
X56200Y-37979D01*
X56497Y-37682D01*
X56497Y-37823D01*
X56270Y-38050D01*
X56567Y-38347D01*
X56660Y-38322D01*
X56729Y-38125D01*
X56729Y-39550D01*
X56497Y-39550D01*
X56497Y-38417D01*
X56200Y-38120D01*
X56129Y-38191D01*
X56129Y-38050D01*
X55832Y-37752D01*
X55739Y-37777D01*
X55670Y-37974D01*
X55681Y-38182D01*
X55739Y-38322D01*
X55832Y-38347D01*
X56129Y-38050D01*
X56129Y-38191D01*
X55902Y-38417D01*
X55927Y-38510D01*
X56124Y-38579D01*
X56332Y-38568D01*
X56472Y-38510D01*
X56497Y-38417D01*
X56497Y-39550D01*
X56364Y-39550D01*
X56304Y-39525D01*
X56096Y-39524D01*
X55903Y-39604D01*
X55755Y-39752D01*
X55675Y-39945D01*
X55674Y-40153D01*
X55754Y-40347D01*
X55902Y-40494D01*
X56095Y-40574D01*
X56303Y-40575D01*
X56364Y-40550D01*
X57892Y-40550D01*
X58746Y-41403D01*
X58746Y-41403D01*
X58908Y-41511D01*
X59100Y-41550D01*
X58277Y-41550D01*
X58205Y-41520D01*
X57995Y-41519D01*
X57922Y-41550D01*
X55479Y-41550D01*
X55479Y-40125D01*
X55468Y-39917D01*
X55410Y-39777D01*
X55317Y-39752D01*
X55247Y-39823D01*
X55247Y-39682D01*
X55222Y-39589D01*
X55025Y-39520D01*
X54817Y-39531D01*
X54677Y-39589D01*
X54652Y-39682D01*
X54950Y-39979D01*
X55247Y-39682D01*
X55247Y-39823D01*
X55020Y-40050D01*
X55317Y-40347D01*
X55410Y-40322D01*
X55479Y-40125D01*
X55479Y-41550D01*
X55247Y-41550D01*
X55247Y-40417D01*
X54950Y-40120D01*
X54879Y-40191D01*
X54879Y-40050D01*
X54582Y-39752D01*
X54489Y-39777D01*
X54420Y-39974D01*
X54431Y-40182D01*
X54489Y-40322D01*
X54582Y-40347D01*
X54879Y-40050D01*
X54879Y-40191D01*
X54652Y-40417D01*
X54677Y-40510D01*
X54874Y-40579D01*
X55082Y-40568D01*
X55222Y-40510D01*
X55247Y-40417D01*
X55247Y-41550D01*
X55114Y-41550D01*
X55054Y-41525D01*
X54846Y-41524D01*
X54653Y-41604D01*
X54505Y-41752D01*
X54425Y-41945D01*
X54424Y-42153D01*
X54504Y-42347D01*
X54652Y-42494D01*
X54845Y-42574D01*
X55053Y-42575D01*
X55114Y-42550D01*
X57922Y-42550D01*
X57994Y-42579D01*
X58204Y-42580D01*
X58277Y-42550D01*
X60335Y-42550D01*
X60335Y-42550D01*
X60203Y-42604D01*
X60055Y-42752D01*
X60029Y-42812D01*
X58542Y-44300D01*
X56914Y-44300D01*
X56854Y-44275D01*
X56646Y-44274D01*
X56453Y-44354D01*
X56305Y-44502D01*
X56275Y-44574D01*
X56275Y-44475D01*
X56237Y-44383D01*
X56166Y-44313D01*
X56074Y-44275D01*
X55975Y-44274D01*
X55425Y-44274D01*
X55364Y-44300D01*
X53130Y-44300D01*
X53009Y-44250D01*
X52791Y-44249D01*
X52588Y-44333D01*
X52434Y-44488D01*
X52350Y-44690D01*
X52349Y-44908D01*
X52433Y-45111D01*
X52588Y-45265D01*
X52790Y-45349D01*
X53008Y-45350D01*
X53130Y-45300D01*
X55364Y-45300D01*
X55425Y-45324D01*
X55524Y-45325D01*
X56074Y-45325D01*
X56166Y-45287D01*
X56236Y-45216D01*
X56274Y-45124D01*
X56275Y-45025D01*
X56275Y-45025D01*
X56304Y-45097D01*
X56452Y-45244D01*
X56645Y-45324D01*
X56853Y-45325D01*
X56914Y-45300D01*
X58542Y-45300D01*
X57642Y-46200D01*
X55164Y-46200D01*
X55104Y-46175D01*
X54896Y-46174D01*
X54703Y-46254D01*
X54555Y-46402D01*
X54525Y-46474D01*
X54525Y-46375D01*
X54487Y-46283D01*
X54416Y-46213D01*
X54324Y-46175D01*
X54225Y-46174D01*
X53675Y-46174D01*
X53614Y-46200D01*
X51130Y-46200D01*
X51009Y-46150D01*
X50791Y-46149D01*
X50588Y-46233D01*
X50434Y-46388D01*
X50350Y-46590D01*
X50349Y-46808D01*
X50433Y-47011D01*
X50588Y-47165D01*
X50790Y-47249D01*
X51008Y-47250D01*
X51130Y-47200D01*
X53614Y-47200D01*
X53675Y-47224D01*
X53774Y-47225D01*
X54324Y-47225D01*
X54416Y-47187D01*
X54486Y-47116D01*
X54524Y-47024D01*
X54525Y-46925D01*
X54525Y-46925D01*
X54554Y-46997D01*
X54702Y-47144D01*
X54895Y-47224D01*
X55103Y-47225D01*
X55164Y-47200D01*
X57849Y-47200D01*
X57850Y-47200D01*
X57850Y-47200D01*
X58041Y-47161D01*
X58203Y-47053D01*
X60012Y-45244D01*
X60054Y-45347D01*
X60202Y-45494D01*
X60335Y-45550D01*
X60203Y-45604D01*
X60055Y-45752D01*
X59975Y-45945D01*
X59974Y-46153D01*
X60000Y-46214D01*
X60000Y-47235D01*
X59975Y-47295D01*
X59974Y-47503D01*
X60054Y-47697D01*
X60202Y-47844D01*
X60395Y-47924D01*
X60603Y-47925D01*
X60797Y-47845D01*
X60944Y-47697D01*
X61024Y-47504D01*
X61025Y-47296D01*
X61025Y-49387D01*
X61018Y-49267D01*
X60960Y-49127D01*
X60867Y-49102D01*
X60797Y-49173D01*
X60797Y-49032D01*
X60772Y-48939D01*
X60575Y-48870D01*
X60367Y-48881D01*
X60227Y-48939D01*
X60202Y-49032D01*
X60500Y-49329D01*
X60797Y-49032D01*
X60797Y-49173D01*
X60570Y-49400D01*
X60867Y-49697D01*
X60960Y-49672D01*
X61029Y-49475D01*
X61029Y-53080D01*
X60797Y-53080D01*
X60797Y-49767D01*
X60500Y-49470D01*
X60429Y-49541D01*
X60429Y-49400D01*
X60132Y-49102D01*
X60039Y-49127D01*
X59970Y-49324D01*
X59981Y-49532D01*
X60039Y-49672D01*
X60132Y-49697D01*
X60429Y-49400D01*
X60429Y-49541D01*
X60202Y-49767D01*
X60227Y-49860D01*
X60424Y-49929D01*
X60632Y-49918D01*
X60772Y-49860D01*
X60797Y-49767D01*
X60797Y-53080D01*
X49169Y-53080D01*
X49169Y-24919D01*
X49350Y-24919D01*
X78230Y-24919D01*
X78230Y-53080D01*
M02*
