G04 (created by PCBNEW (2013-07-07 BZR 4022)-stable) date 20/11/2014 9:19:33*
%MOIN*%
G04 Gerber Fmt 3.4, Leading zero omitted, Abs format*
%FSLAX34Y34*%
G01*
G70*
G90*
G04 APERTURE LIST*
%ADD10C,0.00590551*%
%ADD11R,0.055X0.055*%
%ADD12C,0.055*%
%ADD13R,0.0511811X0.0511811*%
%ADD14C,0.0511811*%
%ADD15C,0.06*%
%ADD16R,0.06X0.06*%
%ADD17C,0.056*%
%ADD18C,0.07*%
%ADD19R,0.07X0.07*%
G04 APERTURE END LIST*
G54D10*
G54D11*
X70750Y-35250D03*
G54D12*
X70750Y-36250D03*
X70750Y-37250D03*
X70750Y-38250D03*
X70750Y-39250D03*
X70750Y-40250D03*
G54D13*
X77146Y-43638D03*
G54D14*
X77146Y-52300D03*
X76359Y-43638D03*
X76359Y-52300D03*
X75572Y-43638D03*
X75572Y-52300D03*
X74784Y-43638D03*
X74784Y-52300D03*
X73997Y-43638D03*
X73997Y-52300D03*
X73209Y-43638D03*
X73209Y-52300D03*
X72422Y-43638D03*
X72422Y-52300D03*
X71635Y-43638D03*
X71635Y-52300D03*
X70847Y-43638D03*
X70847Y-52300D03*
X70060Y-43638D03*
X70060Y-52300D03*
G54D15*
X59250Y-29050D03*
X59250Y-33050D03*
X66700Y-31300D03*
X62700Y-31300D03*
X50900Y-46700D03*
X50900Y-42700D03*
X52900Y-44800D03*
X52900Y-40800D03*
G54D16*
X60500Y-27300D03*
G54D15*
X61500Y-27300D03*
X62500Y-27300D03*
X63500Y-27300D03*
X64500Y-27300D03*
X65500Y-27300D03*
G54D11*
X54000Y-46700D03*
G54D12*
X55000Y-46700D03*
G54D11*
X55750Y-44800D03*
G54D12*
X56750Y-44800D03*
G54D17*
X58100Y-40050D03*
X58100Y-42050D03*
G54D12*
X60500Y-34050D03*
X60500Y-35050D03*
X60500Y-36050D03*
X60500Y-37050D03*
X60500Y-38050D03*
X60500Y-39050D03*
X60500Y-40050D03*
X60500Y-41050D03*
X60500Y-42050D03*
X60500Y-43050D03*
X60500Y-44050D03*
X60500Y-45050D03*
X60500Y-46050D03*
G54D11*
X60500Y-33050D03*
G54D12*
X63500Y-46050D03*
X63500Y-45050D03*
X63500Y-44050D03*
X63500Y-43050D03*
X63500Y-42050D03*
X63500Y-41050D03*
X63500Y-40050D03*
X63500Y-39050D03*
X63500Y-38050D03*
X63500Y-37050D03*
X63500Y-36050D03*
X63500Y-35050D03*
X63500Y-34050D03*
X63500Y-33050D03*
X54950Y-42050D03*
X54950Y-40050D03*
X56200Y-40050D03*
X56200Y-38050D03*
X60500Y-49400D03*
X60500Y-47400D03*
X65400Y-41050D03*
X65400Y-43050D03*
G54D11*
X61750Y-29750D03*
G54D12*
X62750Y-29750D03*
G54D18*
X53200Y-28050D03*
X53200Y-29050D03*
G54D19*
X53200Y-30050D03*
M02*
