M48
;DRILL file {Pcbnew (2013-07-07 BZR 4022)-stable} date 20/11/2014 9:19:36
;FORMAT={-:-/ absolute / inch / decimal}
FMAT,2
INCH,TZ
T1C0.030
T2C0.031
T3C0.032
T4C0.040
%
G90
G05
M72
T1
X5.81Y-4.005
X5.81Y-4.205
T2
X7.006Y-4.3639
X7.006Y-5.23
X7.0848Y-4.3639
X7.0848Y-5.23
X7.1635Y-4.3639
X7.1635Y-5.23
X7.2422Y-4.3639
X7.2422Y-5.23
X7.321Y-4.3639
X7.321Y-5.23
X7.3997Y-4.3639
X7.3997Y-5.23
X7.4785Y-4.3639
X7.4785Y-5.23
X7.5572Y-4.3639
X7.5572Y-5.23
X7.6359Y-4.3639
X7.6359Y-5.23
X7.7147Y-4.3639
X7.7147Y-5.23
T3
X5.09Y-4.27
X5.09Y-4.67
X5.29Y-4.08
X5.29Y-4.48
X5.4Y-4.67
X5.495Y-4.005
X5.495Y-4.205
X5.5Y-4.67
X5.575Y-4.48
X5.62Y-3.805
X5.62Y-4.005
X5.675Y-4.48
X5.925Y-2.905
X5.925Y-3.305
X6.05Y-3.305
X6.05Y-3.405
X6.05Y-3.505
X6.05Y-3.605
X6.05Y-3.705
X6.05Y-3.805
X6.05Y-3.905
X6.05Y-4.005
X6.05Y-4.105
X6.05Y-4.205
X6.05Y-4.305
X6.05Y-4.405
X6.05Y-4.505
X6.05Y-4.605
X6.05Y-4.74
X6.05Y-4.94
X6.175Y-2.975
X6.27Y-3.13
X6.275Y-2.975
X6.35Y-3.305
X6.35Y-3.405
X6.35Y-3.505
X6.35Y-3.605
X6.35Y-3.705
X6.35Y-3.805
X6.35Y-3.905
X6.35Y-4.005
X6.35Y-4.105
X6.35Y-4.205
X6.35Y-4.305
X6.35Y-4.405
X6.35Y-4.505
X6.35Y-4.605
X6.54Y-4.105
X6.54Y-4.305
X6.67Y-3.13
X7.075Y-3.525
X7.075Y-3.625
X7.075Y-3.725
X7.075Y-3.825
X7.075Y-3.925
X7.075Y-4.025
T4
X5.32Y-2.805
X5.32Y-2.905
X5.32Y-3.005
X6.05Y-2.73
X6.15Y-2.73
X6.25Y-2.73
X6.35Y-2.73
X6.45Y-2.73
X6.55Y-2.73
T0
M30
