G04 (created by PCBNEW (2013-07-07 BZR 4022)-stable) date 19/11/2014 11:58:33*
%MOIN*%
G04 Gerber Fmt 3.4, Leading zero omitted, Abs format*
%FSLAX34Y34*%
G01*
G70*
G90*
G04 APERTURE LIST*
%ADD10C,0.00590551*%
%ADD11R,0.055X0.055*%
%ADD12C,0.055*%
%ADD13R,0.0511811X0.0511811*%
%ADD14C,0.0511811*%
%ADD15C,0.06*%
%ADD16R,0.06X0.06*%
%ADD17C,0.056*%
%ADD18C,0.07*%
%ADD19R,0.07X0.07*%
%ADD20C,0.03*%
%ADD21C,0.01*%
G04 APERTURE END LIST*
G54D10*
G54D11*
X73350Y-31400D03*
G54D12*
X73350Y-32400D03*
X73350Y-33400D03*
X73350Y-34400D03*
X73350Y-35400D03*
X73350Y-36400D03*
G54D13*
X67088Y-44603D03*
G54D14*
X75750Y-44603D03*
X67088Y-45390D03*
X75750Y-45390D03*
X67088Y-46177D03*
X75750Y-46177D03*
X67088Y-46965D03*
X75750Y-46965D03*
X67088Y-47752D03*
X75750Y-47752D03*
X67088Y-48540D03*
X75750Y-48540D03*
X67088Y-49327D03*
X75750Y-49327D03*
X67088Y-50114D03*
X75750Y-50114D03*
X67088Y-50902D03*
X75750Y-50902D03*
X67088Y-51689D03*
X75750Y-51689D03*
G54D15*
X59250Y-29050D03*
X59250Y-33050D03*
X66700Y-31300D03*
X62700Y-31300D03*
X50900Y-46700D03*
X50900Y-42700D03*
X52900Y-44800D03*
X52900Y-40800D03*
G54D16*
X60500Y-27300D03*
G54D15*
X61500Y-27300D03*
X62500Y-27300D03*
X63500Y-27300D03*
X64500Y-27300D03*
X65500Y-27300D03*
G54D11*
X55000Y-46700D03*
G54D12*
X54000Y-46700D03*
G54D11*
X56750Y-44800D03*
G54D12*
X55750Y-44800D03*
G54D17*
X58100Y-40050D03*
X58100Y-42050D03*
G54D12*
X60500Y-34050D03*
X60500Y-35050D03*
X60500Y-36050D03*
X60500Y-37050D03*
X60500Y-38050D03*
X60500Y-39050D03*
X60500Y-40050D03*
X60500Y-41050D03*
X60500Y-42050D03*
X60500Y-43050D03*
X60500Y-44050D03*
X60500Y-45050D03*
X60500Y-46050D03*
G54D11*
X60500Y-33050D03*
G54D12*
X63500Y-46050D03*
X63500Y-45050D03*
X63500Y-44050D03*
X63500Y-43050D03*
X63500Y-42050D03*
X63500Y-41050D03*
X63500Y-40050D03*
X63500Y-39050D03*
X63500Y-38050D03*
X63500Y-37050D03*
X63500Y-36050D03*
X63500Y-35050D03*
X63500Y-34050D03*
X63500Y-33050D03*
X54950Y-42050D03*
X54950Y-40050D03*
X56200Y-40050D03*
X56200Y-38050D03*
X60500Y-49400D03*
X60500Y-47400D03*
X64950Y-40700D03*
X64950Y-42700D03*
G54D11*
X61750Y-29750D03*
G54D12*
X62750Y-29750D03*
G54D18*
X53200Y-28050D03*
X53200Y-29050D03*
G54D19*
X53200Y-30050D03*
G54D20*
X63500Y-41050D02*
X62200Y-41050D01*
X61900Y-32100D02*
X62700Y-31300D01*
X61900Y-40750D02*
X61900Y-32100D01*
X62200Y-41050D02*
X61900Y-40750D01*
X52900Y-40800D02*
X52900Y-35850D01*
X56450Y-32300D02*
X56450Y-29050D01*
X52900Y-35850D02*
X56450Y-32300D01*
X53200Y-29050D02*
X56450Y-29050D01*
X56450Y-29050D02*
X59250Y-29050D01*
X67088Y-44603D02*
X67088Y-42838D01*
X67088Y-42838D02*
X64950Y-40700D01*
X64950Y-40700D02*
X63850Y-40700D01*
X63850Y-40700D02*
X63500Y-41050D01*
X64950Y-40700D02*
X67050Y-40700D01*
X67050Y-40700D02*
X73350Y-34400D01*
X62700Y-31300D02*
X62700Y-29800D01*
X62700Y-29800D02*
X62750Y-29750D01*
X62750Y-29750D02*
X62750Y-28550D01*
X62750Y-28550D02*
X61500Y-27300D01*
X61500Y-27300D02*
X61500Y-26800D01*
X61500Y-26800D02*
X61200Y-26500D01*
X61200Y-26500D02*
X59750Y-26500D01*
X59250Y-27000D02*
X59250Y-29050D01*
X59750Y-26500D02*
X59250Y-27000D01*
X50900Y-42700D02*
X50900Y-41750D01*
X51850Y-40800D02*
X52900Y-40800D01*
X50900Y-41750D02*
X51850Y-40800D01*
X60500Y-27300D02*
X60500Y-33050D01*
X60500Y-33050D02*
X59250Y-33050D01*
X63500Y-34050D02*
X63850Y-34050D01*
X64500Y-28400D02*
X64500Y-27300D01*
X65350Y-29250D02*
X64500Y-28400D01*
X65350Y-32550D02*
X65350Y-29250D01*
X63850Y-34050D02*
X65350Y-32550D01*
X63500Y-27300D02*
X63500Y-28700D01*
X64400Y-32150D02*
X63500Y-33050D01*
X64400Y-29600D02*
X64400Y-32150D01*
X63500Y-28700D02*
X64400Y-29600D01*
X67088Y-45390D02*
X66340Y-45390D01*
X64000Y-43050D02*
X63500Y-43050D01*
X66340Y-45390D02*
X64000Y-43050D01*
X63500Y-39050D02*
X65700Y-39050D01*
X65700Y-39050D02*
X73350Y-31400D01*
X63500Y-40050D02*
X65700Y-40050D01*
X65700Y-40050D02*
X73350Y-32400D01*
X67088Y-46177D02*
X66172Y-46177D01*
X64044Y-44050D02*
X63500Y-44050D01*
X66172Y-46177D02*
X64044Y-44050D01*
X60500Y-47400D02*
X60500Y-46050D01*
X56200Y-40050D02*
X58100Y-40050D01*
X58100Y-40050D02*
X59100Y-41050D01*
X59100Y-41050D02*
X60500Y-41050D01*
X60500Y-42050D02*
X58100Y-42050D01*
X54950Y-42050D02*
X58100Y-42050D01*
X66700Y-31300D02*
X66700Y-33550D01*
X65200Y-35050D02*
X63500Y-35050D01*
X66700Y-33550D02*
X65200Y-35050D01*
X56750Y-44800D02*
X58750Y-44800D01*
X58750Y-44800D02*
X60500Y-43050D01*
X55000Y-46700D02*
X57850Y-46700D01*
X57850Y-46700D02*
X60500Y-44050D01*
X52900Y-44800D02*
X55750Y-44800D01*
X50900Y-46700D02*
X54000Y-46700D01*
G54D10*
G36*
X78230Y-53080D02*
X76261Y-53080D01*
X76261Y-47823D01*
X76256Y-47739D01*
X76256Y-46865D01*
X76179Y-46679D01*
X76072Y-46571D01*
X76179Y-46464D01*
X76256Y-46279D01*
X76256Y-46077D01*
X76179Y-45891D01*
X76072Y-45784D01*
X76179Y-45677D01*
X76256Y-45491D01*
X76256Y-45290D01*
X76179Y-45104D01*
X76072Y-44996D01*
X76179Y-44890D01*
X76256Y-44704D01*
X76256Y-44502D01*
X76179Y-44316D01*
X76037Y-44174D01*
X75851Y-44097D01*
X75650Y-44097D01*
X75464Y-44174D01*
X75321Y-44316D01*
X75244Y-44502D01*
X75244Y-44703D01*
X75321Y-44889D01*
X75428Y-44996D01*
X75321Y-45103D01*
X75244Y-45289D01*
X75244Y-45490D01*
X75321Y-45676D01*
X75428Y-45784D01*
X75321Y-45891D01*
X75244Y-46076D01*
X75244Y-46278D01*
X75321Y-46464D01*
X75428Y-46571D01*
X75321Y-46678D01*
X75244Y-46864D01*
X75244Y-47065D01*
X75321Y-47251D01*
X75463Y-47393D01*
X75467Y-47395D01*
X75467Y-47398D01*
X75750Y-47682D01*
X76033Y-47398D01*
X76032Y-47395D01*
X76036Y-47394D01*
X76179Y-47252D01*
X76256Y-47066D01*
X76256Y-46865D01*
X76256Y-47739D01*
X76249Y-47623D01*
X76195Y-47491D01*
X76104Y-47469D01*
X75821Y-47752D01*
X76104Y-48035D01*
X76195Y-48014D01*
X76261Y-47823D01*
X76261Y-53080D01*
X76256Y-53080D01*
X76256Y-51589D01*
X76179Y-51403D01*
X76072Y-51296D01*
X76179Y-51189D01*
X76256Y-51003D01*
X76256Y-50802D01*
X76179Y-50616D01*
X76072Y-50508D01*
X76179Y-50401D01*
X76256Y-50216D01*
X76256Y-50014D01*
X76179Y-49828D01*
X76072Y-49721D01*
X76179Y-49614D01*
X76256Y-49428D01*
X76256Y-49227D01*
X76179Y-49041D01*
X76072Y-48933D01*
X76179Y-48827D01*
X76256Y-48641D01*
X76256Y-48439D01*
X76179Y-48253D01*
X76037Y-48111D01*
X76032Y-48109D01*
X76033Y-48106D01*
X75750Y-47823D01*
X75679Y-47894D01*
X75679Y-47752D01*
X75396Y-47469D01*
X75305Y-47491D01*
X75239Y-47681D01*
X75251Y-47882D01*
X75305Y-48014D01*
X75396Y-48035D01*
X75679Y-47752D01*
X75679Y-47894D01*
X75467Y-48106D01*
X75467Y-48109D01*
X75464Y-48111D01*
X75321Y-48253D01*
X75244Y-48439D01*
X75244Y-48640D01*
X75321Y-48826D01*
X75428Y-48933D01*
X75321Y-49040D01*
X75244Y-49226D01*
X75244Y-49427D01*
X75321Y-49613D01*
X75428Y-49721D01*
X75321Y-49828D01*
X75244Y-50013D01*
X75244Y-50215D01*
X75321Y-50401D01*
X75428Y-50508D01*
X75321Y-50615D01*
X75244Y-50801D01*
X75244Y-51002D01*
X75321Y-51188D01*
X75428Y-51296D01*
X75321Y-51402D01*
X75244Y-51588D01*
X75244Y-51789D01*
X75321Y-51975D01*
X75463Y-52118D01*
X75649Y-52195D01*
X75850Y-52195D01*
X76036Y-52118D01*
X76179Y-51976D01*
X76256Y-51790D01*
X76256Y-51589D01*
X76256Y-53080D01*
X73879Y-53080D01*
X73879Y-33475D01*
X73868Y-33267D01*
X73810Y-33127D01*
X73717Y-33102D01*
X73420Y-33400D01*
X73717Y-33697D01*
X73810Y-33672D01*
X73879Y-33475D01*
X73879Y-53080D01*
X73875Y-53080D01*
X73875Y-36296D01*
X73795Y-36103D01*
X73647Y-35955D01*
X73514Y-35899D01*
X73647Y-35845D01*
X73794Y-35697D01*
X73874Y-35504D01*
X73875Y-35296D01*
X73795Y-35103D01*
X73647Y-34955D01*
X73514Y-34899D01*
X73647Y-34845D01*
X73794Y-34697D01*
X73874Y-34504D01*
X73875Y-34296D01*
X73795Y-34103D01*
X73647Y-33955D01*
X73521Y-33902D01*
X73622Y-33860D01*
X73647Y-33767D01*
X73350Y-33470D01*
X73052Y-33767D01*
X73077Y-33860D01*
X73187Y-33899D01*
X73053Y-33954D01*
X72905Y-34102D01*
X72825Y-34295D01*
X72825Y-34359D01*
X66884Y-40300D01*
X66015Y-40300D01*
X72828Y-33486D01*
X72831Y-33532D01*
X72889Y-33672D01*
X72982Y-33697D01*
X73279Y-33400D01*
X73273Y-33394D01*
X73344Y-33323D01*
X73350Y-33329D01*
X73647Y-33032D01*
X73622Y-32939D01*
X73512Y-32900D01*
X73647Y-32845D01*
X73794Y-32697D01*
X73874Y-32504D01*
X73875Y-32296D01*
X73795Y-32103D01*
X73647Y-31955D01*
X73575Y-31925D01*
X73674Y-31925D01*
X73766Y-31887D01*
X73836Y-31816D01*
X73874Y-31724D01*
X73875Y-31625D01*
X73875Y-31075D01*
X73837Y-30983D01*
X73766Y-30913D01*
X73674Y-30875D01*
X73575Y-30874D01*
X73025Y-30874D01*
X72933Y-30912D01*
X72863Y-30983D01*
X72825Y-31075D01*
X72824Y-31174D01*
X72824Y-31359D01*
X65534Y-38650D01*
X63842Y-38650D01*
X63797Y-38605D01*
X63664Y-38549D01*
X63797Y-38495D01*
X63944Y-38347D01*
X64024Y-38154D01*
X64025Y-37946D01*
X63945Y-37753D01*
X63797Y-37605D01*
X63664Y-37549D01*
X63797Y-37495D01*
X63944Y-37347D01*
X64024Y-37154D01*
X64025Y-36946D01*
X63945Y-36753D01*
X63797Y-36605D01*
X63664Y-36549D01*
X63797Y-36495D01*
X63944Y-36347D01*
X64024Y-36154D01*
X64025Y-35946D01*
X63945Y-35753D01*
X63797Y-35605D01*
X63664Y-35549D01*
X63797Y-35495D01*
X63842Y-35450D01*
X65200Y-35450D01*
X65200Y-35449D01*
X65327Y-35424D01*
X65353Y-35419D01*
X65353Y-35419D01*
X65482Y-35332D01*
X66982Y-33832D01*
X66982Y-33832D01*
X67040Y-33746D01*
X67069Y-33703D01*
X67069Y-33703D01*
X67099Y-33550D01*
X67100Y-33550D01*
X67100Y-31677D01*
X67165Y-31611D01*
X67249Y-31409D01*
X67250Y-31191D01*
X67166Y-30988D01*
X67011Y-30834D01*
X66809Y-30750D01*
X66591Y-30749D01*
X66388Y-30833D01*
X66234Y-30988D01*
X66150Y-31190D01*
X66149Y-31408D01*
X66233Y-31611D01*
X66300Y-31677D01*
X66300Y-33384D01*
X65034Y-34650D01*
X63842Y-34650D01*
X63797Y-34605D01*
X63664Y-34549D01*
X63797Y-34495D01*
X63842Y-34450D01*
X63850Y-34450D01*
X63850Y-34449D01*
X63977Y-34424D01*
X64003Y-34419D01*
X64003Y-34419D01*
X64132Y-34332D01*
X65632Y-32832D01*
X65632Y-32832D01*
X65690Y-32746D01*
X65719Y-32703D01*
X65719Y-32703D01*
X65749Y-32550D01*
X65750Y-32550D01*
X65750Y-29250D01*
X65724Y-29122D01*
X65719Y-29096D01*
X65719Y-29096D01*
X65632Y-28967D01*
X65632Y-28967D01*
X64900Y-28234D01*
X64900Y-27677D01*
X64965Y-27611D01*
X64999Y-27530D01*
X65033Y-27611D01*
X65188Y-27765D01*
X65390Y-27849D01*
X65608Y-27850D01*
X65811Y-27766D01*
X65965Y-27611D01*
X66049Y-27409D01*
X66050Y-27191D01*
X65966Y-26988D01*
X65811Y-26834D01*
X65609Y-26750D01*
X65391Y-26749D01*
X65188Y-26833D01*
X65034Y-26988D01*
X65000Y-27069D01*
X64966Y-26988D01*
X64811Y-26834D01*
X64609Y-26750D01*
X64391Y-26749D01*
X64188Y-26833D01*
X64034Y-26988D01*
X64000Y-27069D01*
X63966Y-26988D01*
X63811Y-26834D01*
X63609Y-26750D01*
X63391Y-26749D01*
X63188Y-26833D01*
X63034Y-26988D01*
X63002Y-27063D01*
X62981Y-27012D01*
X62885Y-26984D01*
X62815Y-27055D01*
X62815Y-26914D01*
X62787Y-26818D01*
X62581Y-26745D01*
X62363Y-26756D01*
X62212Y-26818D01*
X62184Y-26914D01*
X62500Y-27229D01*
X62815Y-26914D01*
X62815Y-27055D01*
X62570Y-27300D01*
X62885Y-27615D01*
X62981Y-27587D01*
X63000Y-27532D01*
X63033Y-27611D01*
X63100Y-27677D01*
X63100Y-28367D01*
X63032Y-28267D01*
X63032Y-28267D01*
X62610Y-27845D01*
X62636Y-27843D01*
X62787Y-27781D01*
X62815Y-27685D01*
X62500Y-27370D01*
X62494Y-27376D01*
X62423Y-27305D01*
X62429Y-27300D01*
X62114Y-26984D01*
X62018Y-27012D01*
X61999Y-27067D01*
X61966Y-26988D01*
X61900Y-26922D01*
X61900Y-26800D01*
X61899Y-26799D01*
X61869Y-26646D01*
X61869Y-26646D01*
X61840Y-26603D01*
X61782Y-26517D01*
X61782Y-26517D01*
X61482Y-26217D01*
X61353Y-26130D01*
X61327Y-26125D01*
X61200Y-26100D01*
X59750Y-26100D01*
X59596Y-26130D01*
X59553Y-26159D01*
X59467Y-26217D01*
X58967Y-26717D01*
X58880Y-26846D01*
X58875Y-26872D01*
X58850Y-27000D01*
X58850Y-28650D01*
X56450Y-28650D01*
X53804Y-28650D01*
X53804Y-28143D01*
X53794Y-27905D01*
X53722Y-27732D01*
X53622Y-27698D01*
X53551Y-27769D01*
X53551Y-27627D01*
X53517Y-27527D01*
X53293Y-27445D01*
X53055Y-27455D01*
X52882Y-27527D01*
X52848Y-27627D01*
X53200Y-27979D01*
X53551Y-27627D01*
X53551Y-27769D01*
X53270Y-28050D01*
X53622Y-28401D01*
X53722Y-28367D01*
X53804Y-28143D01*
X53804Y-28650D01*
X53648Y-28650D01*
X53540Y-28541D01*
X53529Y-28537D01*
X53551Y-28472D01*
X53200Y-28120D01*
X53129Y-28191D01*
X53129Y-28050D01*
X52777Y-27698D01*
X52677Y-27732D01*
X52595Y-27956D01*
X52605Y-28194D01*
X52677Y-28367D01*
X52777Y-28401D01*
X53129Y-28050D01*
X53129Y-28191D01*
X52848Y-28472D01*
X52870Y-28537D01*
X52860Y-28541D01*
X52691Y-28709D01*
X52600Y-28930D01*
X52599Y-29168D01*
X52691Y-29389D01*
X52765Y-29464D01*
X52708Y-29487D01*
X52638Y-29558D01*
X52600Y-29650D01*
X52599Y-29749D01*
X52599Y-30449D01*
X52637Y-30541D01*
X52708Y-30611D01*
X52800Y-30649D01*
X52899Y-30650D01*
X53599Y-30650D01*
X53691Y-30612D01*
X53761Y-30541D01*
X53799Y-30449D01*
X53800Y-30350D01*
X53800Y-29650D01*
X53762Y-29558D01*
X53691Y-29488D01*
X53634Y-29464D01*
X53648Y-29450D01*
X56050Y-29450D01*
X56050Y-32134D01*
X52617Y-35567D01*
X52530Y-35696D01*
X52525Y-35722D01*
X52500Y-35850D01*
X52500Y-40400D01*
X51850Y-40400D01*
X51696Y-40430D01*
X51653Y-40459D01*
X51567Y-40517D01*
X50617Y-41467D01*
X50530Y-41596D01*
X50525Y-41622D01*
X50500Y-41750D01*
X50500Y-42322D01*
X50434Y-42388D01*
X50350Y-42590D01*
X50349Y-42808D01*
X50433Y-43011D01*
X50588Y-43165D01*
X50790Y-43249D01*
X51008Y-43250D01*
X51211Y-43166D01*
X51365Y-43011D01*
X51449Y-42809D01*
X51450Y-42591D01*
X51366Y-42388D01*
X51300Y-42322D01*
X51300Y-41915D01*
X52015Y-41200D01*
X52522Y-41200D01*
X52588Y-41265D01*
X52790Y-41349D01*
X53008Y-41350D01*
X53211Y-41266D01*
X53365Y-41111D01*
X53449Y-40909D01*
X53450Y-40691D01*
X53366Y-40488D01*
X53300Y-40422D01*
X53300Y-36015D01*
X56732Y-32582D01*
X56732Y-32582D01*
X56790Y-32496D01*
X56819Y-32453D01*
X56819Y-32453D01*
X56849Y-32300D01*
X56850Y-32300D01*
X56850Y-29450D01*
X58872Y-29450D01*
X58938Y-29515D01*
X59140Y-29599D01*
X59358Y-29600D01*
X59561Y-29516D01*
X59715Y-29361D01*
X59799Y-29159D01*
X59800Y-28941D01*
X59716Y-28738D01*
X59650Y-28672D01*
X59650Y-27165D01*
X59915Y-26900D01*
X59970Y-26900D01*
X59950Y-26950D01*
X59949Y-27049D01*
X59949Y-27649D01*
X59987Y-27741D01*
X60058Y-27811D01*
X60100Y-27829D01*
X60100Y-32556D01*
X60083Y-32562D01*
X60013Y-32633D01*
X60006Y-32650D01*
X59627Y-32650D01*
X59561Y-32584D01*
X59359Y-32500D01*
X59141Y-32499D01*
X58938Y-32583D01*
X58784Y-32738D01*
X58700Y-32940D01*
X58699Y-33158D01*
X58783Y-33361D01*
X58938Y-33515D01*
X59140Y-33599D01*
X59358Y-33600D01*
X59561Y-33516D01*
X59627Y-33450D01*
X60006Y-33450D01*
X60012Y-33466D01*
X60083Y-33536D01*
X60175Y-33574D01*
X60274Y-33575D01*
X60274Y-33575D01*
X60203Y-33604D01*
X60055Y-33752D01*
X59975Y-33945D01*
X59974Y-34153D01*
X60054Y-34347D01*
X60202Y-34494D01*
X60335Y-34550D01*
X60203Y-34604D01*
X60055Y-34752D01*
X59975Y-34945D01*
X59974Y-35153D01*
X60054Y-35347D01*
X60202Y-35494D01*
X60335Y-35550D01*
X60203Y-35604D01*
X60055Y-35752D01*
X59975Y-35945D01*
X59974Y-36153D01*
X60054Y-36347D01*
X60202Y-36494D01*
X60335Y-36550D01*
X60203Y-36604D01*
X60055Y-36752D01*
X59975Y-36945D01*
X59974Y-37153D01*
X60054Y-37347D01*
X60202Y-37494D01*
X60335Y-37550D01*
X60203Y-37604D01*
X60055Y-37752D01*
X59975Y-37945D01*
X59974Y-38153D01*
X60054Y-38347D01*
X60202Y-38494D01*
X60335Y-38550D01*
X60203Y-38604D01*
X60055Y-38752D01*
X59975Y-38945D01*
X59974Y-39153D01*
X60054Y-39347D01*
X60202Y-39494D01*
X60328Y-39547D01*
X60227Y-39589D01*
X60202Y-39682D01*
X60500Y-39979D01*
X60797Y-39682D01*
X60772Y-39589D01*
X60662Y-39550D01*
X60797Y-39495D01*
X60944Y-39347D01*
X61024Y-39154D01*
X61025Y-38946D01*
X60945Y-38753D01*
X60797Y-38605D01*
X60664Y-38549D01*
X60797Y-38495D01*
X60944Y-38347D01*
X61024Y-38154D01*
X61025Y-37946D01*
X60945Y-37753D01*
X60797Y-37605D01*
X60664Y-37549D01*
X60797Y-37495D01*
X60944Y-37347D01*
X61024Y-37154D01*
X61025Y-36946D01*
X60945Y-36753D01*
X60797Y-36605D01*
X60664Y-36549D01*
X60797Y-36495D01*
X60944Y-36347D01*
X61024Y-36154D01*
X61025Y-35946D01*
X60945Y-35753D01*
X60797Y-35605D01*
X60664Y-35549D01*
X60797Y-35495D01*
X60944Y-35347D01*
X61024Y-35154D01*
X61025Y-34946D01*
X60945Y-34753D01*
X60797Y-34605D01*
X60664Y-34549D01*
X60797Y-34495D01*
X60944Y-34347D01*
X61024Y-34154D01*
X61025Y-33946D01*
X60945Y-33753D01*
X60797Y-33605D01*
X60725Y-33575D01*
X60824Y-33575D01*
X60916Y-33537D01*
X60986Y-33466D01*
X61024Y-33374D01*
X61025Y-33275D01*
X61025Y-32725D01*
X60987Y-32633D01*
X60916Y-32563D01*
X60900Y-32556D01*
X60900Y-27829D01*
X60941Y-27812D01*
X61011Y-27741D01*
X61049Y-27649D01*
X61049Y-27627D01*
X61188Y-27765D01*
X61390Y-27849D01*
X61484Y-27849D01*
X62350Y-28715D01*
X62350Y-29407D01*
X62305Y-29452D01*
X62275Y-29524D01*
X62275Y-29524D01*
X62274Y-29425D01*
X62236Y-29333D01*
X62166Y-29262D01*
X62074Y-29224D01*
X61862Y-29225D01*
X61800Y-29287D01*
X61800Y-29700D01*
X61807Y-29700D01*
X61807Y-29800D01*
X61800Y-29800D01*
X61800Y-30212D01*
X61862Y-30275D01*
X62074Y-30275D01*
X62166Y-30237D01*
X62236Y-30166D01*
X62274Y-30074D01*
X62275Y-29975D01*
X62275Y-29975D01*
X62300Y-30035D01*
X62300Y-30922D01*
X62234Y-30988D01*
X62150Y-31190D01*
X62150Y-31284D01*
X61700Y-31734D01*
X61700Y-30212D01*
X61700Y-29800D01*
X61700Y-29700D01*
X61700Y-29287D01*
X61637Y-29225D01*
X61425Y-29224D01*
X61333Y-29262D01*
X61263Y-29333D01*
X61225Y-29425D01*
X61224Y-29524D01*
X61225Y-29637D01*
X61287Y-29700D01*
X61700Y-29700D01*
X61700Y-29800D01*
X61287Y-29800D01*
X61225Y-29862D01*
X61224Y-29975D01*
X61225Y-30074D01*
X61263Y-30166D01*
X61333Y-30237D01*
X61425Y-30275D01*
X61637Y-30275D01*
X61700Y-30212D01*
X61700Y-31734D01*
X61617Y-31817D01*
X61530Y-31946D01*
X61525Y-31972D01*
X61500Y-32100D01*
X61500Y-40750D01*
X61525Y-40877D01*
X61530Y-40903D01*
X61617Y-41032D01*
X61917Y-41332D01*
X61917Y-41332D01*
X62003Y-41390D01*
X62046Y-41419D01*
X62046Y-41419D01*
X62199Y-41449D01*
X62200Y-41450D01*
X63157Y-41450D01*
X63202Y-41494D01*
X63328Y-41547D01*
X63227Y-41589D01*
X63202Y-41682D01*
X63500Y-41979D01*
X63797Y-41682D01*
X63772Y-41589D01*
X63662Y-41550D01*
X63797Y-41495D01*
X63944Y-41347D01*
X64024Y-41154D01*
X64024Y-41100D01*
X64607Y-41100D01*
X64652Y-41144D01*
X64845Y-41224D01*
X64909Y-41224D01*
X66688Y-43004D01*
X66688Y-44137D01*
X66621Y-44205D01*
X66583Y-44297D01*
X66583Y-44396D01*
X66583Y-44908D01*
X66616Y-44990D01*
X66506Y-44990D01*
X65479Y-43964D01*
X65479Y-42775D01*
X65468Y-42567D01*
X65410Y-42427D01*
X65317Y-42402D01*
X65247Y-42473D01*
X65247Y-42332D01*
X65222Y-42239D01*
X65025Y-42170D01*
X64817Y-42181D01*
X64677Y-42239D01*
X64652Y-42332D01*
X64950Y-42629D01*
X65247Y-42332D01*
X65247Y-42473D01*
X65020Y-42700D01*
X65317Y-42997D01*
X65410Y-42972D01*
X65479Y-42775D01*
X65479Y-43964D01*
X65247Y-43731D01*
X64618Y-43102D01*
X64652Y-43067D01*
X64677Y-43160D01*
X64874Y-43229D01*
X65082Y-43218D01*
X65222Y-43160D01*
X65247Y-43067D01*
X64950Y-42770D01*
X64944Y-42776D01*
X64879Y-42711D01*
X64873Y-42705D01*
X64879Y-42700D01*
X64582Y-42402D01*
X64489Y-42427D01*
X64420Y-42624D01*
X64431Y-42832D01*
X64489Y-42972D01*
X64582Y-42997D01*
X64547Y-43031D01*
X64282Y-42767D01*
X64153Y-42680D01*
X64127Y-42675D01*
X64029Y-42655D01*
X64029Y-42125D01*
X64018Y-41917D01*
X63960Y-41777D01*
X63867Y-41752D01*
X63570Y-42050D01*
X63867Y-42347D01*
X63960Y-42322D01*
X64029Y-42125D01*
X64029Y-42655D01*
X64000Y-42650D01*
X63842Y-42650D01*
X63797Y-42605D01*
X63671Y-42552D01*
X63772Y-42510D01*
X63797Y-42417D01*
X63500Y-42120D01*
X63429Y-42191D01*
X63429Y-42050D01*
X63132Y-41752D01*
X63039Y-41777D01*
X62970Y-41974D01*
X62981Y-42182D01*
X63039Y-42322D01*
X63132Y-42347D01*
X63429Y-42050D01*
X63429Y-42191D01*
X63202Y-42417D01*
X63227Y-42510D01*
X63337Y-42549D01*
X63203Y-42604D01*
X63055Y-42752D01*
X62975Y-42945D01*
X62974Y-43153D01*
X63054Y-43347D01*
X63202Y-43494D01*
X63335Y-43550D01*
X63203Y-43604D01*
X63055Y-43752D01*
X62975Y-43945D01*
X62974Y-44153D01*
X63054Y-44347D01*
X63202Y-44494D01*
X63335Y-44550D01*
X63203Y-44604D01*
X63055Y-44752D01*
X62975Y-44945D01*
X62974Y-45153D01*
X63054Y-45347D01*
X63202Y-45494D01*
X63335Y-45550D01*
X63203Y-45604D01*
X63055Y-45752D01*
X62975Y-45945D01*
X62974Y-46153D01*
X63054Y-46347D01*
X63202Y-46494D01*
X63395Y-46574D01*
X63603Y-46575D01*
X63797Y-46495D01*
X63944Y-46347D01*
X64024Y-46154D01*
X64025Y-45946D01*
X63945Y-45753D01*
X63797Y-45605D01*
X63664Y-45549D01*
X63797Y-45495D01*
X63944Y-45347D01*
X64024Y-45154D01*
X64025Y-44946D01*
X63945Y-44753D01*
X63797Y-44605D01*
X63664Y-44549D01*
X63797Y-44495D01*
X63842Y-44450D01*
X63878Y-44450D01*
X65889Y-46460D01*
X65889Y-46460D01*
X65975Y-46518D01*
X66018Y-46547D01*
X66018Y-46547D01*
X66172Y-46577D01*
X66760Y-46577D01*
X66660Y-46678D01*
X66583Y-46864D01*
X66582Y-47065D01*
X66659Y-47251D01*
X66767Y-47359D01*
X66660Y-47465D01*
X66583Y-47651D01*
X66582Y-47852D01*
X66659Y-48038D01*
X66767Y-48146D01*
X66660Y-48253D01*
X66583Y-48439D01*
X66582Y-48640D01*
X66659Y-48826D01*
X66767Y-48933D01*
X66660Y-49040D01*
X66583Y-49226D01*
X66582Y-49427D01*
X66659Y-49613D01*
X66767Y-49721D01*
X66660Y-49828D01*
X66583Y-50013D01*
X66582Y-50215D01*
X66659Y-50401D01*
X66767Y-50508D01*
X66660Y-50615D01*
X66583Y-50801D01*
X66582Y-51002D01*
X66659Y-51188D01*
X66802Y-51330D01*
X66806Y-51332D01*
X66805Y-51335D01*
X67088Y-51619D01*
X67372Y-51335D01*
X67371Y-51333D01*
X67375Y-51331D01*
X67517Y-51189D01*
X67594Y-51003D01*
X67594Y-50802D01*
X67518Y-50616D01*
X67410Y-50508D01*
X67517Y-50401D01*
X67594Y-50216D01*
X67594Y-50014D01*
X67518Y-49828D01*
X67410Y-49721D01*
X67517Y-49614D01*
X67594Y-49428D01*
X67594Y-49227D01*
X67518Y-49041D01*
X67410Y-48933D01*
X67517Y-48827D01*
X67594Y-48641D01*
X67594Y-48439D01*
X67518Y-48253D01*
X67410Y-48146D01*
X67517Y-48039D01*
X67594Y-47853D01*
X67594Y-47652D01*
X67518Y-47466D01*
X67410Y-47358D01*
X67517Y-47252D01*
X67594Y-47066D01*
X67594Y-46865D01*
X67518Y-46679D01*
X67410Y-46571D01*
X67517Y-46464D01*
X67594Y-46279D01*
X67594Y-46077D01*
X67518Y-45891D01*
X67410Y-45784D01*
X67517Y-45677D01*
X67594Y-45491D01*
X67594Y-45290D01*
X67518Y-45104D01*
X67485Y-45071D01*
X67486Y-45071D01*
X67556Y-45000D01*
X67594Y-44909D01*
X67594Y-44809D01*
X67594Y-44297D01*
X67556Y-44205D01*
X67488Y-44137D01*
X67488Y-42838D01*
X67458Y-42685D01*
X67458Y-42685D01*
X67429Y-42642D01*
X67371Y-42556D01*
X67371Y-42556D01*
X65915Y-41100D01*
X67050Y-41100D01*
X67050Y-41099D01*
X67177Y-41074D01*
X67203Y-41069D01*
X67203Y-41069D01*
X67332Y-40982D01*
X72824Y-35490D01*
X72824Y-35503D01*
X72904Y-35697D01*
X73052Y-35844D01*
X73185Y-35900D01*
X73053Y-35954D01*
X72905Y-36102D01*
X72825Y-36295D01*
X72824Y-36503D01*
X72904Y-36697D01*
X73052Y-36844D01*
X73245Y-36924D01*
X73453Y-36925D01*
X73647Y-36845D01*
X73794Y-36697D01*
X73874Y-36504D01*
X73875Y-36296D01*
X73875Y-53080D01*
X67599Y-53080D01*
X67599Y-51760D01*
X67588Y-51560D01*
X67533Y-51428D01*
X67442Y-51406D01*
X67159Y-51689D01*
X67442Y-51972D01*
X67533Y-51951D01*
X67599Y-51760D01*
X67599Y-53080D01*
X67372Y-53080D01*
X67372Y-52043D01*
X67088Y-51760D01*
X67018Y-51831D01*
X67018Y-51689D01*
X66735Y-51406D01*
X66644Y-51428D01*
X66578Y-51618D01*
X66589Y-51819D01*
X66644Y-51951D01*
X66735Y-51972D01*
X67018Y-51689D01*
X67018Y-51831D01*
X66805Y-52043D01*
X66827Y-52134D01*
X67017Y-52200D01*
X67218Y-52189D01*
X67350Y-52134D01*
X67372Y-52043D01*
X67372Y-53080D01*
X61029Y-53080D01*
X61029Y-49475D01*
X61029Y-40125D01*
X61018Y-39917D01*
X60960Y-39777D01*
X60867Y-39752D01*
X60570Y-40050D01*
X60867Y-40347D01*
X60960Y-40322D01*
X61029Y-40125D01*
X61029Y-49475D01*
X61025Y-49387D01*
X61025Y-47296D01*
X60945Y-47103D01*
X60900Y-47057D01*
X60900Y-46392D01*
X60944Y-46347D01*
X61024Y-46154D01*
X61025Y-45946D01*
X60945Y-45753D01*
X60797Y-45605D01*
X60664Y-45549D01*
X60797Y-45495D01*
X60944Y-45347D01*
X61024Y-45154D01*
X61025Y-44946D01*
X60945Y-44753D01*
X60797Y-44605D01*
X60664Y-44549D01*
X60797Y-44495D01*
X60944Y-44347D01*
X61024Y-44154D01*
X61025Y-43946D01*
X60945Y-43753D01*
X60797Y-43605D01*
X60664Y-43549D01*
X60797Y-43495D01*
X60944Y-43347D01*
X61024Y-43154D01*
X61025Y-42946D01*
X60945Y-42753D01*
X60797Y-42605D01*
X60664Y-42549D01*
X60797Y-42495D01*
X60944Y-42347D01*
X61024Y-42154D01*
X61025Y-41946D01*
X60945Y-41753D01*
X60797Y-41605D01*
X60664Y-41549D01*
X60797Y-41495D01*
X60944Y-41347D01*
X61024Y-41154D01*
X61025Y-40946D01*
X60945Y-40753D01*
X60797Y-40605D01*
X60671Y-40552D01*
X60772Y-40510D01*
X60797Y-40417D01*
X60500Y-40120D01*
X60429Y-40191D01*
X60429Y-40050D01*
X60132Y-39752D01*
X60039Y-39777D01*
X59970Y-39974D01*
X59981Y-40182D01*
X60039Y-40322D01*
X60132Y-40347D01*
X60429Y-40050D01*
X60429Y-40191D01*
X60202Y-40417D01*
X60227Y-40510D01*
X60337Y-40549D01*
X60203Y-40604D01*
X60157Y-40650D01*
X59265Y-40650D01*
X58630Y-40014D01*
X58630Y-39945D01*
X58549Y-39750D01*
X58400Y-39600D01*
X58205Y-39520D01*
X57995Y-39519D01*
X57800Y-39600D01*
X57750Y-39650D01*
X56729Y-39650D01*
X56729Y-38125D01*
X56718Y-37917D01*
X56660Y-37777D01*
X56567Y-37752D01*
X56497Y-37823D01*
X56497Y-37682D01*
X56472Y-37589D01*
X56275Y-37520D01*
X56067Y-37531D01*
X55927Y-37589D01*
X55902Y-37682D01*
X56200Y-37979D01*
X56497Y-37682D01*
X56497Y-37823D01*
X56270Y-38050D01*
X56567Y-38347D01*
X56660Y-38322D01*
X56729Y-38125D01*
X56729Y-39650D01*
X56542Y-39650D01*
X56497Y-39605D01*
X56497Y-39604D01*
X56497Y-38417D01*
X56200Y-38120D01*
X56129Y-38191D01*
X56129Y-38050D01*
X55832Y-37752D01*
X55739Y-37777D01*
X55670Y-37974D01*
X55681Y-38182D01*
X55739Y-38322D01*
X55832Y-38347D01*
X56129Y-38050D01*
X56129Y-38191D01*
X55902Y-38417D01*
X55927Y-38510D01*
X56124Y-38579D01*
X56332Y-38568D01*
X56472Y-38510D01*
X56497Y-38417D01*
X56497Y-39604D01*
X56304Y-39525D01*
X56096Y-39524D01*
X55903Y-39604D01*
X55755Y-39752D01*
X55675Y-39945D01*
X55674Y-40153D01*
X55754Y-40347D01*
X55902Y-40494D01*
X56095Y-40574D01*
X56303Y-40575D01*
X56497Y-40495D01*
X56542Y-40450D01*
X57750Y-40450D01*
X57799Y-40499D01*
X57994Y-40579D01*
X58064Y-40579D01*
X58817Y-41332D01*
X58817Y-41332D01*
X58903Y-41390D01*
X58946Y-41419D01*
X58946Y-41419D01*
X59100Y-41450D01*
X60157Y-41450D01*
X60202Y-41494D01*
X60335Y-41550D01*
X60203Y-41604D01*
X60157Y-41650D01*
X58449Y-41650D01*
X58400Y-41600D01*
X58205Y-41520D01*
X57995Y-41519D01*
X57800Y-41600D01*
X57750Y-41650D01*
X55479Y-41650D01*
X55479Y-40125D01*
X55468Y-39917D01*
X55410Y-39777D01*
X55317Y-39752D01*
X55247Y-39823D01*
X55247Y-39682D01*
X55222Y-39589D01*
X55025Y-39520D01*
X54817Y-39531D01*
X54677Y-39589D01*
X54652Y-39682D01*
X54950Y-39979D01*
X55247Y-39682D01*
X55247Y-39823D01*
X55020Y-40050D01*
X55317Y-40347D01*
X55410Y-40322D01*
X55479Y-40125D01*
X55479Y-41650D01*
X55292Y-41650D01*
X55247Y-41605D01*
X55247Y-41604D01*
X55247Y-40417D01*
X54950Y-40120D01*
X54879Y-40191D01*
X54879Y-40050D01*
X54582Y-39752D01*
X54489Y-39777D01*
X54420Y-39974D01*
X54431Y-40182D01*
X54489Y-40322D01*
X54582Y-40347D01*
X54879Y-40050D01*
X54879Y-40191D01*
X54652Y-40417D01*
X54677Y-40510D01*
X54874Y-40579D01*
X55082Y-40568D01*
X55222Y-40510D01*
X55247Y-40417D01*
X55247Y-41604D01*
X55054Y-41525D01*
X54846Y-41524D01*
X54653Y-41604D01*
X54505Y-41752D01*
X54425Y-41945D01*
X54424Y-42153D01*
X54504Y-42347D01*
X54652Y-42494D01*
X54845Y-42574D01*
X55053Y-42575D01*
X55247Y-42495D01*
X55292Y-42450D01*
X57750Y-42450D01*
X57799Y-42499D01*
X57994Y-42579D01*
X58204Y-42580D01*
X58399Y-42499D01*
X58449Y-42450D01*
X60157Y-42450D01*
X60202Y-42494D01*
X60335Y-42550D01*
X60203Y-42604D01*
X60055Y-42752D01*
X59975Y-42945D01*
X59975Y-43009D01*
X58584Y-44400D01*
X57243Y-44400D01*
X57237Y-44383D01*
X57166Y-44313D01*
X57074Y-44275D01*
X56975Y-44274D01*
X56425Y-44274D01*
X56333Y-44312D01*
X56263Y-44383D01*
X56225Y-44475D01*
X56224Y-44574D01*
X56224Y-44574D01*
X56195Y-44503D01*
X56047Y-44355D01*
X55854Y-44275D01*
X55646Y-44274D01*
X55453Y-44354D01*
X55407Y-44400D01*
X53277Y-44400D01*
X53211Y-44334D01*
X53009Y-44250D01*
X52791Y-44249D01*
X52588Y-44333D01*
X52434Y-44488D01*
X52350Y-44690D01*
X52349Y-44908D01*
X52433Y-45111D01*
X52588Y-45265D01*
X52790Y-45349D01*
X53008Y-45350D01*
X53211Y-45266D01*
X53277Y-45200D01*
X55407Y-45200D01*
X55452Y-45244D01*
X55645Y-45324D01*
X55853Y-45325D01*
X56047Y-45245D01*
X56194Y-45097D01*
X56224Y-45025D01*
X56224Y-45124D01*
X56262Y-45216D01*
X56333Y-45286D01*
X56425Y-45324D01*
X56524Y-45325D01*
X57074Y-45325D01*
X57166Y-45287D01*
X57236Y-45216D01*
X57243Y-45200D01*
X58750Y-45200D01*
X58750Y-45199D01*
X58792Y-45191D01*
X57684Y-46300D01*
X55493Y-46300D01*
X55487Y-46283D01*
X55416Y-46213D01*
X55324Y-46175D01*
X55225Y-46174D01*
X54675Y-46174D01*
X54583Y-46212D01*
X54513Y-46283D01*
X54475Y-46375D01*
X54474Y-46474D01*
X54474Y-46474D01*
X54445Y-46403D01*
X54297Y-46255D01*
X54104Y-46175D01*
X53896Y-46174D01*
X53703Y-46254D01*
X53657Y-46300D01*
X51277Y-46300D01*
X51211Y-46234D01*
X51009Y-46150D01*
X50791Y-46149D01*
X50588Y-46233D01*
X50434Y-46388D01*
X50350Y-46590D01*
X50349Y-46808D01*
X50433Y-47011D01*
X50588Y-47165D01*
X50790Y-47249D01*
X51008Y-47250D01*
X51211Y-47166D01*
X51277Y-47100D01*
X53657Y-47100D01*
X53702Y-47144D01*
X53895Y-47224D01*
X54103Y-47225D01*
X54297Y-47145D01*
X54444Y-46997D01*
X54474Y-46925D01*
X54474Y-47024D01*
X54512Y-47116D01*
X54583Y-47186D01*
X54675Y-47224D01*
X54774Y-47225D01*
X55324Y-47225D01*
X55416Y-47187D01*
X55486Y-47116D01*
X55493Y-47100D01*
X57850Y-47100D01*
X57850Y-47099D01*
X57977Y-47074D01*
X58003Y-47069D01*
X58003Y-47069D01*
X58132Y-46982D01*
X59974Y-45140D01*
X59974Y-45153D01*
X60054Y-45347D01*
X60202Y-45494D01*
X60335Y-45550D01*
X60203Y-45604D01*
X60055Y-45752D01*
X59975Y-45945D01*
X59974Y-46153D01*
X60054Y-46347D01*
X60100Y-46392D01*
X60100Y-47057D01*
X60055Y-47102D01*
X59975Y-47295D01*
X59974Y-47503D01*
X60054Y-47697D01*
X60202Y-47844D01*
X60395Y-47924D01*
X60603Y-47925D01*
X60797Y-47845D01*
X60944Y-47697D01*
X61024Y-47504D01*
X61025Y-47296D01*
X61025Y-49387D01*
X61018Y-49267D01*
X60960Y-49127D01*
X60867Y-49102D01*
X60797Y-49173D01*
X60797Y-49032D01*
X60772Y-48939D01*
X60575Y-48870D01*
X60367Y-48881D01*
X60227Y-48939D01*
X60202Y-49032D01*
X60500Y-49329D01*
X60797Y-49032D01*
X60797Y-49173D01*
X60570Y-49400D01*
X60867Y-49697D01*
X60960Y-49672D01*
X61029Y-49475D01*
X61029Y-53080D01*
X60797Y-53080D01*
X60797Y-49767D01*
X60500Y-49470D01*
X60429Y-49541D01*
X60429Y-49400D01*
X60132Y-49102D01*
X60039Y-49127D01*
X59970Y-49324D01*
X59981Y-49532D01*
X60039Y-49672D01*
X60132Y-49697D01*
X60429Y-49400D01*
X60429Y-49541D01*
X60202Y-49767D01*
X60227Y-49860D01*
X60424Y-49929D01*
X60632Y-49918D01*
X60772Y-49860D01*
X60797Y-49767D01*
X60797Y-53080D01*
X49169Y-53080D01*
X49169Y-24919D01*
X49350Y-24919D01*
X78230Y-24919D01*
X78230Y-53080D01*
X78230Y-53080D01*
G37*
G54D21*
X78230Y-53080D02*
X76261Y-53080D01*
X76261Y-47823D01*
X76256Y-47739D01*
X76256Y-46865D01*
X76179Y-46679D01*
X76072Y-46571D01*
X76179Y-46464D01*
X76256Y-46279D01*
X76256Y-46077D01*
X76179Y-45891D01*
X76072Y-45784D01*
X76179Y-45677D01*
X76256Y-45491D01*
X76256Y-45290D01*
X76179Y-45104D01*
X76072Y-44996D01*
X76179Y-44890D01*
X76256Y-44704D01*
X76256Y-44502D01*
X76179Y-44316D01*
X76037Y-44174D01*
X75851Y-44097D01*
X75650Y-44097D01*
X75464Y-44174D01*
X75321Y-44316D01*
X75244Y-44502D01*
X75244Y-44703D01*
X75321Y-44889D01*
X75428Y-44996D01*
X75321Y-45103D01*
X75244Y-45289D01*
X75244Y-45490D01*
X75321Y-45676D01*
X75428Y-45784D01*
X75321Y-45891D01*
X75244Y-46076D01*
X75244Y-46278D01*
X75321Y-46464D01*
X75428Y-46571D01*
X75321Y-46678D01*
X75244Y-46864D01*
X75244Y-47065D01*
X75321Y-47251D01*
X75463Y-47393D01*
X75467Y-47395D01*
X75467Y-47398D01*
X75750Y-47682D01*
X76033Y-47398D01*
X76032Y-47395D01*
X76036Y-47394D01*
X76179Y-47252D01*
X76256Y-47066D01*
X76256Y-46865D01*
X76256Y-47739D01*
X76249Y-47623D01*
X76195Y-47491D01*
X76104Y-47469D01*
X75821Y-47752D01*
X76104Y-48035D01*
X76195Y-48014D01*
X76261Y-47823D01*
X76261Y-53080D01*
X76256Y-53080D01*
X76256Y-51589D01*
X76179Y-51403D01*
X76072Y-51296D01*
X76179Y-51189D01*
X76256Y-51003D01*
X76256Y-50802D01*
X76179Y-50616D01*
X76072Y-50508D01*
X76179Y-50401D01*
X76256Y-50216D01*
X76256Y-50014D01*
X76179Y-49828D01*
X76072Y-49721D01*
X76179Y-49614D01*
X76256Y-49428D01*
X76256Y-49227D01*
X76179Y-49041D01*
X76072Y-48933D01*
X76179Y-48827D01*
X76256Y-48641D01*
X76256Y-48439D01*
X76179Y-48253D01*
X76037Y-48111D01*
X76032Y-48109D01*
X76033Y-48106D01*
X75750Y-47823D01*
X75679Y-47894D01*
X75679Y-47752D01*
X75396Y-47469D01*
X75305Y-47491D01*
X75239Y-47681D01*
X75251Y-47882D01*
X75305Y-48014D01*
X75396Y-48035D01*
X75679Y-47752D01*
X75679Y-47894D01*
X75467Y-48106D01*
X75467Y-48109D01*
X75464Y-48111D01*
X75321Y-48253D01*
X75244Y-48439D01*
X75244Y-48640D01*
X75321Y-48826D01*
X75428Y-48933D01*
X75321Y-49040D01*
X75244Y-49226D01*
X75244Y-49427D01*
X75321Y-49613D01*
X75428Y-49721D01*
X75321Y-49828D01*
X75244Y-50013D01*
X75244Y-50215D01*
X75321Y-50401D01*
X75428Y-50508D01*
X75321Y-50615D01*
X75244Y-50801D01*
X75244Y-51002D01*
X75321Y-51188D01*
X75428Y-51296D01*
X75321Y-51402D01*
X75244Y-51588D01*
X75244Y-51789D01*
X75321Y-51975D01*
X75463Y-52118D01*
X75649Y-52195D01*
X75850Y-52195D01*
X76036Y-52118D01*
X76179Y-51976D01*
X76256Y-51790D01*
X76256Y-51589D01*
X76256Y-53080D01*
X73879Y-53080D01*
X73879Y-33475D01*
X73868Y-33267D01*
X73810Y-33127D01*
X73717Y-33102D01*
X73420Y-33400D01*
X73717Y-33697D01*
X73810Y-33672D01*
X73879Y-33475D01*
X73879Y-53080D01*
X73875Y-53080D01*
X73875Y-36296D01*
X73795Y-36103D01*
X73647Y-35955D01*
X73514Y-35899D01*
X73647Y-35845D01*
X73794Y-35697D01*
X73874Y-35504D01*
X73875Y-35296D01*
X73795Y-35103D01*
X73647Y-34955D01*
X73514Y-34899D01*
X73647Y-34845D01*
X73794Y-34697D01*
X73874Y-34504D01*
X73875Y-34296D01*
X73795Y-34103D01*
X73647Y-33955D01*
X73521Y-33902D01*
X73622Y-33860D01*
X73647Y-33767D01*
X73350Y-33470D01*
X73052Y-33767D01*
X73077Y-33860D01*
X73187Y-33899D01*
X73053Y-33954D01*
X72905Y-34102D01*
X72825Y-34295D01*
X72825Y-34359D01*
X66884Y-40300D01*
X66015Y-40300D01*
X72828Y-33486D01*
X72831Y-33532D01*
X72889Y-33672D01*
X72982Y-33697D01*
X73279Y-33400D01*
X73273Y-33394D01*
X73344Y-33323D01*
X73350Y-33329D01*
X73647Y-33032D01*
X73622Y-32939D01*
X73512Y-32900D01*
X73647Y-32845D01*
X73794Y-32697D01*
X73874Y-32504D01*
X73875Y-32296D01*
X73795Y-32103D01*
X73647Y-31955D01*
X73575Y-31925D01*
X73674Y-31925D01*
X73766Y-31887D01*
X73836Y-31816D01*
X73874Y-31724D01*
X73875Y-31625D01*
X73875Y-31075D01*
X73837Y-30983D01*
X73766Y-30913D01*
X73674Y-30875D01*
X73575Y-30874D01*
X73025Y-30874D01*
X72933Y-30912D01*
X72863Y-30983D01*
X72825Y-31075D01*
X72824Y-31174D01*
X72824Y-31359D01*
X65534Y-38650D01*
X63842Y-38650D01*
X63797Y-38605D01*
X63664Y-38549D01*
X63797Y-38495D01*
X63944Y-38347D01*
X64024Y-38154D01*
X64025Y-37946D01*
X63945Y-37753D01*
X63797Y-37605D01*
X63664Y-37549D01*
X63797Y-37495D01*
X63944Y-37347D01*
X64024Y-37154D01*
X64025Y-36946D01*
X63945Y-36753D01*
X63797Y-36605D01*
X63664Y-36549D01*
X63797Y-36495D01*
X63944Y-36347D01*
X64024Y-36154D01*
X64025Y-35946D01*
X63945Y-35753D01*
X63797Y-35605D01*
X63664Y-35549D01*
X63797Y-35495D01*
X63842Y-35450D01*
X65200Y-35450D01*
X65200Y-35449D01*
X65327Y-35424D01*
X65353Y-35419D01*
X65353Y-35419D01*
X65482Y-35332D01*
X66982Y-33832D01*
X66982Y-33832D01*
X67040Y-33746D01*
X67069Y-33703D01*
X67069Y-33703D01*
X67099Y-33550D01*
X67100Y-33550D01*
X67100Y-31677D01*
X67165Y-31611D01*
X67249Y-31409D01*
X67250Y-31191D01*
X67166Y-30988D01*
X67011Y-30834D01*
X66809Y-30750D01*
X66591Y-30749D01*
X66388Y-30833D01*
X66234Y-30988D01*
X66150Y-31190D01*
X66149Y-31408D01*
X66233Y-31611D01*
X66300Y-31677D01*
X66300Y-33384D01*
X65034Y-34650D01*
X63842Y-34650D01*
X63797Y-34605D01*
X63664Y-34549D01*
X63797Y-34495D01*
X63842Y-34450D01*
X63850Y-34450D01*
X63850Y-34449D01*
X63977Y-34424D01*
X64003Y-34419D01*
X64003Y-34419D01*
X64132Y-34332D01*
X65632Y-32832D01*
X65632Y-32832D01*
X65690Y-32746D01*
X65719Y-32703D01*
X65719Y-32703D01*
X65749Y-32550D01*
X65750Y-32550D01*
X65750Y-29250D01*
X65724Y-29122D01*
X65719Y-29096D01*
X65719Y-29096D01*
X65632Y-28967D01*
X65632Y-28967D01*
X64900Y-28234D01*
X64900Y-27677D01*
X64965Y-27611D01*
X64999Y-27530D01*
X65033Y-27611D01*
X65188Y-27765D01*
X65390Y-27849D01*
X65608Y-27850D01*
X65811Y-27766D01*
X65965Y-27611D01*
X66049Y-27409D01*
X66050Y-27191D01*
X65966Y-26988D01*
X65811Y-26834D01*
X65609Y-26750D01*
X65391Y-26749D01*
X65188Y-26833D01*
X65034Y-26988D01*
X65000Y-27069D01*
X64966Y-26988D01*
X64811Y-26834D01*
X64609Y-26750D01*
X64391Y-26749D01*
X64188Y-26833D01*
X64034Y-26988D01*
X64000Y-27069D01*
X63966Y-26988D01*
X63811Y-26834D01*
X63609Y-26750D01*
X63391Y-26749D01*
X63188Y-26833D01*
X63034Y-26988D01*
X63002Y-27063D01*
X62981Y-27012D01*
X62885Y-26984D01*
X62815Y-27055D01*
X62815Y-26914D01*
X62787Y-26818D01*
X62581Y-26745D01*
X62363Y-26756D01*
X62212Y-26818D01*
X62184Y-26914D01*
X62500Y-27229D01*
X62815Y-26914D01*
X62815Y-27055D01*
X62570Y-27300D01*
X62885Y-27615D01*
X62981Y-27587D01*
X63000Y-27532D01*
X63033Y-27611D01*
X63100Y-27677D01*
X63100Y-28367D01*
X63032Y-28267D01*
X63032Y-28267D01*
X62610Y-27845D01*
X62636Y-27843D01*
X62787Y-27781D01*
X62815Y-27685D01*
X62500Y-27370D01*
X62494Y-27376D01*
X62423Y-27305D01*
X62429Y-27300D01*
X62114Y-26984D01*
X62018Y-27012D01*
X61999Y-27067D01*
X61966Y-26988D01*
X61900Y-26922D01*
X61900Y-26800D01*
X61899Y-26799D01*
X61869Y-26646D01*
X61869Y-26646D01*
X61840Y-26603D01*
X61782Y-26517D01*
X61782Y-26517D01*
X61482Y-26217D01*
X61353Y-26130D01*
X61327Y-26125D01*
X61200Y-26100D01*
X59750Y-26100D01*
X59596Y-26130D01*
X59553Y-26159D01*
X59467Y-26217D01*
X58967Y-26717D01*
X58880Y-26846D01*
X58875Y-26872D01*
X58850Y-27000D01*
X58850Y-28650D01*
X56450Y-28650D01*
X53804Y-28650D01*
X53804Y-28143D01*
X53794Y-27905D01*
X53722Y-27732D01*
X53622Y-27698D01*
X53551Y-27769D01*
X53551Y-27627D01*
X53517Y-27527D01*
X53293Y-27445D01*
X53055Y-27455D01*
X52882Y-27527D01*
X52848Y-27627D01*
X53200Y-27979D01*
X53551Y-27627D01*
X53551Y-27769D01*
X53270Y-28050D01*
X53622Y-28401D01*
X53722Y-28367D01*
X53804Y-28143D01*
X53804Y-28650D01*
X53648Y-28650D01*
X53540Y-28541D01*
X53529Y-28537D01*
X53551Y-28472D01*
X53200Y-28120D01*
X53129Y-28191D01*
X53129Y-28050D01*
X52777Y-27698D01*
X52677Y-27732D01*
X52595Y-27956D01*
X52605Y-28194D01*
X52677Y-28367D01*
X52777Y-28401D01*
X53129Y-28050D01*
X53129Y-28191D01*
X52848Y-28472D01*
X52870Y-28537D01*
X52860Y-28541D01*
X52691Y-28709D01*
X52600Y-28930D01*
X52599Y-29168D01*
X52691Y-29389D01*
X52765Y-29464D01*
X52708Y-29487D01*
X52638Y-29558D01*
X52600Y-29650D01*
X52599Y-29749D01*
X52599Y-30449D01*
X52637Y-30541D01*
X52708Y-30611D01*
X52800Y-30649D01*
X52899Y-30650D01*
X53599Y-30650D01*
X53691Y-30612D01*
X53761Y-30541D01*
X53799Y-30449D01*
X53800Y-30350D01*
X53800Y-29650D01*
X53762Y-29558D01*
X53691Y-29488D01*
X53634Y-29464D01*
X53648Y-29450D01*
X56050Y-29450D01*
X56050Y-32134D01*
X52617Y-35567D01*
X52530Y-35696D01*
X52525Y-35722D01*
X52500Y-35850D01*
X52500Y-40400D01*
X51850Y-40400D01*
X51696Y-40430D01*
X51653Y-40459D01*
X51567Y-40517D01*
X50617Y-41467D01*
X50530Y-41596D01*
X50525Y-41622D01*
X50500Y-41750D01*
X50500Y-42322D01*
X50434Y-42388D01*
X50350Y-42590D01*
X50349Y-42808D01*
X50433Y-43011D01*
X50588Y-43165D01*
X50790Y-43249D01*
X51008Y-43250D01*
X51211Y-43166D01*
X51365Y-43011D01*
X51449Y-42809D01*
X51450Y-42591D01*
X51366Y-42388D01*
X51300Y-42322D01*
X51300Y-41915D01*
X52015Y-41200D01*
X52522Y-41200D01*
X52588Y-41265D01*
X52790Y-41349D01*
X53008Y-41350D01*
X53211Y-41266D01*
X53365Y-41111D01*
X53449Y-40909D01*
X53450Y-40691D01*
X53366Y-40488D01*
X53300Y-40422D01*
X53300Y-36015D01*
X56732Y-32582D01*
X56732Y-32582D01*
X56790Y-32496D01*
X56819Y-32453D01*
X56819Y-32453D01*
X56849Y-32300D01*
X56850Y-32300D01*
X56850Y-29450D01*
X58872Y-29450D01*
X58938Y-29515D01*
X59140Y-29599D01*
X59358Y-29600D01*
X59561Y-29516D01*
X59715Y-29361D01*
X59799Y-29159D01*
X59800Y-28941D01*
X59716Y-28738D01*
X59650Y-28672D01*
X59650Y-27165D01*
X59915Y-26900D01*
X59970Y-26900D01*
X59950Y-26950D01*
X59949Y-27049D01*
X59949Y-27649D01*
X59987Y-27741D01*
X60058Y-27811D01*
X60100Y-27829D01*
X60100Y-32556D01*
X60083Y-32562D01*
X60013Y-32633D01*
X60006Y-32650D01*
X59627Y-32650D01*
X59561Y-32584D01*
X59359Y-32500D01*
X59141Y-32499D01*
X58938Y-32583D01*
X58784Y-32738D01*
X58700Y-32940D01*
X58699Y-33158D01*
X58783Y-33361D01*
X58938Y-33515D01*
X59140Y-33599D01*
X59358Y-33600D01*
X59561Y-33516D01*
X59627Y-33450D01*
X60006Y-33450D01*
X60012Y-33466D01*
X60083Y-33536D01*
X60175Y-33574D01*
X60274Y-33575D01*
X60274Y-33575D01*
X60203Y-33604D01*
X60055Y-33752D01*
X59975Y-33945D01*
X59974Y-34153D01*
X60054Y-34347D01*
X60202Y-34494D01*
X60335Y-34550D01*
X60203Y-34604D01*
X60055Y-34752D01*
X59975Y-34945D01*
X59974Y-35153D01*
X60054Y-35347D01*
X60202Y-35494D01*
X60335Y-35550D01*
X60203Y-35604D01*
X60055Y-35752D01*
X59975Y-35945D01*
X59974Y-36153D01*
X60054Y-36347D01*
X60202Y-36494D01*
X60335Y-36550D01*
X60203Y-36604D01*
X60055Y-36752D01*
X59975Y-36945D01*
X59974Y-37153D01*
X60054Y-37347D01*
X60202Y-37494D01*
X60335Y-37550D01*
X60203Y-37604D01*
X60055Y-37752D01*
X59975Y-37945D01*
X59974Y-38153D01*
X60054Y-38347D01*
X60202Y-38494D01*
X60335Y-38550D01*
X60203Y-38604D01*
X60055Y-38752D01*
X59975Y-38945D01*
X59974Y-39153D01*
X60054Y-39347D01*
X60202Y-39494D01*
X60328Y-39547D01*
X60227Y-39589D01*
X60202Y-39682D01*
X60500Y-39979D01*
X60797Y-39682D01*
X60772Y-39589D01*
X60662Y-39550D01*
X60797Y-39495D01*
X60944Y-39347D01*
X61024Y-39154D01*
X61025Y-38946D01*
X60945Y-38753D01*
X60797Y-38605D01*
X60664Y-38549D01*
X60797Y-38495D01*
X60944Y-38347D01*
X61024Y-38154D01*
X61025Y-37946D01*
X60945Y-37753D01*
X60797Y-37605D01*
X60664Y-37549D01*
X60797Y-37495D01*
X60944Y-37347D01*
X61024Y-37154D01*
X61025Y-36946D01*
X60945Y-36753D01*
X60797Y-36605D01*
X60664Y-36549D01*
X60797Y-36495D01*
X60944Y-36347D01*
X61024Y-36154D01*
X61025Y-35946D01*
X60945Y-35753D01*
X60797Y-35605D01*
X60664Y-35549D01*
X60797Y-35495D01*
X60944Y-35347D01*
X61024Y-35154D01*
X61025Y-34946D01*
X60945Y-34753D01*
X60797Y-34605D01*
X60664Y-34549D01*
X60797Y-34495D01*
X60944Y-34347D01*
X61024Y-34154D01*
X61025Y-33946D01*
X60945Y-33753D01*
X60797Y-33605D01*
X60725Y-33575D01*
X60824Y-33575D01*
X60916Y-33537D01*
X60986Y-33466D01*
X61024Y-33374D01*
X61025Y-33275D01*
X61025Y-32725D01*
X60987Y-32633D01*
X60916Y-32563D01*
X60900Y-32556D01*
X60900Y-27829D01*
X60941Y-27812D01*
X61011Y-27741D01*
X61049Y-27649D01*
X61049Y-27627D01*
X61188Y-27765D01*
X61390Y-27849D01*
X61484Y-27849D01*
X62350Y-28715D01*
X62350Y-29407D01*
X62305Y-29452D01*
X62275Y-29524D01*
X62275Y-29524D01*
X62274Y-29425D01*
X62236Y-29333D01*
X62166Y-29262D01*
X62074Y-29224D01*
X61862Y-29225D01*
X61800Y-29287D01*
X61800Y-29700D01*
X61807Y-29700D01*
X61807Y-29800D01*
X61800Y-29800D01*
X61800Y-30212D01*
X61862Y-30275D01*
X62074Y-30275D01*
X62166Y-30237D01*
X62236Y-30166D01*
X62274Y-30074D01*
X62275Y-29975D01*
X62275Y-29975D01*
X62300Y-30035D01*
X62300Y-30922D01*
X62234Y-30988D01*
X62150Y-31190D01*
X62150Y-31284D01*
X61700Y-31734D01*
X61700Y-30212D01*
X61700Y-29800D01*
X61700Y-29700D01*
X61700Y-29287D01*
X61637Y-29225D01*
X61425Y-29224D01*
X61333Y-29262D01*
X61263Y-29333D01*
X61225Y-29425D01*
X61224Y-29524D01*
X61225Y-29637D01*
X61287Y-29700D01*
X61700Y-29700D01*
X61700Y-29800D01*
X61287Y-29800D01*
X61225Y-29862D01*
X61224Y-29975D01*
X61225Y-30074D01*
X61263Y-30166D01*
X61333Y-30237D01*
X61425Y-30275D01*
X61637Y-30275D01*
X61700Y-30212D01*
X61700Y-31734D01*
X61617Y-31817D01*
X61530Y-31946D01*
X61525Y-31972D01*
X61500Y-32100D01*
X61500Y-40750D01*
X61525Y-40877D01*
X61530Y-40903D01*
X61617Y-41032D01*
X61917Y-41332D01*
X61917Y-41332D01*
X62003Y-41390D01*
X62046Y-41419D01*
X62046Y-41419D01*
X62199Y-41449D01*
X62200Y-41450D01*
X63157Y-41450D01*
X63202Y-41494D01*
X63328Y-41547D01*
X63227Y-41589D01*
X63202Y-41682D01*
X63500Y-41979D01*
X63797Y-41682D01*
X63772Y-41589D01*
X63662Y-41550D01*
X63797Y-41495D01*
X63944Y-41347D01*
X64024Y-41154D01*
X64024Y-41100D01*
X64607Y-41100D01*
X64652Y-41144D01*
X64845Y-41224D01*
X64909Y-41224D01*
X66688Y-43004D01*
X66688Y-44137D01*
X66621Y-44205D01*
X66583Y-44297D01*
X66583Y-44396D01*
X66583Y-44908D01*
X66616Y-44990D01*
X66506Y-44990D01*
X65479Y-43964D01*
X65479Y-42775D01*
X65468Y-42567D01*
X65410Y-42427D01*
X65317Y-42402D01*
X65247Y-42473D01*
X65247Y-42332D01*
X65222Y-42239D01*
X65025Y-42170D01*
X64817Y-42181D01*
X64677Y-42239D01*
X64652Y-42332D01*
X64950Y-42629D01*
X65247Y-42332D01*
X65247Y-42473D01*
X65020Y-42700D01*
X65317Y-42997D01*
X65410Y-42972D01*
X65479Y-42775D01*
X65479Y-43964D01*
X65247Y-43731D01*
X64618Y-43102D01*
X64652Y-43067D01*
X64677Y-43160D01*
X64874Y-43229D01*
X65082Y-43218D01*
X65222Y-43160D01*
X65247Y-43067D01*
X64950Y-42770D01*
X64944Y-42776D01*
X64879Y-42711D01*
X64873Y-42705D01*
X64879Y-42700D01*
X64582Y-42402D01*
X64489Y-42427D01*
X64420Y-42624D01*
X64431Y-42832D01*
X64489Y-42972D01*
X64582Y-42997D01*
X64547Y-43031D01*
X64282Y-42767D01*
X64153Y-42680D01*
X64127Y-42675D01*
X64029Y-42655D01*
X64029Y-42125D01*
X64018Y-41917D01*
X63960Y-41777D01*
X63867Y-41752D01*
X63570Y-42050D01*
X63867Y-42347D01*
X63960Y-42322D01*
X64029Y-42125D01*
X64029Y-42655D01*
X64000Y-42650D01*
X63842Y-42650D01*
X63797Y-42605D01*
X63671Y-42552D01*
X63772Y-42510D01*
X63797Y-42417D01*
X63500Y-42120D01*
X63429Y-42191D01*
X63429Y-42050D01*
X63132Y-41752D01*
X63039Y-41777D01*
X62970Y-41974D01*
X62981Y-42182D01*
X63039Y-42322D01*
X63132Y-42347D01*
X63429Y-42050D01*
X63429Y-42191D01*
X63202Y-42417D01*
X63227Y-42510D01*
X63337Y-42549D01*
X63203Y-42604D01*
X63055Y-42752D01*
X62975Y-42945D01*
X62974Y-43153D01*
X63054Y-43347D01*
X63202Y-43494D01*
X63335Y-43550D01*
X63203Y-43604D01*
X63055Y-43752D01*
X62975Y-43945D01*
X62974Y-44153D01*
X63054Y-44347D01*
X63202Y-44494D01*
X63335Y-44550D01*
X63203Y-44604D01*
X63055Y-44752D01*
X62975Y-44945D01*
X62974Y-45153D01*
X63054Y-45347D01*
X63202Y-45494D01*
X63335Y-45550D01*
X63203Y-45604D01*
X63055Y-45752D01*
X62975Y-45945D01*
X62974Y-46153D01*
X63054Y-46347D01*
X63202Y-46494D01*
X63395Y-46574D01*
X63603Y-46575D01*
X63797Y-46495D01*
X63944Y-46347D01*
X64024Y-46154D01*
X64025Y-45946D01*
X63945Y-45753D01*
X63797Y-45605D01*
X63664Y-45549D01*
X63797Y-45495D01*
X63944Y-45347D01*
X64024Y-45154D01*
X64025Y-44946D01*
X63945Y-44753D01*
X63797Y-44605D01*
X63664Y-44549D01*
X63797Y-44495D01*
X63842Y-44450D01*
X63878Y-44450D01*
X65889Y-46460D01*
X65889Y-46460D01*
X65975Y-46518D01*
X66018Y-46547D01*
X66018Y-46547D01*
X66172Y-46577D01*
X66760Y-46577D01*
X66660Y-46678D01*
X66583Y-46864D01*
X66582Y-47065D01*
X66659Y-47251D01*
X66767Y-47359D01*
X66660Y-47465D01*
X66583Y-47651D01*
X66582Y-47852D01*
X66659Y-48038D01*
X66767Y-48146D01*
X66660Y-48253D01*
X66583Y-48439D01*
X66582Y-48640D01*
X66659Y-48826D01*
X66767Y-48933D01*
X66660Y-49040D01*
X66583Y-49226D01*
X66582Y-49427D01*
X66659Y-49613D01*
X66767Y-49721D01*
X66660Y-49828D01*
X66583Y-50013D01*
X66582Y-50215D01*
X66659Y-50401D01*
X66767Y-50508D01*
X66660Y-50615D01*
X66583Y-50801D01*
X66582Y-51002D01*
X66659Y-51188D01*
X66802Y-51330D01*
X66806Y-51332D01*
X66805Y-51335D01*
X67088Y-51619D01*
X67372Y-51335D01*
X67371Y-51333D01*
X67375Y-51331D01*
X67517Y-51189D01*
X67594Y-51003D01*
X67594Y-50802D01*
X67518Y-50616D01*
X67410Y-50508D01*
X67517Y-50401D01*
X67594Y-50216D01*
X67594Y-50014D01*
X67518Y-49828D01*
X67410Y-49721D01*
X67517Y-49614D01*
X67594Y-49428D01*
X67594Y-49227D01*
X67518Y-49041D01*
X67410Y-48933D01*
X67517Y-48827D01*
X67594Y-48641D01*
X67594Y-48439D01*
X67518Y-48253D01*
X67410Y-48146D01*
X67517Y-48039D01*
X67594Y-47853D01*
X67594Y-47652D01*
X67518Y-47466D01*
X67410Y-47358D01*
X67517Y-47252D01*
X67594Y-47066D01*
X67594Y-46865D01*
X67518Y-46679D01*
X67410Y-46571D01*
X67517Y-46464D01*
X67594Y-46279D01*
X67594Y-46077D01*
X67518Y-45891D01*
X67410Y-45784D01*
X67517Y-45677D01*
X67594Y-45491D01*
X67594Y-45290D01*
X67518Y-45104D01*
X67485Y-45071D01*
X67486Y-45071D01*
X67556Y-45000D01*
X67594Y-44909D01*
X67594Y-44809D01*
X67594Y-44297D01*
X67556Y-44205D01*
X67488Y-44137D01*
X67488Y-42838D01*
X67458Y-42685D01*
X67458Y-42685D01*
X67429Y-42642D01*
X67371Y-42556D01*
X67371Y-42556D01*
X65915Y-41100D01*
X67050Y-41100D01*
X67050Y-41099D01*
X67177Y-41074D01*
X67203Y-41069D01*
X67203Y-41069D01*
X67332Y-40982D01*
X72824Y-35490D01*
X72824Y-35503D01*
X72904Y-35697D01*
X73052Y-35844D01*
X73185Y-35900D01*
X73053Y-35954D01*
X72905Y-36102D01*
X72825Y-36295D01*
X72824Y-36503D01*
X72904Y-36697D01*
X73052Y-36844D01*
X73245Y-36924D01*
X73453Y-36925D01*
X73647Y-36845D01*
X73794Y-36697D01*
X73874Y-36504D01*
X73875Y-36296D01*
X73875Y-53080D01*
X67599Y-53080D01*
X67599Y-51760D01*
X67588Y-51560D01*
X67533Y-51428D01*
X67442Y-51406D01*
X67159Y-51689D01*
X67442Y-51972D01*
X67533Y-51951D01*
X67599Y-51760D01*
X67599Y-53080D01*
X67372Y-53080D01*
X67372Y-52043D01*
X67088Y-51760D01*
X67018Y-51831D01*
X67018Y-51689D01*
X66735Y-51406D01*
X66644Y-51428D01*
X66578Y-51618D01*
X66589Y-51819D01*
X66644Y-51951D01*
X66735Y-51972D01*
X67018Y-51689D01*
X67018Y-51831D01*
X66805Y-52043D01*
X66827Y-52134D01*
X67017Y-52200D01*
X67218Y-52189D01*
X67350Y-52134D01*
X67372Y-52043D01*
X67372Y-53080D01*
X61029Y-53080D01*
X61029Y-49475D01*
X61029Y-40125D01*
X61018Y-39917D01*
X60960Y-39777D01*
X60867Y-39752D01*
X60570Y-40050D01*
X60867Y-40347D01*
X60960Y-40322D01*
X61029Y-40125D01*
X61029Y-49475D01*
X61025Y-49387D01*
X61025Y-47296D01*
X60945Y-47103D01*
X60900Y-47057D01*
X60900Y-46392D01*
X60944Y-46347D01*
X61024Y-46154D01*
X61025Y-45946D01*
X60945Y-45753D01*
X60797Y-45605D01*
X60664Y-45549D01*
X60797Y-45495D01*
X60944Y-45347D01*
X61024Y-45154D01*
X61025Y-44946D01*
X60945Y-44753D01*
X60797Y-44605D01*
X60664Y-44549D01*
X60797Y-44495D01*
X60944Y-44347D01*
X61024Y-44154D01*
X61025Y-43946D01*
X60945Y-43753D01*
X60797Y-43605D01*
X60664Y-43549D01*
X60797Y-43495D01*
X60944Y-43347D01*
X61024Y-43154D01*
X61025Y-42946D01*
X60945Y-42753D01*
X60797Y-42605D01*
X60664Y-42549D01*
X60797Y-42495D01*
X60944Y-42347D01*
X61024Y-42154D01*
X61025Y-41946D01*
X60945Y-41753D01*
X60797Y-41605D01*
X60664Y-41549D01*
X60797Y-41495D01*
X60944Y-41347D01*
X61024Y-41154D01*
X61025Y-40946D01*
X60945Y-40753D01*
X60797Y-40605D01*
X60671Y-40552D01*
X60772Y-40510D01*
X60797Y-40417D01*
X60500Y-40120D01*
X60429Y-40191D01*
X60429Y-40050D01*
X60132Y-39752D01*
X60039Y-39777D01*
X59970Y-39974D01*
X59981Y-40182D01*
X60039Y-40322D01*
X60132Y-40347D01*
X60429Y-40050D01*
X60429Y-40191D01*
X60202Y-40417D01*
X60227Y-40510D01*
X60337Y-40549D01*
X60203Y-40604D01*
X60157Y-40650D01*
X59265Y-40650D01*
X58630Y-40014D01*
X58630Y-39945D01*
X58549Y-39750D01*
X58400Y-39600D01*
X58205Y-39520D01*
X57995Y-39519D01*
X57800Y-39600D01*
X57750Y-39650D01*
X56729Y-39650D01*
X56729Y-38125D01*
X56718Y-37917D01*
X56660Y-37777D01*
X56567Y-37752D01*
X56497Y-37823D01*
X56497Y-37682D01*
X56472Y-37589D01*
X56275Y-37520D01*
X56067Y-37531D01*
X55927Y-37589D01*
X55902Y-37682D01*
X56200Y-37979D01*
X56497Y-37682D01*
X56497Y-37823D01*
X56270Y-38050D01*
X56567Y-38347D01*
X56660Y-38322D01*
X56729Y-38125D01*
X56729Y-39650D01*
X56542Y-39650D01*
X56497Y-39605D01*
X56497Y-39604D01*
X56497Y-38417D01*
X56200Y-38120D01*
X56129Y-38191D01*
X56129Y-38050D01*
X55832Y-37752D01*
X55739Y-37777D01*
X55670Y-37974D01*
X55681Y-38182D01*
X55739Y-38322D01*
X55832Y-38347D01*
X56129Y-38050D01*
X56129Y-38191D01*
X55902Y-38417D01*
X55927Y-38510D01*
X56124Y-38579D01*
X56332Y-38568D01*
X56472Y-38510D01*
X56497Y-38417D01*
X56497Y-39604D01*
X56304Y-39525D01*
X56096Y-39524D01*
X55903Y-39604D01*
X55755Y-39752D01*
X55675Y-39945D01*
X55674Y-40153D01*
X55754Y-40347D01*
X55902Y-40494D01*
X56095Y-40574D01*
X56303Y-40575D01*
X56497Y-40495D01*
X56542Y-40450D01*
X57750Y-40450D01*
X57799Y-40499D01*
X57994Y-40579D01*
X58064Y-40579D01*
X58817Y-41332D01*
X58817Y-41332D01*
X58903Y-41390D01*
X58946Y-41419D01*
X58946Y-41419D01*
X59100Y-41450D01*
X60157Y-41450D01*
X60202Y-41494D01*
X60335Y-41550D01*
X60203Y-41604D01*
X60157Y-41650D01*
X58449Y-41650D01*
X58400Y-41600D01*
X58205Y-41520D01*
X57995Y-41519D01*
X57800Y-41600D01*
X57750Y-41650D01*
X55479Y-41650D01*
X55479Y-40125D01*
X55468Y-39917D01*
X55410Y-39777D01*
X55317Y-39752D01*
X55247Y-39823D01*
X55247Y-39682D01*
X55222Y-39589D01*
X55025Y-39520D01*
X54817Y-39531D01*
X54677Y-39589D01*
X54652Y-39682D01*
X54950Y-39979D01*
X55247Y-39682D01*
X55247Y-39823D01*
X55020Y-40050D01*
X55317Y-40347D01*
X55410Y-40322D01*
X55479Y-40125D01*
X55479Y-41650D01*
X55292Y-41650D01*
X55247Y-41605D01*
X55247Y-41604D01*
X55247Y-40417D01*
X54950Y-40120D01*
X54879Y-40191D01*
X54879Y-40050D01*
X54582Y-39752D01*
X54489Y-39777D01*
X54420Y-39974D01*
X54431Y-40182D01*
X54489Y-40322D01*
X54582Y-40347D01*
X54879Y-40050D01*
X54879Y-40191D01*
X54652Y-40417D01*
X54677Y-40510D01*
X54874Y-40579D01*
X55082Y-40568D01*
X55222Y-40510D01*
X55247Y-40417D01*
X55247Y-41604D01*
X55054Y-41525D01*
X54846Y-41524D01*
X54653Y-41604D01*
X54505Y-41752D01*
X54425Y-41945D01*
X54424Y-42153D01*
X54504Y-42347D01*
X54652Y-42494D01*
X54845Y-42574D01*
X55053Y-42575D01*
X55247Y-42495D01*
X55292Y-42450D01*
X57750Y-42450D01*
X57799Y-42499D01*
X57994Y-42579D01*
X58204Y-42580D01*
X58399Y-42499D01*
X58449Y-42450D01*
X60157Y-42450D01*
X60202Y-42494D01*
X60335Y-42550D01*
X60203Y-42604D01*
X60055Y-42752D01*
X59975Y-42945D01*
X59975Y-43009D01*
X58584Y-44400D01*
X57243Y-44400D01*
X57237Y-44383D01*
X57166Y-44313D01*
X57074Y-44275D01*
X56975Y-44274D01*
X56425Y-44274D01*
X56333Y-44312D01*
X56263Y-44383D01*
X56225Y-44475D01*
X56224Y-44574D01*
X56224Y-44574D01*
X56195Y-44503D01*
X56047Y-44355D01*
X55854Y-44275D01*
X55646Y-44274D01*
X55453Y-44354D01*
X55407Y-44400D01*
X53277Y-44400D01*
X53211Y-44334D01*
X53009Y-44250D01*
X52791Y-44249D01*
X52588Y-44333D01*
X52434Y-44488D01*
X52350Y-44690D01*
X52349Y-44908D01*
X52433Y-45111D01*
X52588Y-45265D01*
X52790Y-45349D01*
X53008Y-45350D01*
X53211Y-45266D01*
X53277Y-45200D01*
X55407Y-45200D01*
X55452Y-45244D01*
X55645Y-45324D01*
X55853Y-45325D01*
X56047Y-45245D01*
X56194Y-45097D01*
X56224Y-45025D01*
X56224Y-45124D01*
X56262Y-45216D01*
X56333Y-45286D01*
X56425Y-45324D01*
X56524Y-45325D01*
X57074Y-45325D01*
X57166Y-45287D01*
X57236Y-45216D01*
X57243Y-45200D01*
X58750Y-45200D01*
X58750Y-45199D01*
X58792Y-45191D01*
X57684Y-46300D01*
X55493Y-46300D01*
X55487Y-46283D01*
X55416Y-46213D01*
X55324Y-46175D01*
X55225Y-46174D01*
X54675Y-46174D01*
X54583Y-46212D01*
X54513Y-46283D01*
X54475Y-46375D01*
X54474Y-46474D01*
X54474Y-46474D01*
X54445Y-46403D01*
X54297Y-46255D01*
X54104Y-46175D01*
X53896Y-46174D01*
X53703Y-46254D01*
X53657Y-46300D01*
X51277Y-46300D01*
X51211Y-46234D01*
X51009Y-46150D01*
X50791Y-46149D01*
X50588Y-46233D01*
X50434Y-46388D01*
X50350Y-46590D01*
X50349Y-46808D01*
X50433Y-47011D01*
X50588Y-47165D01*
X50790Y-47249D01*
X51008Y-47250D01*
X51211Y-47166D01*
X51277Y-47100D01*
X53657Y-47100D01*
X53702Y-47144D01*
X53895Y-47224D01*
X54103Y-47225D01*
X54297Y-47145D01*
X54444Y-46997D01*
X54474Y-46925D01*
X54474Y-47024D01*
X54512Y-47116D01*
X54583Y-47186D01*
X54675Y-47224D01*
X54774Y-47225D01*
X55324Y-47225D01*
X55416Y-47187D01*
X55486Y-47116D01*
X55493Y-47100D01*
X57850Y-47100D01*
X57850Y-47099D01*
X57977Y-47074D01*
X58003Y-47069D01*
X58003Y-47069D01*
X58132Y-46982D01*
X59974Y-45140D01*
X59974Y-45153D01*
X60054Y-45347D01*
X60202Y-45494D01*
X60335Y-45550D01*
X60203Y-45604D01*
X60055Y-45752D01*
X59975Y-45945D01*
X59974Y-46153D01*
X60054Y-46347D01*
X60100Y-46392D01*
X60100Y-47057D01*
X60055Y-47102D01*
X59975Y-47295D01*
X59974Y-47503D01*
X60054Y-47697D01*
X60202Y-47844D01*
X60395Y-47924D01*
X60603Y-47925D01*
X60797Y-47845D01*
X60944Y-47697D01*
X61024Y-47504D01*
X61025Y-47296D01*
X61025Y-49387D01*
X61018Y-49267D01*
X60960Y-49127D01*
X60867Y-49102D01*
X60797Y-49173D01*
X60797Y-49032D01*
X60772Y-48939D01*
X60575Y-48870D01*
X60367Y-48881D01*
X60227Y-48939D01*
X60202Y-49032D01*
X60500Y-49329D01*
X60797Y-49032D01*
X60797Y-49173D01*
X60570Y-49400D01*
X60867Y-49697D01*
X60960Y-49672D01*
X61029Y-49475D01*
X61029Y-53080D01*
X60797Y-53080D01*
X60797Y-49767D01*
X60500Y-49470D01*
X60429Y-49541D01*
X60429Y-49400D01*
X60132Y-49102D01*
X60039Y-49127D01*
X59970Y-49324D01*
X59981Y-49532D01*
X60039Y-49672D01*
X60132Y-49697D01*
X60429Y-49400D01*
X60429Y-49541D01*
X60202Y-49767D01*
X60227Y-49860D01*
X60424Y-49929D01*
X60632Y-49918D01*
X60772Y-49860D01*
X60797Y-49767D01*
X60797Y-53080D01*
X49169Y-53080D01*
X49169Y-24919D01*
X49350Y-24919D01*
X78230Y-24919D01*
X78230Y-53080D01*
M02*
