M48
;DRILL file {Pcbnew (2013-07-07 BZR 4022)-stable} date 19/11/2014 11:58:57
;FORMAT={-:-/ absolute / inch / decimal}
FMAT,2
INCH,TZ
T1C0.030
T2C0.031
T3C0.032
T4C0.040
%
G90
G05
M72
T1
X5.81Y-4.005
X5.81Y-4.205
T2
X6.7089Y-4.4603
X6.7089Y-4.5391
X6.7089Y-4.6178
X6.7089Y-4.6965
X6.7089Y-4.7753
X6.7089Y-4.854
X6.7089Y-4.9328
X6.7089Y-5.0115
X6.7089Y-5.0902
X6.7089Y-5.169
X7.575Y-4.4603
X7.575Y-4.5391
X7.575Y-4.6178
X7.575Y-4.6965
X7.575Y-4.7753
X7.575Y-4.854
X7.575Y-4.9328
X7.575Y-5.0115
X7.575Y-5.0902
X7.575Y-5.169
T3
X5.09Y-4.27
X5.09Y-4.67
X5.29Y-4.08
X5.29Y-4.48
X5.4Y-4.67
X5.495Y-4.005
X5.495Y-4.205
X5.5Y-4.67
X5.575Y-4.48
X5.62Y-3.805
X5.62Y-4.005
X5.675Y-4.48
X5.925Y-2.905
X5.925Y-3.305
X6.05Y-3.305
X6.05Y-3.405
X6.05Y-3.505
X6.05Y-3.605
X6.05Y-3.705
X6.05Y-3.805
X6.05Y-3.905
X6.05Y-4.005
X6.05Y-4.105
X6.05Y-4.205
X6.05Y-4.305
X6.05Y-4.405
X6.05Y-4.505
X6.05Y-4.605
X6.05Y-4.74
X6.05Y-4.94
X6.175Y-2.975
X6.27Y-3.13
X6.275Y-2.975
X6.35Y-3.305
X6.35Y-3.405
X6.35Y-3.505
X6.35Y-3.605
X6.35Y-3.705
X6.35Y-3.805
X6.35Y-3.905
X6.35Y-4.005
X6.35Y-4.105
X6.35Y-4.205
X6.35Y-4.305
X6.35Y-4.405
X6.35Y-4.505
X6.35Y-4.605
X6.495Y-4.07
X6.495Y-4.27
X6.67Y-3.13
X7.335Y-3.14
X7.335Y-3.24
X7.335Y-3.34
X7.335Y-3.44
X7.335Y-3.54
X7.335Y-3.64
T4
X5.32Y-2.805
X5.32Y-2.905
X5.32Y-3.005
X6.05Y-2.73
X6.15Y-2.73
X6.25Y-2.73
X6.35Y-2.73
X6.45Y-2.73
X6.55Y-2.73
T0
M30
